<svg xmlns="http://www.w3.org/2000/svg" xmlns:xlink="http://www.w3.org/1999/xlink" width="175" height="175" viewBox="0 0 175 175"><defs><linearGradient id="a" x1="1.782" y1="-5.027" x2="0.442" y2="-2.191" gradientUnits="objectBoundingBox"><stop offset="0" stop-color="#c9b5ee"/><stop offset="0.59" stop-color="#a57cf0"/><stop offset="1" stop-color="#9868f2"/></linearGradient><linearGradient id="b" x1="39.548" y1="-6.146" x2="30.34" y2="1.777" xlink:href="#a"/><linearGradient id="c" x1="0.549" y1="0.417" x2="0.202" y2="1.267" gradientUnits="objectBoundingBox"><stop offset="0" stop-color="#c9b5ee" stop-opacity="0.478"/><stop offset="0.59" stop-color="#a57cf0" stop-opacity="0.38"/><stop offset="1" stop-color="#9868f2" stop-opacity="0.4"/></linearGradient><clipPath id="e"><rect width="175" height="175"/></clipPath></defs><g id="d" clip-path="url(#e)"><g transform="translate(1 -5.901)"><g transform="translate(-1 38.073)"><path d="M96.549,146.173c-4.92-1.829-11.722-.3-14.432,3.888s5.008,4.6,10.106,6.3S116.31,153.518,96.549,146.173Z" transform="translate(8.059 -30.821)" opacity="0.27" fill="url(#a)"/><g transform="translate(1.857 53.677)" opacity="0.21"><path d="M4.731,100.52c2.222-3.191,3.508-10.134-.521-11.91s-3.2,6.111-3.457,9.682S3.965,101.621,4.731,100.52Z" transform="translate(-0.74 -88.353)" fill="url(#b)"/><path d="M4.731,100.52c2.222-3.191,3.508-10.134-.521-11.91s-3.2,6.111-3.457,9.682S3.965,101.621,4.731,100.52Z" transform="translate(-0.74 -88.353)" fill="#4f4f4f" opacity="0.3" style="mix-blend-mode:screen;isolation:isolate"/></g><g transform="translate(4.898)"><path d="M170.616,120.044c1.231,5.893,2.245,12.453-.516,20.039-5.584,15.327-23.351,19.661-39.109,15.493-3.583-.945-7.113-1.893-10.569-2.746-11.753-2.876-22.716-4.581-32.308-.955a115.523,115.523,0,0,1-13.632,4.155c-11.095,2.645-23.236,3.724-28.627-.837a53.625,53.625,0,0,1-4.58-4.494c-4.493-4.851-8.79-10.011-18.2-12.758a45.281,45.281,0,0,0-5.9-1.281c-7.151-1.083-11.01-4.753-12.637-9.391C2.2,120.619,4.457,111.977,8.2,106.1a16.055,16.055,0,0,0,2.365-7.338c.777-8.279-2.8-17.325,4.425-25.467,9.438-10.625,21.848-7.41,30.616-9.438,7.54-1.752,13.946-5.431,20.528-15.3S88.214,35.8,94.951,39.832s12.862,13.071,29.9,15.226c10.613,1.341,18.05,2.712,22.935,4.886a18.426,18.426,0,0,1,1.683.836,11.484,11.484,0,0,1,4.519,4.16c3.243,5.505,6.853,9.738,14.563,15.125a13.39,13.39,0,0,1,1.98,1.666c5.283,5.368,3.139,13.031-.574,21.982C167.881,108.718,169.359,114.034,170.616,120.044Z" transform="translate(-3.588 -38.073)" fill="url(#c)"/><path d="M170.575,81.732c-11.827-2.614-24.1,9.4-37.977,23.318C110.15,127.572,44.853,109.1,23.082,137.941a45.3,45.3,0,0,0-5.9-1.281c-7.153-1.083-11.013-4.753-12.64-9.391C2.2,120.619,4.457,111.977,8.2,106.1c6.347-9.99-2.642-22.174,6.792-32.805s21.855-7.41,30.625-9.438c7.542-1.752,13.949-5.431,20.533-15.3S88.238,35.8,94.976,39.832,107.842,52.9,124.883,55.058c10.616,1.341,18.055,2.712,22.942,4.886a12.773,12.773,0,0,1,6.2,5c3.244,5.505,6.855,9.738,14.567,15.125A13.393,13.393,0,0,1,170.575,81.732Z" transform="translate(-3.588 -38.073)" fill="none" opacity="0.61" style="mix-blend-mode:screen;isolation:isolate"/><path d="M149.4,60.78c-29.277,1.6-57.217,7.069-75,24.606C56.552,103,32.891,88.249,10.044,98.757c.779-8.279-2.806-17.325,4.439-25.467,9.469-10.625,21.92-7.41,30.716-9.438,7.565-1.752,13.991-5.431,20.595-15.3S87.948,35.8,94.707,39.832s12.9,13.071,30,15.226c10.647,1.341,18.109,2.712,23.01,4.886A18.511,18.511,0,0,1,149.4,60.78Z" transform="translate(-3.167 -38.073)" fill="none" opacity="0.48" style="mix-blend-mode:screen;isolation:isolate"/></g><path d="M139.193,84.468a.908.908,0,1,1-.908-.91A.908.908,0,0,1,139.193,84.468Z" transform="translate(12.849 -35)" fill="#4f4f4f" opacity="0" style="mix-blend-mode:screen;isolation:isolate"/><circle cx="0.909" cy="0.909" r="0.909" transform="translate(163.735 89.629)" fill="#4f4f4f" opacity="0" style="mix-blend-mode:screen;isolation:isolate"/><circle cx="0.909" cy="0.909" r="0.909" transform="translate(166.269 95.034)" fill="#4f4f4f" opacity="0" style="mix-blend-mode:screen;isolation:isolate"/><circle cx="0.909" cy="0.909" r="0.909" transform="translate(151.403 108.448)" fill="#4f4f4f" opacity="0" style="mix-blend-mode:screen;isolation:isolate"/><path d="M143.416,144.053a.908.908,0,1,1-.909-.908A.909.909,0,0,1,143.416,144.053Z" transform="translate(13.134 -30.975)" fill="#4f4f4f" opacity="0" style="mix-blend-mode:screen;isolation:isolate"/><circle cx="0.909" cy="0.909" r="0.909" transform="translate(98.026 106.181)" fill="#4f4f4f" opacity="0.51" style="mix-blend-mode:screen;isolation:isolate"/><circle cx="0.909" cy="0.909" r="0.909" transform="translate(87.623 5.472)" fill="#4f4f4f" opacity="0" style="mix-blend-mode:screen;isolation:isolate"/><circle cx="0.909" cy="0.909" r="0.909" transform="translate(97.104 117.332)" fill="#4f4f4f" opacity="0" style="mix-blend-mode:screen;isolation:isolate"/><circle cx="0.909" cy="0.909" r="0.909" transform="translate(66.981 18.388)" fill="#4f4f4f" opacity="0" style="mix-blend-mode:screen;isolation:isolate"/><circle cx="0.909" cy="0.909" r="0.909" transform="translate(150.224 63.467)" fill="#4f4f4f" opacity="0" style="mix-blend-mode:screen;isolation:isolate"/><path d="M145.9,107.214a.908.908,0,1,1-.908-.908A.908.908,0,0,1,145.9,107.214Z" transform="translate(13.302 -33.463)" fill="#4f4f4f" opacity="0" style="mix-blend-mode:screen;isolation:isolate"/><circle cx="0.909" cy="0.909" r="0.909" transform="translate(130.607 62.002)" fill="#4f4f4f" opacity="0.51" style="mix-blend-mode:screen;isolation:isolate"/><circle cx="0.909" cy="0.909" r="0.909" transform="translate(53.739 104.364)" fill="#4f4f4f" opacity="0" style="mix-blend-mode:screen;isolation:isolate"/><path d="M.927,114.768a.963.963,0,0,1-.963.963A.963.963,0,0,1-1,114.768a.964.964,0,0,1,.964-.964A.963.963,0,0,1,.927,114.768Z" transform="translate(1 -32.957)" fill="#4f4f4f" opacity="0.51" style="mix-blend-mode:screen;isolation:isolate"/><path d="M17.392,103.559a.908.908,0,1,1-.908-.908A.908.908,0,0,1,17.392,103.559Z" transform="translate(2.12 -33.71)" fill="#4f4f4f" opacity="0" style="mix-blend-mode:screen;isolation:isolate"/><path d="M7.021,76.887a.963.963,0,1,1-.963-.964A.963.963,0,0,1,7.021,76.887Z" transform="translate(1.412 -35.516)" fill="#4f4f4f" opacity="0.51" style="mix-blend-mode:screen;isolation:isolate"/><path d="M72.685,142.671a.908.908,0,1,1-.908-.908A.908.908,0,0,1,72.685,142.671Z" transform="translate(6.979 -31.068)" fill="#4f4f4f" opacity="0" style="mix-blend-mode:screen;isolation:isolate"/><path d="M120.288,144.053a.909.909,0,1,1-.91-.908A.909.909,0,0,1,120.288,144.053Z" transform="translate(10.939 -30.975)" fill="#4f4f4f" opacity="0" style="mix-blend-mode:screen;isolation:isolate"/></g><g transform="translate(35.714 40.424)"><g transform="translate(0 0)"><g transform="translate(9.401 22.532)"><g transform="translate(2.086 0.989)"><g transform="translate(0 13.73)"><path d="M60.358,102.868h-3.2a2.075,2.075,0,0,1-2.1-1.7V93.979h3.2v7.192h2.1Z" transform="translate(-44.482 -57.885)" fill="#a3bbe5"/><path d="M58.167,93.979v7.192h2.1v1.7h-3.2a2.327,2.327,0,0,1-.737-.121,1.978,1.978,0,0,0,1.224-1.459V93.979Z" transform="translate(-44.395 -57.885)" fill="#7797c6"/><path d="M66.542,83.49C67.1,93.963,62.549,98.1,56.656,98.1S45.765,93.963,45.2,83.49s3.526-23.321,9.418-23.321S65.98,73.017,66.542,83.49Z" transform="translate(-45.151 -60.169)" fill="#18496b"/><path d="M67.492,83.3c.543,10.125-3.86,14.12-9.557,14.12S47.406,93.429,46.862,83.3s3.408-22.545,9.1-22.545S66.948,73.18,67.492,83.3Z" transform="translate(-45.038 -60.129)" fill="#285d87"/><path d="M67.236,83.283c-.493-9.191-4.9-20.242-9.966-22.207-.689.726-1.334,1.556-1.279,2.073a1.873,1.873,0,0,0,.784,1.38s-1.413,2.937-.542,4.224l0,0C53.817,70.81,49.5,81.819,50.849,83.891c1.269,1.943,3.6,2.583,8.754.083-.614,1.155-1.142.7-3.013,6.287.045.014.084.022.128.036-.091.273-.183.54-.271.831a17.27,17.27,0,0,0-.487,3.767,12.275,12.275,0,0,0,.175,2.392,11.349,11.349,0,0,0,1.544.115C63.376,97.4,67.78,93.408,67.236,83.283ZM57.8,79.412l1.172-2.494,1.3,2.044Z" transform="translate(-44.783 -60.108)" fill="#18496b"/><rect width="24.678" height="1.645" transform="translate(24.452 44.096) rotate(90)" fill="#a3bbe5"/><rect width="24.678" height="0.601" transform="translate(23.408 44.096) rotate(90)" fill="#7797c6"/><path d="M68.325,107.993l1.307-6.16H65.217l1.307,6.16Z" transform="translate(-43.795 -57.354)" fill="#7797c6"/><path d="M58.626,126.06H77.114v-.507l-7.426-1.239H66.052l-7.426,1.239Z" transform="translate(-44.24 -55.835)" fill="#a3bbe5"/><path d="M65.176,124.778h4.5l-.836-5.253H66.012Z" transform="translate(-43.798 -56.159)" fill="#a3bbe5"/><path d="M69.284,119.525H66.455l-.836,5.253-6.993,1.1H70.951l-2.181-.944-.589-4.943Z" transform="translate(-44.24 -56.159)" fill="#7797c6"/><g transform="translate(9.841 40.678)"><path d="M80.882,100.6H55.306a2.325,2.325,0,0,1,2.325-2.324H78.557a2.325,2.325,0,0,1,2.324,2.324Z" transform="translate(-54.306 -98.273)" fill="#285d87"/><path d="M77.6,98.273H66.845a2.418,2.418,0,0,1,2.5,2.324H80.1A2.418,2.418,0,0,0,77.6,98.273Z" transform="translate(-53.526 -98.273)" fill="#18496b"/><path d="M55.347,100.069a2.226,2.226,0,0,0-.041.407H80.882a2.136,2.136,0,0,0-.041-.407Z" transform="translate(-54.306 -98.152)" fill="#18496b"/><rect width="27.577" height="3.138" transform="translate(0 2.232)" fill="#285d87"/><rect width="17.822" height="3.138" transform="translate(9.755 2.232)" fill="#18496b"/><rect width="27.577" height="0.378" transform="translate(0 2.232)" fill="#18496b"/></g><path d="M64.17,106.724a1.317,1.317,0,0,0,.436-.059c.911-.332.724-3.166.7-3.489a.137.137,0,0,0-.137-.127h-.011a.136.136,0,0,0-.125.147c.085,1.137.02,3.014-.519,3.21-.651.231-3.12-.525-4.019-.839a.138.138,0,0,0-.091.26A16.285,16.285,0,0,0,64.17,106.724Z" transform="translate(-44.127 -57.272)" fill="#323749"/><path d="M59.837,104.528c.6.158,1.485.8,1.361,1.262s-1.208.582-1.806.424a.9.9,0,1,1,.445-1.686Z" transform="translate(-44.248 -57.175)" fill="#323749"/></g><g transform="translate(7.587)"><path d="M60.227,59.707s-2.944,2.458-2.829,3.535a1.873,1.873,0,0,0,.784,1.38s-1.413,2.937-.542,4.224,6.6-.027,6.6-.027l-.368-7.927Z" transform="translate(-51.913 -46.471)" fill="#4c348c"/><path d="M59.674,59.545l2.634,1.537.031.948a4.919,4.919,0,0,1-3.169-1.616Z" transform="translate(-51.79 -46.482)" fill="#323249"/><path d="M70.316,67.159c-2.923-.378-1.638,3.894.9,8.985,2.147,4.315,3.133,7.6,5.058,6.835C79.132,81.838,72.622,67.456,70.316,67.159Z" transform="translate(-51.151 -45.969)" fill="#4aa9b8"/><path d="M81.386,93.634s1.963,1.349.981,4.966H74.4S74.641,93.573,81.386,93.634Z" transform="translate(-50.762 -44.179)" fill="#303047"/><g transform="translate(30.576 78.053)"><path d="M84.07,125.1s1.576.652,1.594.966-1.933.352-3.178.231c-.573-.057-.564-1.906-1.05-2.929s-1-1.024.207-2.821l1.008,3.645Z" transform="translate(-80.899 -120.414)" fill="#2d313d"/><path d="M82.661,120.422s.382,1.4.65,2.391a10.8,10.8,0,0,0,.745,2.292,2.1,2.1,0,0,1-1.361.117c-.583-.227-.575-1.594-1.518-3.131-.338-.551.5-1.626.5-1.626Z" transform="translate(-80.885 -120.422)" fill="#fbb7b7"/><path d="M81.638,120.544a5.724,5.724,0,0,0,.066,1.368c.124.634.553,3.93,2.361,3.186,0,0-.584,1.228-1.32.829s-.91-1.934-1.241-2.732S80.4,122.255,81.638,120.544Z" transform="translate(-80.894 -120.414)" fill="#2d313d"/><path d="M80.951,122.329a21.769,21.769,0,0,1,.476,3.845h.257a14.707,14.707,0,0,1,.066-2.564Z" transform="translate(-80.895 -120.293)" fill="#2d313d"/></g><path d="M74.758,91.8s8.007,1.656,8.158,4.858-.3,5.02-.186,12.636.441,13.286.441,13.286l-1.047-.08s-4.254-12.652-4.161-16.862a38.992,38.992,0,0,1,.923-7.583H73.123Z" transform="translate(-50.848 -44.303)" fill="#fbb7b7"/><path d="M77.934,96.461,74.286,93.59l2.143-1.373c1.718.5,4.261,1.419,5.568,2.743a1.876,1.876,0,0,0-1.346.57,10.828,10.828,0,0,1,0,1.863c-.073,1.222-1.739,8.3-1.862,13.9a26.345,26.345,0,0,1-.9-5.691,38.894,38.894,0,0,1,.923-7.583H77.617C77.808,97.085,77.934,96.461,77.934,96.461Z" transform="translate(-50.769 -44.274)" fill="#fbb7b7"/><path d="M72.592,92.313s7.97,1.1,7.663,4.307-.984,5.02-1.956,12.636-1.459,13.286-1.459,13.286l-1.038-.08s-2.444-12.652-1.748-16.862a44.321,44.321,0,0,1,1.971-7.583H70.262Z" transform="translate(-51.041 -44.268)" fill="#fbb7b7"/><path d="M79.757,95.464c-.011,0-1.969-.179-3.973,2.522H73.85l.821-5.23C76.536,93.228,78.964,94.084,79.757,95.464Z" transform="translate(-50.798 -44.238)" fill="#fbb7b7"/><g transform="translate(23.883 78.063)"><path d="M77.637,125.106s1.539.652,1.54.966-1.953.353-3.191.231c-.57-.057-.458-1.906-.888-2.929s-.943-1.024.364-2.82l.806,3.645Z" transform="translate(-74.629 -120.423)" fill="#2d313d"/><path d="M76.489,120.431s.3,1.4.517,2.391a10.259,10.259,0,0,0,.617,2.292,2.136,2.136,0,0,1-1.368.117c-.57-.227-.487-1.594-1.344-3.131-.307-.551.595-1.626.595-1.626Z" transform="translate(-74.614 -120.431)" fill="#fbb7b7"/><path d="M75.458,120.553a5.744,5.744,0,0,0-.01,1.368c.089.634.334,3.93,2.184,3.186,0,0-.652,1.228-1.365.829s-.8-1.934-1.089-2.732S74.124,122.264,75.458,120.553Z" transform="translate(-74.624 -120.423)" fill="#2d313d"/><path d="M74.667,122.338a21.329,21.329,0,0,1,.263,3.846h.257a14.777,14.777,0,0,1,.208-2.564Z" transform="translate(-74.626 -120.302)" fill="#2d313d"/></g><path d="M57.853,89.228s-1.8,6.729,1.508,9.549H75.548c1-2.834,3.095-4.667,6.989-4.844L74.591,89.2Z" transform="translate(-51.912 -44.478)" fill="#3d3d5b"/><path d="M74.56,89.2l-3.043,2.656s-10.322-1.009-13.7-2.625Z" transform="translate(-51.881 -44.478)" fill="#323249"/><path d="M61,89.221l-3.15.005s-1.8,6.852,1.508,9.672H75.548a10.027,10.027,0,0,1,.611-1.471c-1.593-.01-9.039-.141-12.751-1.779C60.3,94.279,60.633,90.873,61,89.221Z" transform="translate(-51.912 -44.477)" fill="#323249"/><path d="M71.264,57.71s2.314-3.905,1.637-5.726c-1.441-3.875-5.96-4.8-6.231-4.217-2.484-1.32-5.661.489-6.884,1.878-4.254,4.835-1.072,12.6,3.837,12.524C71.117,64.387,71.264,57.71,71.264,57.71Z" transform="translate(-51.883 -47.308)" fill="#4c348c"/><path d="M63.059,80.609c0-1.076-6.535-6.944-5.012-12.479h0c1.008-.471,1.914-.847,2.786-1.164,3.417-1.241,6.134-1.255,10.687.526.047.483.3,3.047.344,3.523a10.072,10.072,0,0,1,1.028,3.837c-.2,1.547-3.851,4.739-3.851,5.961s3.8,8.487,5.519,9.943c-5.307,1.823-10.91,1.673-16.738.032C60.032,83.558,63.059,81.734,63.059,80.609Z" transform="translate(-51.882 -46.04)" fill="#f4e4ec"/><path d="M59.508,74.3a26.674,26.674,0,0,0,13.38.012c-.212,1.552-3.846,4.73-3.846,5.95s3.8,8.487,5.519,9.943c-5.307,1.823-10.91,1.673-16.738.032,2.21-7.232,5.236-9.055,5.236-10.18,0-.607-2.085-2.746-3.624-5.488Z" transform="translate(-51.881 -45.485)" fill="#dbb4d1"/><path d="M65.584,67.826c.133.271,1.8,6.567,1.974,7.848.179,1.337-1.082,4.025-1.033,5.194a50.549,50.549,0,0,0,3.056,10.824c-.09.013-.179.019-.269.031a44.679,44.679,0,0,1-3.059-10.851c-.016-1.025,1.2-3.947,1.037-5.162-.165-1.238-1.942-7.787-1.975-7.853Z" transform="translate(-51.375 -45.922)" fill="#cca2c3"/><path d="M61.581,58.823s1.378,4.959.3,8.423l3.474.557,2.032-.33a14.468,14.468,0,0,1-.635-5.054C66.852,60.3,61.581,58.823,61.581,58.823Z" transform="translate(-51.627 -46.53)" fill="#fbb7b7"/><path d="M66.2,67.7l.7,1.294,1.314-2.5c-.207-.051-.412-.1-.612-.14L65.5,66.047l-3.208.393c-.4.1-.806.217-1.22.357l3.452,2.5.581-1.512.779.709Z" transform="translate(-51.662 -46.042)" fill="#cca2c3"/><path d="M62.4,59.073c1.48.515,4.4,1.665,4.324,3.255a11.583,11.583,0,0,0,.062,2.065,9.244,9.244,0,0,1-4.62,2.883l-.295-.047c.828-2.664.206-6.2-.126-7.7Z" transform="translate(-51.616 -46.513)" fill="#fbb7b7"/><path d="M65.492,66.153l-1.06,2.616-3.318-1.993.879-2.306Z" transform="translate(-51.659 -46.149)" fill="#f4e4ec"/><path d="M65.215,66.129l1.369,2.376,1.242-2.056L66.8,64.628Z" transform="translate(-51.382 -46.138)" fill="#f4e4ec"/><path d="M67.749,64.889c.518-.064,1.29-1.01,1.79-1.5A4.607,4.607,0,0,0,70.9,58.312s2.079-7.117-3.761-7.69-6.745,5.221-5.429,9.562A6.559,6.559,0,0,0,67.749,64.889Z" transform="translate(-51.654 -47.087)" fill="#fbb7b7"/><path d="M65.66,50.633c-4.092.756-4.6,13.233,2.151,14.234-.02,0-.043.016-.063.019a6.559,6.559,0,0,1-6.04-4.7C60.513,56.24,61.163,51.118,65.66,50.633Z" transform="translate(-51.654 -47.084)" fill="#fbb7b7"/><path d="M68.482,55.444a3.078,3.078,0,0,0-.962,2.444,2.143,2.143,0,0,0,1.373,1.782,1.387,1.387,0,0,1-1.241.978c-.922-.022.75-.922.75-.922A3.058,3.058,0,0,1,67.083,57.9,3.059,3.059,0,0,1,68.482,55.444Z" transform="translate(-51.256 -46.759)" fill="#fbb7b7"/><g transform="translate(13.859 14.509)"><path d="M65.494,61.06c-.019.044-.159.025-.2.005a.087.087,0,1,1,.069-.159C65.4,60.926,65.513,61.016,65.494,61.06Z" transform="translate(-65.239 -60.899)" fill="#93271c"/><path d="M68.85,61.111c.027.038.16-.007.2-.035a.086.086,0,0,0-.1-.141C68.911,60.963,68.823,61.072,68.85,61.111Z" transform="translate(-64.996 -60.898)" fill="#93271c"/><path d="M65.38,61.006l3.793.058A2.342,2.342,0,0,1,67.318,62.2,2.534,2.534,0,0,1,65.38,61.006Z" transform="translate(-65.23 -60.892)" fill="#9a6335"/><path d="M65.38,61.006l3.793.058A2.342,2.342,0,0,1,67.318,62.2,2.534,2.534,0,0,1,65.38,61.006Z" transform="translate(-65.23 -60.892)" fill="#93271c"/><path d="M65.639,61.107l3.072.042a1.757,1.757,0,0,1-3.072-.042Z" transform="translate(-65.212 -60.885)" fill="#f7eee2"/><path d="M65.639,61.107l3.072.042-.178.228A2.942,2.942,0,0,0,67.2,61.19a5.757,5.757,0,0,0-1.416.125S65.679,61.169,65.639,61.107Z" transform="translate(-65.212 -60.885)" fill="#d5b698"/></g><path d="M63.424,50.4l.41.312c1.391-.948,3.7-1.516,6.584.223,0,0-.285,1.145-2.033,1.469-3.528.652-4.924.778-6.061,2.991-.089,1.626.108,3-.286,3.066-.263.045-.873-.455-.873-.455S59.232,51,63.424,50.4Z" transform="translate(-51.686 -47.139)" fill="#4c348c"/><g transform="translate(8.371 10.984)"><path d="M60.1,58.8a1.241,1.241,0,1,0,1.28-1.2A1.241,1.241,0,0,0,60.1,58.8Z" transform="translate(-60.098 -57.597)" fill="#fbb7b7"/><path d="M61.338,58.006a.794.794,0,0,1,.465.185.665.665,0,0,0-.211-.049.689.689,0,0,0-.045,1.377.663.663,0,0,0,.167-.028.778.778,0,0,1-.428.124.8.8,0,1,1,.052-1.609Z" transform="translate(-60.071 -57.57)" fill="#f7cbcb"/></g><g transform="translate(11.684 9.562)"><path d="M65.91,57.5s-.1.621-1.2.527c-.951-.081-1.243-.626-.964-.538A18.26,18.26,0,0,0,65.91,57.5Z" transform="translate(-63.172 -56.183)" fill="#562824"/><path d="M66.05,57.244l-2.317-.286L63.2,56.9C63.6,56.19,65.9,55.8,66.05,57.244Z" transform="translate(-63.202 -56.265)" fill="#562824"/><path d="M65.919,57.239c-.056-.361-.253-.783-1.1-.756-1.178.036-1.314.787-1.11,1.123C64.074,58.2,66.089,58.351,65.919,57.239Z" transform="translate(-63.173 -56.251)" fill="#f7eee2"/><path d="M64.369,57.267a.793.793,0,1,0,.786-.828A.807.807,0,0,0,64.369,57.267Z" transform="translate(-63.123 -56.254)" fill="#562824"/></g><path d="M60.778,53.779a2.7,2.7,0,0,0,1.215-.2,2.178,2.178,0,0,0,.44-.244c1.513-1.126,3.676-1.412,5.5-1.65,1.433-.188,1.828-.842,1.932-1.116.053-.018.1.05.1.05a3.916,3.916,0,0,0,.359.537,2.51,2.51,0,0,1-1.919,1.2c-3.526.652-4.923.778-6.059,2.989-.089,1.626.107,3-.287,3.068-.263.045-.873-.455-.873-.455C60.761,58.017,60,55.881,60.778,53.779Z" transform="translate(-51.704 -47.088)" fill="#4c348c"/><g transform="translate(17.078 9.782)"><path d="M68.269,57.589s-.064.626,1.043.574c.671-.032.922-.53.638-.464A11.318,11.318,0,0,1,68.269,57.589Z" transform="translate(-68.254 -56.395)" fill="#562824"/><path d="M68.267,57.318l1.86-.132.414-.045C70.2,56.433,68.541,56.011,68.267,57.318Z" transform="translate(-68.254 -56.471)" fill="#562824"/><path d="M68.283,57.332c.09-.341.394-.706,1.233-.622a.723.723,0,0,1,.559,1.1C69.681,58.432,68.021,58.329,68.283,57.332Z" transform="translate(-68.255 -56.455)" fill="#f7eee2"/><path d="M70.171,57.473a.778.778,0,1,1-.716-.836A.779.779,0,0,1,70.171,57.473Z" transform="translate(-68.23 -56.46)" fill="#562824"/></g><path d="M62.916,80.548c0-1.076-6.491-6.869-4.867-12.479.876-.409,1.612-.792,2.379-1.083.032.046,4.16,5.442,4.756,8.111a13.872,13.872,0,0,1,0,5.449c-.233,1.629-.49,8.382.053,10.556a24.671,24.671,0,0,1-7.267-1.242C60.144,83.356,62.916,81.626,62.916,80.548Z" transform="translate(-51.884 -45.979)" fill="#0095c4"/><path d="M72.267,74.816c-.2,1.547-3.888,4.739-3.888,5.961,0,1.1,3.237,7.012,5.106,9.254a10.481,10.481,0,0,1-1.717.553S67.4,82.26,67.635,80.863s2.212-3.929,2.736-6.2c.518-2.243-1.743-7.875-1.781-8.031a7.348,7.348,0,0,1,2.267.769,21.441,21.441,0,0,1,.418,3.578A10.015,10.015,0,0,1,72.267,74.816Z" transform="translate(-51.219 -46.003)" fill="#0095c4"/><path d="M65.223,90.622a24.671,24.671,0,0,1-7.267-1.242c2.177-6.506,4.948-8.235,4.948-9.313,0-.645-2.324-2.988-3.842-5.964.246.113.437.208.437.208a24.344,24.344,0,0,0,5.748.794,14.6,14.6,0,0,1-.077,4.96C64.937,81.7,64.679,88.449,65.223,90.622Z" transform="translate(-51.872 -45.498)" fill="#007cb5"/><path d="M72.267,74.3c-.2,1.547-3.888,4.739-3.888,5.961,0,1.1,3.237,7.012,5.106,9.254a10.481,10.481,0,0,1-1.717.553s-4.366-8.324-4.134-9.721c.215-1.289,1.9-3.541,2.576-5.664.907-.155,1.615-.317,2.053-.429C72.262,74.267,72.268,74.288,72.267,74.3Z" transform="translate(-51.219 -45.488)" fill="#007cb5"/><path d="M69.975,50.071c-.465.234.691,3.446,1.545,2.864" transform="translate(-51.067 -47.122)" fill="#4f4f4f" opacity="0.58"/><path d="M58.422,68.01c2.75-1.061,2.179,3.705-.3,9.061-2.027,4.372-3.282,7.33-5.224,6.608C50.357,82.737,56.062,68.922,58.422,68.01Z" transform="translate(-52.257 -45.92)" fill="#0095c4"/><path d="M62.441,79.179a1.57,1.57,0,0,1,.289.627c0,.635-.965,1.505-2.2,3.438a32.829,32.829,0,0,0,4.407-2.9c.019-.209.04-.4.06-.539.084-.59.157-1.195.206-1.819Z" transform="translate(-51.698 -45.236)" fill="#007cb5" opacity="0.4" style="mix-blend-mode:multiply;isolation:isolate"/><g transform="translate(14.173 21.613)"><path d="M85.441,81.841l-9.332,1.91,4.145-14.288,9.332-1.91Z" transform="translate(-64.818 -67.553)" fill="#2d2d42"/><path d="M65.913,81.779,76.77,83.207l4.037-14.029-8.962-1.425-1.5-.15Z" transform="translate(-65.507 -67.55)" fill="#dbb4d1"/><path d="M65.913,81.763,76.77,83.19l4-13.915L69.917,67.847Z" transform="translate(-65.507 -67.533)" fill="#f7e7e7"/><path d="M76.947,83.7l-11.414-1.4,4.145-14.288,11.414,1.4Z" transform="translate(-65.533 -67.522)" fill="#323249"/><path d="M65.533,82.307l4.145-14.288,11.414,1.4Z" transform="translate(-65.533 -67.522)" fill="#2d2d42"/></g><path d="M64.513,77.387a.864.864,0,0,1,.169,1.188l-1.622.808-.377-1.559Z" transform="translate(-51.553 -45.276)" fill="#ed9558"/><path d="M64,77.463l.22,2.219c-2.484,1.669-10.1,5.165-11.667,3.065C50.859,79.1,57.627,78.828,64,77.463Z" transform="translate(-52.255 -45.271)" fill="#0095c4"/><g transform="translate(12.845 31.373)"><path d="M64.4,77.434a15.9,15.9,0,0,1,2.752-.738,5.955,5.955,0,0,1,1.2.25c.655.185,1.3.439,1.241.66s-.746-.007-1.378-.159c-.488-.118-1.032-.253-1.076-.158s.566.189,1.127.32c.679.158,1.465.385,1.439.616-.035.312-.876,0-1.586-.13-.549-.1-1.052-.2-1.072-.127s.369.127.954.249c.613.127,1.324.225,1.3.418-.034.276-.738.12-1.321.037s-1.028-.2-1.039-.113c0,.039.222.1.66.188s.913.091.872.265c-.046.2-1.441,0-1.917-.057s-1.992-.333-1.992-.333Z" transform="translate(-64.282 -76.696)" fill="#ffb476"/><path d="M64.4,77.434h0a15.566,15.566,0,0,1,2.752-.738.387.387,0,0,0-.206.58.442.442,0,0,0-.156.641s-.341.287-.131.574c0,0-.222.287-.1.464-.475-.062-1.992-.333-1.992-.333A.973.973,0,0,1,64.4,77.434Z" transform="translate(-64.289 -76.696)" fill="#ed9558"/></g><path d="M86.93,76.139c-.136-.454-2.4.036-2.448.219-.126.474,1.884-.06,1.858.1a6.518,6.518,0,0,1-1.161.173c-.556.091-.911.1-.937.256-.033.2.26.253.9.24.463-.009,1,0,.982.1a3.484,3.484,0,0,1-.89,0c-.47-.012-.912-.08-.95.029-.078.221.464.328.9.415.353.07.729.089.729.151s-.128.035-.377,0c-.351-.047-.851-.218-.862-.021-.005.094.373.278.754.394.258.078.689.2.828.063.068-.065.075-.118.175-.242.081-.1.17-.1.25-.288.043-.1.006-.256.054-.365.092-.209.25-.163.254-.484,0-.115-.082-.219-.082-.381S87,76.354,86.93,76.139Z" transform="translate(-50.097 -45.373)" fill="#ed9558"/></g></g><g transform="translate(0 39.161)"><rect width="22.297" height="4.825" transform="translate(2.937 1.652)" fill="#c47c42"/><rect width="1.646" height="44.323" transform="translate(2.937 1.513)" fill="#c47c42"/><rect width="0.979" height="44.323" transform="translate(23.307 1.513)" fill="#c47c42"/><rect width="0.979" height="44.323" transform="translate(24.286 1.513)" fill="#a85425"/><path d="M96.681,128.8H95.035V84.854l1.646-.373Z" transform="translate(-39.695 -82.968)" fill="#9e4e21"/><rect width="1.645" height="44.323" transform="translate(75.105 1.513)" fill="#a85425"/><rect width="52.465" height="4.794" transform="translate(24.286 1.652)" fill="#a85425"/><rect width="52.465" height="2.902" transform="translate(24.286 1.526)" fill="#99451f"/><rect width="21.349" height="2.775" transform="translate(2.937 1.652)" fill="#af5f2c"/><rect width="24.897" height="3.144" fill="#d38b51"/><rect width="55.8" height="3.144" transform="translate(24.255)" fill="#b76334"/><rect width="80.055" height="0.65" fill="#f49f44"/></g><g transform="translate(47.127)"><path d="M96.731,72.146l-1.21-1.787-.649.909,1.038,2.421Z" transform="translate(-86.832 -44.762)" fill="#fbb7b7"/><path d="M100.42,90.061s-8.476,1.547-8.071,4.962,1.046,4.987,2.269,13.113,2.006,14.174,2.006,14.174.985.453,1.1-.085c-.07-1.454,2.619-11.39,1.6-16.918A74.083,74.083,0,0,0,96.9,96.144h6.148Z" transform="translate(-87.004 -43.431)" fill="#fbb7b7"/><path d="M96.9,96.144h6.148l-2.624-6.083s-8.476,1.547-8.071,4.962.954,4.987,2.177,13.113c.825,5.487,1.449,10.017,1.768,12.387l2.061.167c.609-3.428,1.795-10.921.973-15.382A74.083,74.083,0,0,0,96.9,96.144Z" transform="translate(-87.004 -43.431)" fill="#323249"/><path d="M92.5,95.865c.41,2.779,1.037,4.783,2.109,11.918.333,2.211.631,4.26.892,6.082a39.53,39.53,0,0,0,.27-11.581,5.576,5.576,0,0,1,2.763-.821c.6,2.127-1.079-4.3-1.467-5.672h3.088l.28-.511Z" transform="translate(-86.993 -43.078)" fill="#2c2c3f"/><g transform="translate(6.943 78.655)"><path d="M95.464,125.046s-1.627.7-1.619,1.031,2.091.376,3.41.246c.606-.061.442-2.034.875-3.126s.981-1.091-.457-3.008l-.771,3.889Z" transform="translate(-93.845 -120.05)" fill="#2d313d"/><path d="M96.458,120.059s-.291,1.491-.494,2.551a10.782,10.782,0,0,1-.6,2.445,2.291,2.291,0,0,0,1.461.125c.6-.242.48-1.7,1.358-3.34.315-.587-.674-1.734-.674-1.734Z" transform="translate(-93.742 -120.059)" fill="#fbb7b7"/><path d="M97.571,120.189a2.861,2.861,0,0,0-.554,1.277c-.079.676-.732,4.182-1.655,3.581,0,0,.726,1.31,1.478.885s.808-2.064,1.094-2.914S99.037,122.015,97.571,120.189Z" transform="translate(-93.742 -120.05)" fill="#2d313d"/><path d="M98.315,122.093a22.64,22.64,0,0,0-.187,4.1h-.274a15.951,15.951,0,0,0-.285-2.735Z" transform="translate(-93.593 -119.922)" fill="#2d313d"/></g><g transform="translate(0 78.655)"><path d="M88.96,125.046s-1.627.7-1.619,1.031,2.091.376,3.41.246c.606-.061.442-2.034.875-3.126s.981-1.091-.457-3.008l-.77,3.889Z" transform="translate(-87.341 -120.05)" fill="#2d313d"/><path d="M89.954,120.059s-.29,1.491-.494,2.551a10.783,10.783,0,0,1-.6,2.445,2.291,2.291,0,0,0,1.461.125c.6-.242.48-1.7,1.358-3.34.315-.587-.674-1.734-.674-1.734Z" transform="translate(-87.238 -120.059)" fill="#fbb7b7"/><path d="M91.067,120.189a2.861,2.861,0,0,0-.554,1.277c-.079.676-.732,4.182-1.655,3.581,0,0,.726,1.31,1.477.885s.808-2.064,1.094-2.914S92.534,122.015,91.067,120.189Z" transform="translate(-87.238 -120.05)" fill="#2d313d"/><path d="M91.811,122.093a22.64,22.64,0,0,0-.187,4.1H91.35a15.837,15.837,0,0,0-.285-2.735Z" transform="translate(-87.089 -119.922)" fill="#2d313d"/></g><path d="M89.5,94.709c-.082,3.407.32,4.987.38,13.113S89.853,122,89.853,122a1.015,1.015,0,0,0,1.117-.085c-.068-1.006,4.414-11.465,4.173-16.918A56.284,56.284,0,0,0,93.83,95.83Z" transform="translate(-87.196 -43.117)" fill="#fbb7b7"/><path d="M122.5,88.259c-.781-3.622-3.609-2.027-6.106.284l-7.529-1.062-3.773.458c-3.515,2.261-15.671,3.88-15.592,7.35-.082,3.407.191,4.987.251,13.113.042,5.6.015,10.215-.005,12.541l1.993.384c1.085-3.324,3.677-11.356,3.483-15.754a50.715,50.715,0,0,0-.769-6.469c1,.157,23.868-.007,23.868-.007C121.455,98.156,123.977,95.119,122.5,88.259Z" transform="translate(-87.196 -43.697)" fill="#3d3d5b"/><path d="M113.332,95.444l1.5-3.343L103.6,88.135c-.317.161-.661.321-1.05.477h0A16.5,16.5,0,0,0,113.332,95.444Z" transform="translate(-86.313 -43.561)" fill="#323249"/><path d="M110.784,94.28c-3.92,2.613-18.171,2.057-18.171,2.057,2.46,10.145-1.842,24.675-1.842,24.675h0l.875.169c1.085-3.324,3.677-11.356,3.482-15.754a50.536,50.536,0,0,0-.768-6.469c1,.157,23.868-.007,23.868-.007,2.651-.794,4.832-3.115,4.562-7.943l-7.165-2.721A11.754,11.754,0,0,1,110.784,94.28Z" transform="translate(-87.109 -43.551)" fill="#323249"/><path d="M105.88,56.1a14.737,14.737,0,0,1-.188,1.914,2.5,2.5,0,0,1-.639,1.229c.221.67,1.15.775,1.15.775Z" transform="translate(-86.144 -45.725)" fill="#fbb7b7"/><path d="M110.514,68.18a17.756,17.756,0,0,0-.05-6.726l5.3-1.136a37.172,37.172,0,0,0,.976,7.837C116.754,68.848,110.514,68.18,110.514,68.18Z" transform="translate(-85.779 -45.44)" fill="#fbb7b7"/><path d="M105.843,56.861a.778.778,0,0,1-.7.119.8.8,0,0,0,.709.493Z" transform="translate(-86.138 -45.674)" fill="#fbb7b7"/><path d="M107.415,48.36s-1.927-.115-2.2,3.876c0,0,.138,2.521.417,4.343.215,1.4-.234,2.386-.038,3.545.175,1.04,1.246,2.2,2.555,4.889,0,0,.764.244,3.96-1.381Z" transform="translate(-86.134 -46.248)" fill="#fbb7b7"/><path d="M107.961,64.373s1.919-1.879,2.029-2.569a26.749,26.749,0,0,0-.453-3.886l2.922-.07,1.815,5.078S108.46,64.69,107.961,64.373Z" transform="translate(-85.948 -45.607)" fill="#fbb7b7"/><path d="M119.782,51.385c0,.013,0,.023,0,.036a6.248,6.248,0,0,0-1.67-3.1c-3.708-3.445-10.294-1.548-12.184-.078A4.652,4.652,0,0,0,104.2,49.88c0-.021,0-.036,0-.037-1.559,2.722,2.762,3.318,3.395,6.053.175.755.222,2.233.516,2.218.278-.015.461-.407.636-.824l1.19,2.161c.859-2,1.815,3.276,5.781,3.248C117.852,62.684,121.786,57.682,119.782,51.385Z" transform="translate(-86.224 -46.382)" fill="#4c348c"/><path d="M119.869,53.07l-3.55.123a3.667,3.667,0,0,1-2.184,3.636c-2.441,1.276-3.692.637-3.692.637l-1.006.775.335.426c.822-.856,1.921,3.606,5.573,3.58C117.228,62.233,120.512,58.325,119.869,53.07Z" transform="translate(-85.848 -45.93)" fill="#4c348c"/><path d="M109.1,82.668c.209,4-3.842,5.9-5.967,6.817,2.086,3.654,7.044,5.571,11.145,5.571,3.7,0,9.5.251,6.765-7.227-.976-2.666-2.6-4.766-2.6-5.837-.007-2.642,1.054-2.984,2.549-7.284a14.212,14.212,0,0,0,.844-7.2c-6.517-3.141-13.425-.776-14.52.159-1.394,5.02-3.187,6.911-3.033,8.379C104.522,78.288,108.995,80.607,109.1,82.668Z" transform="translate(-86.274 -45.061)" fill="#5c5c99"/><path d="M104.569,51.39a1.416,1.416,0,0,0-.408,1.466c.244,1.484,2.57,3.393,4.662,3.3C108.823,56.159,105.7,54.007,104.569,51.39Z" transform="translate(-86.207 -46.043)" fill="#4c348c"/><path d="M109.836,66.619l.484-1.586s2.254-1.75,6.569-1.086l.916,2.5S115.859,65.881,109.836,66.619Z" transform="translate(-85.821 -45.205)" fill="#f4e4ec"/><g transform="translate(22.016 10.027)"><path d="M110.724,57.733a1.3,1.3,0,1,1-.754-1.917A1.478,1.478,0,0,1,110.724,57.733Z" transform="translate(-107.947 -55.774)" fill="#fbb7b7"/><path d="M110.474,57.735a1.3,1.3,0,1,1-.754-1.917A1.479,1.479,0,0,1,110.474,57.735Z" transform="translate(-107.964 -55.774)" fill="#fbb7b7"/><path d="M109.484,56.408a.751.751,0,0,0-.779.314.564.564,0,0,1,.445-.075.757.757,0,0,1,.385.981.843.843,0,0,1-.621.622c.009,0,.014.011.022.014a1,1,0,0,0,.548-1.856Z" transform="translate(-107.914 -55.733)" fill="#efbfbf" opacity="0.4"/></g><path d="M103.137,89.3c2.2.388,7.043-4.3,12.269-4.378a8.892,8.892,0,0,1,5.032,1.285c-.925-1.977-1.991-3.533-1.993-4.4-.007-2.642,1.054-2.984,2.549-7.284a6.016,6.016,0,0,1-5.512,3.868,6.3,6.3,0,0,1-5.688-3.382s1.531-3.858.227-6.348l-5.3,8.3c1.159,1.891,4.287,3.8,4.378,5.525C109.312,86.48,105.26,88.382,103.137,89.3Z" transform="translate(-86.274 -44.876)" fill="#4d4d84"/><path d="M108.571,67.095c-1.6-.286-2.747,3.83-4.884,8.4-2.175,4.656-4.917,9.61-2.87,10.628C105.384,88.4,115.017,68.247,108.571,67.095Z" transform="translate(-86.479 -44.983)" fill="#f4e4ec"/><path d="M96.42,71.115a45.14,45.14,0,0,1,5.795,7.916s1.586,8.675-1.066,6.822-5.941-12.7-5.941-12.7Z" transform="translate(-86.81 -44.711)" fill="#f4e4ec"/><g transform="translate(3.208 23.633)"><path d="M92.689,70.329a1.749,1.749,0,0,1,.57-.326,17.4,17.4,0,0,1,1.927.35C95.655,70.439,92.6,70.883,92.689,70.329Z" transform="translate(-90.187 -68.419)" fill="#ed9558"/><path d="M92.827,70.721c-1.084-.179-2.43-.754-2.3-1,.148-.287,1.593.521,2.653.555Z" transform="translate(-90.334 -68.442)" fill="#fbb7b7"/><path d="M93.3,70.468c-.919-.246-2.032-.853-1.9-1.059.153-.234,1.329.584,2.241.7Z" transform="translate(-90.275 -68.461)" fill="#fbb7b7"/><path d="M95.693,70.338c-.293-.431-1.022-.479-1.735-.367-.383.286-1.758.233-1.712.714.012.275,2.017.265,2.762.614C95.008,71.3,96.068,70.891,95.693,70.338Z" transform="translate(-90.217 -68.424)" fill="#fbb7b7"/><path d="M95.64,70.432a5,5,0,0,0-1.521-1.258c-.207-.138-.8-.757-1.009-.642s.07.456.344.756a2.675,2.675,0,0,1,.573,1.215Z" transform="translate(-90.164 -68.519)" fill="#fbb7b7"/><path d="M92.6,70.8c-1.268-.312-2.224-.09-2.254-.372s1.96-.217,2.567-.108Z" transform="translate(-90.346 -68.403)" fill="#fbb7b7"/></g><g transform="translate(30.438 4.418)"><path d="M116.385,52.1s1.863-2.33,4.009-1.331c4.545,2.115-1.1,17.095,1.91,18.71,0,0-2.609-.164-3.873-3.977s-.56-11.518-1.815-11.409Z" transform="translate(-115.817 -50.52)" fill="#4c348c"/><path d="M121.485,52.162c.793,3.673-1.59,9.752-1.743,12.894a4.487,4.487,0,0,0,2.336,4.312C119.477,67.97,123.338,56.578,121.485,52.162Z" transform="translate(-115.591 -50.409)" fill="#4c348c"/><path d="M116.406,52a1.98,1.98,0,0,0,.556,2.191,1.185,1.185,0,0,1-1.076-.926A1.141,1.141,0,0,1,116.406,52Z" transform="translate(-115.853 -50.42)" fill="#f4e4ec"/></g><g transform="translate(8.397 28.443)"><path d="M101.032,84.244c-2.011-1-5.027-8.591-5.825-11.219.8,2.628,3.93,11.7,5.941,12.7,2.192,1.531,6.972-4.472,9.065-11.008C107.975,80.12,103.36,85.871,101.032,84.244Z" transform="translate(-95.207 -73.025)" fill="#dbb4d1"/></g><g transform="translate(10.412 15.117)"><rect width="24.776" height="1.629" transform="translate(14.469 43.666) rotate(89.957)" fill="#a3bbe5"/><rect width="24.776" height="0.595" transform="translate(14.469 43.667) rotate(89.957)" fill="#7797c6"/><path d="M109.132,107.9l-1.295-6.1h4.372l-1.295,6.1Z" transform="translate(-96.369 -57.755)" fill="#7797c6"/><path d="M119.635,126.109H101.327v-.5l7.354-1.227h3.6l7.354,1.227Z" transform="translate(-96.809 -56.229)" fill="#a3bbe5"/><path d="M112.272,124.839h-4.458l.828-5.2h2.8Z" transform="translate(-96.37 -56.55)" fill="#a3bbe5"/><path d="M108.694,119.638h2.8l.828,5.2,6.925,1.088H107.044l2.16-.934.583-4.895Z" transform="translate(-96.422 -56.55)" fill="#7797c6"/><g transform="translate(0 40.282)"><path d="M98.023,100.578H123.35a2.3,2.3,0,0,0-2.3-2.3H100.325a2.3,2.3,0,0,0-2.3,2.3Z" transform="translate(-97.032 -98.275)" fill="#285d87"/><path d="M100.5,98.275h10.651a2.4,2.4,0,0,0-2.478,2.3H98.023A2.394,2.394,0,0,1,100.5,98.275Z" transform="translate(-97.032 -98.275)" fill="#18496b"/><path d="M123.309,100.054a2.192,2.192,0,0,1,.041.4H98.023a2.192,2.192,0,0,1,.039-.4Z" transform="translate(-97.032 -98.155)" fill="#18496b"/><rect width="27.309" height="3.108" transform="translate(27.309 5.318) rotate(180)" fill="#285d87"/><rect width="17.648" height="3.108" transform="translate(17.648 5.318) rotate(180)" fill="#18496b"/><rect width="27.309" height="0.374" transform="translate(27.309 2.584) rotate(180)" fill="#18496b"/></g><path d="M113.284,106.644a1.3,1.3,0,0,1-.432-.059c-.9-.329-.715-3.136-.691-3.455A.136.136,0,0,1,112.3,103h.011a.135.135,0,0,1,.125.145c-.085,1.126-.02,2.985.512,3.179.646.228,3.092-.52,3.981-.829a.136.136,0,1,1,.09.256A16.113,16.113,0,0,1,113.284,106.644Z" transform="translate(-96.079 -57.673)" fill="#323749"/><path d="M117.429,104.47c-.592.157-1.47.788-1.348,1.249s1.2.576,1.789.42a.89.89,0,1,0-.441-1.669Z" transform="translate(-95.813 -57.577)" fill="#323749"/><path d="M117.077,102.825h3.166a2.054,2.054,0,0,0,2.083-1.679V94.023H119.16v7.123h-2.083Z" transform="translate(-95.744 -58.28)" fill="#a3bbe5"/><path d="M119.16,94.023v7.123h-2.083v1.679h3.166a2.285,2.285,0,0,0,.729-.12,1.957,1.957,0,0,1-1.213-1.445V94.023Z" transform="translate(-95.744 -58.28)" fill="#7797c6"/><g transform="translate(14.774)"><path d="M110.979,83.453c-.538,10.027,3.823,13.982,9.464,13.982s10.427-3.955,10.965-13.982-3.375-22.326-9.017-22.326S111.517,73.426,110.979,83.453Z" transform="translate(-110.934 -60.502)" fill="#18496b"/><path d="M111.964,83.635c-.557,10.371,3.954,14.463,9.79,14.463s10.786-4.092,11.342-14.463-3.491-23.093-9.326-23.093S112.52,73.265,111.964,83.635Z" transform="translate(-110.867 -60.542)" fill="#285d87"/></g></g></g></g></g></g></g></g></svg>