<svg xmlns="http://www.w3.org/2000/svg" xmlns:xlink="http://www.w3.org/1999/xlink" width="175" height="175" viewBox="0 0 175 175"><defs><linearGradient id="a" x1="0.439" y1="0.324" x2="0.513" y2="1.155" gradientUnits="objectBoundingBox"><stop offset="0" stop-color="#e2d2ff" stop-opacity="0.561"/><stop offset="0.59" stop-color="#c7b1ee" stop-opacity="0.329"/><stop offset="1" stop-color="#bb9eef" stop-opacity="0.439"/></linearGradient><linearGradient id="b" y1="0.5" x2="1" y2="0.5" gradientUnits="objectBoundingBox"><stop offset="0" stop-color="#fff"/><stop offset="0.678" stop-color="#c2a6f5"/><stop offset="1" stop-color="#a57cf0"/><stop offset="1" stop-color="#9868f2"/></linearGradient><linearGradient id="c" x1="0.339" y1="0.92" x2="0.578" y2="-0.092" gradientUnits="objectBoundingBox"><stop offset="0" stop-color="#fd70a5"/><stop offset="1" stop-color="#fdaac9"/></linearGradient><linearGradient id="d" x1="-0.647" y1="-0.714" x2="1.1" y2="1.104" xlink:href="#b"/><linearGradient id="e" x1="2.33" y1="0.36" x2="0.476" y2="0.502" xlink:href="#b"/><linearGradient id="f" x1="0.348" y1="0.845" x2="0.537" y2="-0.053" gradientUnits="objectBoundingBox"><stop offset="0" stop-color="#fff"/><stop offset="0.805" stop-color="#4e4b4c"/><stop offset="1" stop-color="#231f20"/></linearGradient><linearGradient id="g" x1="0.52" y1="0.048" x2="0.422" y2="1.446" gradientUnits="objectBoundingBox"><stop offset="0" stop-color="#c9b5ee"/><stop offset="0.59" stop-color="#c6a7ff"/><stop offset="1" stop-color="#c0a2f8"/></linearGradient><linearGradient id="h" x1="0.3" y1="0.516" x2="1.303" y2="0.757" gradientUnits="objectBoundingBox"><stop offset="0" stop-color="#fff"/><stop offset="0.352" stop-color="#c2a6f5"/><stop offset="1" stop-color="#a57cf0"/><stop offset="1" stop-color="#9868f2"/></linearGradient><linearGradient id="i" x1="-45.116" y1="30.324" x2="-44.116" y2="30.324" gradientUnits="objectBoundingBox"><stop offset="0" stop-color="#c9b5ee"/><stop offset="0.59" stop-color="#a57cf0"/><stop offset="1" stop-color="#9868f2"/></linearGradient><linearGradient id="j" x1="-45.086" y1="30.068" x2="-44.086" y2="30.068" xlink:href="#i"/><linearGradient id="k" x1="1.345" y1="0.757" x2="0.041" y2="0.353" xlink:href="#f"/><linearGradient id="l" x1="-2.28" y1="1.286" x2="-2.614" y2="9.379" xlink:href="#i"/><linearGradient id="m" x1="0.153" y1="0.171" x2="4.497" y2="4.321" xlink:href="#i"/><clipPath id="o"><rect width="175" height="175"/></clipPath></defs><g id="n" clip-path="url(#o)"><g transform="translate(-4 6.556)"><path d="M68.848,147.758q.668-.251,1.337-.543c2.112-.9,4.107-1.891,6.083-2.912.154-.078.316-.161.471-.245,7.116-3.668,14.065-7.633,25.327-9.254.135-.031.27-.045.407-.064l.161-.02a76.046,76.046,0,0,1,7.975-.646c.078,0,.149-.006.226-.006.452-.013.917-.02,1.382-.026.819-.013,1.653-.013,2.512,0,.439,0,.891.014,1.342.026h.02c.594.013,1.207.032,1.828.065s1.272.058,1.924.1q1.452.086,2.965.213h.013q1.52.126,3.119.291c1.066.109,2.164.233,3.281.374,1.581.2,3.215.433,4.881.665l.42.058.619.078c7.2.9,15.821,1.092,22.53-3.08a28.491,28.491,0,0,0,4.488-4.5c.188-.226.362-.465.537-.7a18.066,18.066,0,0,0,3.06-5.928c.143-.535.265-1.085.369-1.64.006-.045.013-.084.019-.129.039-.22.078-.439.1-.659v-.006a.325.325,0,0,0,.013-.078c.026-.155.045-.31.059-.458.07-.543.115-1.092.141-1.634.013-.233.02-.459.026-.684.019-.679.013-1.357-.02-2.048-.013-.535-.051-1.078-.1-1.621a1.734,1.734,0,0,1-.014-.18c-.031-.336-.07-.672-.109-1.007-.014-.124-.026-.246-.046-.369-.084-.658-.193-1.324-.315-1.983s-.259-1.33-.408-2c-.031-.155-.07-.309-.109-.458v-.006c-.239-1.033-.517-2.066-.833-3.087-.1-.342-.207-.684-.316-1.027-.155-.5-.323-.987-.484-1.479-.336-.981-.692-1.944-1.066-2.9-.188-.47-.375-.942-.569-1.414-.439-1.078-.9-2.138-1.375-3.165-.161-.342-.316-.678-.472-1.013-.09-.194-.18-.381-.271-.575-.348-.729-.7-1.44-1.052-2.13l-.349-.678v-.006c-.349-.672-.691-1.317-1.033-1.944q-.261-.484-.523-.949c-.174-.31-.343-.613-.51-.911q-.377-.668-.736-1.278c-.065-.11-.123-.219-.188-.323-.09-.161-.188-.316-.278-.472-.684-1.143-1.291-2.118-1.783-2.88-.2-.3-.4-.62-.594-.943-.1-.168-.2-.343-.3-.517-.116-.206-.233-.419-.343-.633a21.213,21.213,0,0,1-1.6-4.1c-.039-.129-.071-.258-.1-.387-.058-.194-.1-.394-.148-.594-.065-.278-.123-.555-.181-.84s-.11-.574-.155-.865c-.045-.265-.084-.53-.123-.808-.006-.064-.019-.129-.025-.2-.032-.27-.065-.548-.091-.832-.032-.3-.058-.614-.078-.931a.219.219,0,0,1-.006-.09q-.039-.475-.058-.968c-1.047-25.843-24.274-36.168-42.542-25.643C100.471,46.035,94.8,47.2,89.557,46.984c-.264-.013-.529-.025-.794-.045-.161-.006-.323-.019-.478-.039-.109-.006-.213-.013-.316-.025-.213-.02-.419-.039-.626-.065-.278-.032-.555-.065-.833-.1-.329-.045-.653-.1-.982-.154-.433-.071-.858-.149-1.278-.239l-.639-.136c-1.078-.233-2.144-.51-3.2-.819-.537-.149-1.072-.31-1.609-.478-.472-.143-.943-.3-1.414-.453-.336-.1-.678-.219-1.014-.329-1.7-.568-3.416-1.162-5.172-1.731-.574-.187-1.15-.374-1.736-.554-.291-.091-.588-.181-.878-.265s-.594-.175-.892-.259c-.226-.064-.452-.129-.678-.187-1.272-.355-2.569-.672-3.907-.943A27.185,27.185,0,0,0,47.5,41.249,25.372,25.372,0,0,0,35.4,51.523q-.861,1.357-1.607,2.828C32.2,57.516,31.8,62.113,30.95,65.995,28.587,76.7,23.194,78.651,19.765,84.32c-3.823,6.322-6.586,14.11-3.145,24.274,1.027,3.041,3.849,6.109,6.373,9.563.052.071.1.13.149.2.426.582.833,1.176,1.227,1.782.355.549.691,1.1,1.007,1.672a17.957,17.957,0,0,1,1.9,4.785,22.993,22.993,0,0,0,1.646,4.746,27.2,27.2,0,0,0,5.677,7.833c8.3,8.123,21.445,12.037,30.808,9.654.233-.052.464-.11.7-.181a1.372,1.372,0,0,0,.168-.045c.363-.1.717-.206,1.079-.323a.491.491,0,0,0,.084-.033c.394-.123.794-.258,1.188-.407Z" transform="translate(0.53 0.792)" fill="url(#a)"/><path d="M165.628,116.414c-.006.225-.014.452-.026.684-.026.542-.071,1.091-.141,1.634-.014.148-.032.3-.059.458a.324.324,0,0,1-.013.078v.006c-.026.22-.065.439-.1.659-.006.045-.013.084-.019.129-.1.555-.226,1.1-.369,1.64a18.066,18.066,0,0,1-3.06,5.928c-.175.233-.349.472-.537.7a28.491,28.491,0,0,1-4.488,4.5c-6.709,4.172-15.33,3.984-22.53,3.08l-.619-.078-.42-.058c-1.666-.233-3.3-.465-4.881-.665-1.117-.143-2.215-.265-3.281-.374s-2.105-.207-3.119-.291h-.013q-1.512-.126-2.965-.213c-.652-.039-1.3-.071-1.924-.1s-1.233-.052-1.828-.065h-.02c-.452-.013-.9-.026-1.342-.026-.853-.013-1.692-.013-2.512,0-.465.006-.931.014-1.382.026-.078,0-.149.006-.226.006a76.047,76.047,0,0,0-7.975.646l-.161.02c-.136.019-.271.032-.407.064q-4.738-2.993-9.079-6.069-2.906-2.064-5.644-4.158-2.374-1.812-4.611-3.636c-.362-.3-.717-.588-1.072-.884-27.838-23.04-41.353-48.031-47.868-65.7q.745-1.471,1.607-2.828a25.372,25.372,0,0,1,12.1-10.274,27.185,27.185,0,0,1,15.607-1.091c1.337.271,2.634.588,3.907.943.226.058.452.123.678.187.3.084.594.169.892.259s.587.174.878.264c.587.181,1.162.369,1.736.555,1.756.569,3.475,1.163,5.172,1.731.336.11.678.226,1.014.329.471.155.942.31,1.414.453.537.168,1.072.329,1.609.478,1.058.309,2.124.587,3.2.819l.639.136c.42.09.846.168,1.278.239.329.058.653.109.982.154.278.039.555.071.833.1.206.026.413.045.626.065.1.013.207.019.316.025.155.02.316.032.478.039.265.02.53.032.794.045,5.244.22,10.914-.948,17.623-4.817,18.268-10.525,41.495-.2,42.542,25.643q.019.494.058.968a.219.219,0,0,0,.006.09c.02.316.045.627.078.931.026.284.059.562.091.832.006.071.019.136.025.2.039.278.078.543.123.808.045.3.1.581.155.865s.116.563.181.84c.045.2.09.4.148.593.032.13.065.259.1.388a21.215,21.215,0,0,0,1.6,4.1c.11.214.226.426.343.633.1.174.194.349.3.517.194.323.394.639.594.943.491.762,1.1,1.736,1.783,2.88.09.155.181.31.271.472.064.1.129.213.194.323q.358.61.736,1.278c.168.3.336.6.51.911s.349.627.523.949c.336.627.678,1.272,1.033,1.944v.013c.116.22.233.445.349.672.349.691.7,1.4,1.052,2.13.091.194.181.381.271.575.155.335.31.672.472,1.013.465,1.027.929,2.086,1.375,3.165.194.472.381.943.569,1.414.368.956.723,1.919,1.066,2.9.161.491.329.982.484,1.479.109.343.213.685.316,1.027.3,1.021.587,2.054.833,3.087v.006c.031.155.07.31.1.464.155.659.29,1.325.414,1.989s.219,1.325.309,1.983c.02.123.032.245.045.368.046.336.085.672.116,1.008a1.734,1.734,0,0,0,.014.18c.051.543.09,1.086.1,1.621C165.641,115.057,165.647,115.735,165.628,116.414Z" transform="translate(1.386 0.792)" fill="none" opacity="0.61" style="mix-blend-mode:screen;isolation:isolate"/><path d="M100.328,111.69s-4.789-.268-5.542.323S93.548,115,93.548,115h6.4Z" transform="translate(4.29 4.315)" fill="#fbb7b7"/><path d="M119.95,91.639s-2.946,1.4-7.935,17.834a.651.651,0,0,1-.5.451l-12.423,2.343.189,2.589,13.587-.433s4.905,1.716,7.081-11.869Z" transform="translate(4.555 3.357)" fill="#fff"/><path d="M119.95,91.639s-2.946,1.4-7.935,17.834a.651.651,0,0,1-.5.451l-12.423,2.343.189,2.589,13.587-.433s4.905,1.716,7.081-11.869Z" transform="translate(4.555 3.357)" opacity="0.26" fill="url(#b)"/><path d="M150.652,80.264c-37.02-4.846-65.5-25.29-79.019-36.853,10.067,3.407,19.353,6.521,32.836-1.243,18.268-10.529,41.495-.2,42.542,25.639A23.609,23.609,0,0,0,150.652,80.264Z" transform="translate(3.24 0.792)" fill="none" opacity="0.48" style="mix-blend-mode:screen;isolation:isolate"/><path d="M139.389,121.544a17.956,17.956,0,0,1-4.462,6.445c-.161.168-.33.335-.5.5a50.271,50.271,0,0,1-3.907,3.455l-.42-.058c-1.666-.233-3.3-.465-4.881-.665-1.117-.143-2.215-.265-3.281-.374s-2.105-.207-3.119-.291H118.8q-1.512-.126-2.965-.213c-.652-.039-1.3-.071-1.924-.1s-1.233-.052-1.828-.065h-.02c-.452-.013-.9-.026-1.342-.026-.853-.013-1.692-.013-2.512,0-.465.006-.931.014-1.382.026-.078,0-.149.006-.226.006a76.043,76.043,0,0,0-7.975.646c3.7-10.6,16.092-11.648,16.092-11.648h24.835A4.5,4.5,0,0,1,139.389,121.544Z" transform="translate(4.533 4.677)" fill="#4c348c"/><path d="M63.98,89.118s3.632,4.682,5.247,18.808l8.96-7.669,2.26,2.341s-7.723,8.076-10.332,10.735a3.38,3.38,0,0,1-2.664,1.211c-2.361,0-5.489-13.319-6.377-16.709S63.98,89.118,63.98,89.118Z" transform="translate(2.728 3.236)" fill="#fd70a5"/><path d="M70.288,71.756A2.839,2.839,0,0,1,67.3,74.5s-7.147,7.423-9.08,10.624-8.4,17.3-15.506,17.3a11.835,11.835,0,0,1-4.622-.9c-4.521-1.921-6.961-6.778-3.687-13.145,4.279-8.312,16.306-7.507,17.6-14.931a8.793,8.793,0,0,1,9.685-7.75,3.07,3.07,0,0,1,1.614.809,8.889,8.889,0,0,1,1.858,2.542C67.663,68.086,70.733,68.769,70.288,71.756Z" transform="translate(1.384 2.113)" fill="#4c348c"/><path d="M54.771,85.591s-9.45,1-11.144,3.344.389,12.542,1.259,19.985a41.351,41.351,0,0,1-.3,7.327l16.063-.968a43.7,43.7,0,0,1,2.422-10.9C65,99.539,66.374,92.031,64.84,89.287S54.771,85.591,54.771,85.591Z" transform="translate(1.867 3.067)" fill="url(#c)"/><path d="M67.545,143.874q.668-.251,1.337-.543c2.112-.9,4.107-1.891,6.083-2.912.154-.078.316-.161.471-.245,1.325-3.345,2.583-8.188,2.164-11.3-.859-6.457-11.4-9.686-11.4-9.686H43.013s-3.835,13.774,5.85,15.82a21.667,21.667,0,0,1,4.172,1.337c.109.039.213.09.316.135.5.226.994.459,1.472.71l.329.174a36.561,36.561,0,0,1,8.95,6.987c.251-.051.478.149.7.413a1.37,1.37,0,0,0,.168-.045c.363-.1.717-.206,1.079-.323a.49.49,0,0,0,.084-.033c.394-.123.794-.258,1.188-.407Z" transform="translate(1.833 4.677)" fill="#00b7e6"/><path d="M121.171,116.07a40.4,40.4,0,0,1-4.412-19.614c.242-10.019,20.664-7.887,22.6-3.693,1.568,3.393.081,22.1-1.211,22.742S121.171,116.07,121.171,116.07Z" transform="translate(5.401 3.243)" fill="#fff"/><path d="M121.171,116.07a40.4,40.4,0,0,1-4.412-19.614c.242-10.019,20.664-7.887,22.6-3.693,1.568,3.393.081,22.1-1.211,22.742S121.171,116.07,121.171,116.07Z" transform="translate(5.401 3.243)" opacity="0.26" fill="url(#d)"/><g transform="translate(129.427 110.164)"><path d="M123.786,113.271l-.093-.05,3.826-7.107.093.05Z" transform="translate(-123.693 -106.114)" fill="#371d7f"/></g><rect width="132.538" height="3.067" transform="translate(23.524 117.781)" fill="#7d62d7"/><rect width="132.538" height="3.067" transform="translate(23.524 117.781)" fill="#4c348c" opacity="0.34"/><ellipse cx="65.549" cy="3.927" rx="65.549" ry="3.927" transform="translate(28.972 121.672)" opacity="0.22" fill="url(#e)" style="mix-blend-mode:multiply;isolation:isolate"/><rect width="7.426" height="21.083" transform="translate(43.058 123.864)" fill="#7d62d7"/><rect width="7.426" height="10.541" transform="translate(131.285 123.864)" fill="#7d62d7"/><rect width="118.332" height="4.52" transform="translate(30.627 120.848)" fill="#7d62d7"/><path d="M55.805,111.443a11.392,11.392,0,0,1,3.524-.113,10.446,10.446,0,0,1,3.5,2.157c.4.592-6.76.006-6.76.006Z" transform="translate(2.482 4.295)" fill="#fbb7b7"/><path d="M46.067,88.2c3.632,1.415,2.744,4.358-2.744,20.26l13.84,3.237-.2,2.9s-18.323.236-19.533-2.267S40.845,86.166,46.067,88.2Z" transform="translate(1.592 3.187)" fill="#fd70a5"/><g transform="translate(48.128 101.703)"><path d="M46.111,98.039" transform="translate(-46.111 -98.039)" fill="none" stroke="#371d7f" stroke-miterlimit="10" stroke-width="0.25"/></g><path d="M62.852,80.853A40.777,40.777,0,0,0,61.1,86.664c-.13.5-.2.814-.2.814s-1.964,2.008-3.7,1.569-2.965-3.093-2.965-3.093l2.183-6.812.143-.445.225-.7a29.761,29.761,0,0,1,4.107,1.131C62.167,79.613,63.169,80.214,62.852,80.853Z" transform="translate(2.406 2.703)" fill="#fbb7b7"/><path d="M62.755,80.821A40.777,40.777,0,0,0,61,86.633c-3.481-1.808-4.449-6.108-4.682-7.523-.051-.3-.065-.464-.065-.464l.207.019,4.332.426C62.07,79.582,63.072,80.182,62.755,80.821Z" transform="translate(2.503 2.735)" opacity="0.13" fill="url(#f)" style="mix-blend-mode:multiply;isolation:isolate"/><g transform="translate(29.897 110.161)"><g transform="translate(0.459 3.306)"><rect width="19.676" height="3.778" transform="translate(0.452 0.381)" fill="#c8c4d6"/><path d="M49.976,113.256a.324.324,0,0,1-.323.323H30.119a.881.881,0,0,1-.51-.155H29.6a.957.957,0,0,1-.452-.813v-2.377a.971.971,0,0,1,.968-.968H49.653a.323.323,0,0,1,.323.323.32.32,0,0,1-.323.323H30.119a.328.328,0,0,0-.323.323v2.377a.328.328,0,0,0,.323.323H49.653A.319.319,0,0,1,49.976,113.256Z" transform="translate(-29.151 -109.266)" fill="#371d7f"/><path d="M49.434,113.256a.324.324,0,0,1-.323.323H40.465v-4.313h8.646a.323.323,0,0,1,.323.323.32.32,0,0,1-.323.323h-.374v3.022h.374A.319.319,0,0,1,49.434,113.256Z" transform="translate(-28.609 -109.266)" fill="#4f4f4f" opacity="0.9" style="mix-blend-mode:screen;isolation:isolate"/></g><rect width="19.437" height="2.796" transform="translate(0.362 0.251)" fill="#fff"/><rect width="19.437" height="2.796" transform="translate(0.362 0.251)" fill="#c8c4d6" opacity="0.51"/><path d="M49.3,109.171a.246.246,0,0,1-.246.246H29.6a.894.894,0,0,1-.892-.892V107a.888.888,0,0,1,.892-.884H49.054a.239.239,0,1,1,0,.478H29.6A.408.408,0,0,0,29.2,107v1.53a.4.4,0,0,0,.407.407H49.054A.245.245,0,0,1,49.3,109.171Z" transform="translate(-28.713 -106.111)" fill="#00b7e6"/><path d="M48.738,109.171a.246.246,0,0,1-.246.246H40.446v-3.306h8.046a.239.239,0,1,1,0,.478H47.95v2.343h.542A.245.245,0,0,1,48.738,109.171Z" transform="translate(-28.151 -106.111)" fill="#4f4f4f" opacity="0.9" style="mix-blend-mode:screen;isolation:isolate"/></g><rect width="38.099" height="22.284" rx="1.232" transform="translate(75.235 90.498)" fill="#7d62d7"/><g transform="translate(69.132 136.632)"><g transform="translate(0 2.09)"><path d="M66.175,143.278h-.02a9.7,9.7,0,0,1,1.072-3.888.991.991,0,0,0,.071-.141c.129-.245.271-.478.413-.7s.3-.465.465-.684.355-.459.542-.672.375-.439.569-.633c.039-.045.084-.09.123-.129.071-.071.149-.149.225-.22a.338.338,0,0,1,.039-.039,15.018,15.018,0,0,1,1.719-1.42c.058-.039.109-.071.154-.1a15.194,15.194,0,0,1,1.957-1.162c.148-.078.232-.11.245-.116l.09.233a2.132,2.132,0,0,0-.245.11,14.317,14.317,0,0,0-1.8,1.065.286.286,0,0,0-.071.045c-.059.039-.116.078-.181.124s-.116.084-.174.129a14.69,14.69,0,0,0-1.511,1.252.3.3,0,0,0-.045.045c-.09.091-.188.175-.278.271a2.108,2.108,0,0,0-.168.181c-.13.129-.246.258-.362.394-.194.219-.375.439-.555.678-.169.213-.323.445-.478.684a8.6,8.6,0,0,0-.478.813.9.9,0,0,0-.039.084,10.155,10.155,0,0,0-1.053,3.72Z" transform="translate(-66.155 -133.366)" fill="#fd70a5"/></g><path d="M73.046,133.846a4.5,4.5,0,0,1,2.018-2.193C76.444,131.037,76.561,133.144,73.046,133.846Z" transform="translate(-65.825 -131.363)" fill="#fd70a5"/><path d="M71.218,134.837a4.293,4.293,0,0,1,2.94-.146C75.619,135.225,74.4,136.819,71.218,134.837Z" transform="translate(-65.912 -131.222)" fill="#fd70a5"/><path d="M69.1,136.611a4.287,4.287,0,0,1,2.94-.146C73.5,137,72.28,138.593,69.1,136.611Z" transform="translate(-66.014 -131.137)" fill="#fd70a5"/><path d="M67.335,139.175a4.29,4.29,0,0,1,2.94-.145C71.736,139.563,70.514,141.158,67.335,139.175Z" transform="translate(-66.098 -131.014)" fill="#fd70a5"/><path d="M71.163,134.9a5.094,5.094,0,0,1,.52-3.068C72.489,130.494,73.663,132.249,71.163,134.9Z" transform="translate(-65.917 -131.371)" fill="#fd70a5"/><path d="M69.2,136.655a5.294,5.294,0,0,1-.377-3.136C69.2,131.968,70.8,133.291,69.2,136.655Z" transform="translate(-66.032 -131.299)" fill="#fd70a5"/><path d="M67.227,139.319a5.337,5.337,0,0,1-.7-3.089C66.74,134.635,68.458,135.767,67.227,139.319Z" transform="translate(-66.139 -131.172)" fill="#fd70a5"/></g><path d="M66.963,144.422a.49.49,0,0,1-.084.033c-.363.116-.717.22-1.078.323a1.438,1.438,0,0,1-.169.045c-.233.071-.464.129-.7.181-9.363,2.383-22.511-1.531-30.808-9.654a27.2,27.2,0,0,1-5.677-7.833A22.994,22.994,0,0,1,26.8,122.77a17.957,17.957,0,0,0-1.9-4.785,5.323,5.323,0,0,1,1.44.5,16.034,16.034,0,0,1,2.667,1.789,7.48,7.48,0,0,0,4.275,1.975c1.55.233,2.957-.574,4.391-1.5a14.385,14.385,0,0,1,4.055-2.17c.006,0,.013-.006.019-.006a4.81,4.81,0,0,1,1.757-.129,3.049,3.049,0,0,1,.335.045,3.832,3.832,0,0,1,1.711.756,4.5,4.5,0,0,1,1.207,1.5,8.117,8.117,0,0,1,.782,3.028,11.357,11.357,0,0,1-.42,4.184c-.646,1.982.343,3.028,2.358,2.8A8.85,8.85,0,0,0,52,130c3.616-1.615,11.365-3.01,14.807,2.157C69.487,136.169,66.465,141.019,66.963,144.422Z" transform="translate(1.001 4.619)" fill="url(#g)"/><g transform="translate(58.124 145.899)" opacity="0.38"><path d="M56.531,140.678a.441.441,0,1,1-.418-.463A.442.442,0,0,1,56.531,140.678Z" transform="translate(-55.649 -140.214)" fill="#fff"/></g><g transform="translate(59.078 144.505)" opacity="0.32"><path d="M57.442,139.348a.441.441,0,1,1-.418-.463A.44.44,0,0,1,57.442,139.348Z" transform="translate(-56.56 -138.884)" fill="#fff" opacity="0.38"/></g><g transform="translate(59.903 145.989)" opacity="0.32"><path d="M58.23,140.764a.442.442,0,1,1-.419-.463A.442.442,0,0,1,58.23,140.764Z" transform="translate(-57.347 -140.3)" fill="#fff" opacity="0.38"/></g><g transform="translate(160.729 126.842)"><g transform="translate(0 1.393)" opacity="0.38"><path d="M154.446,123.822a.441.441,0,1,1-.418-.463A.44.44,0,0,1,154.446,123.822Z" transform="translate(-153.564 -123.359)" fill="#fff"/></g><g transform="translate(0.954)" opacity="0.32"><path d="M155.357,122.493a.442.442,0,1,1-.418-.463A.44.44,0,0,1,155.357,122.493Z" transform="translate(-154.475 -122.029)" fill="#fff" opacity="0.38"/></g><g transform="translate(1.779 1.483)" opacity="0.32"><path d="M156.145,123.908a.442.442,0,1,1-.419-.463A.442.442,0,0,1,156.145,123.908Z" transform="translate(-155.262 -123.444)" fill="#fff" opacity="0.38"/></g></g><g transform="translate(146.234 125.599)"><g opacity="0.38"><path d="M140.367,121.681a.441.441,0,1,1,.2-.59A.441.441,0,0,1,140.367,121.681Z" transform="translate(-139.732 -120.842)" fill="#fff"/></g><g transform="translate(1.681 0.166)" opacity="0.32"><path d="M141.971,121.839a.441.441,0,1,1,.2-.59A.441.441,0,0,1,141.971,121.839Z" transform="translate(-141.336 -121.001)" fill="#fff" opacity="0.38"/></g><g transform="translate(0.778 1.603)" opacity="0.32"><path d="M141.109,123.211a.441.441,0,1,1,.205-.59A.442.442,0,0,1,141.109,123.211Z" transform="translate(-140.475 -122.372)" fill="#fff" opacity="0.38"/></g></g><g transform="translate(128.173 132.57)"><g opacity="0.38"><path d="M123.131,128.334a.441.441,0,1,1,.2-.59A.441.441,0,0,1,123.131,128.334Z" transform="translate(-122.496 -127.495)" fill="#fff"/></g><g transform="translate(1.681 0.166)" opacity="0.32"><path d="M124.735,128.493a.442.442,0,1,1,.2-.591A.442.442,0,0,1,124.735,128.493Z" transform="translate(-124.1 -127.654)" fill="#fff" opacity="0.38"/></g><g transform="translate(0.778 1.603)" opacity="0.32"><path d="M123.874,129.864a.441.441,0,1,1,.2-.59A.443.443,0,0,1,123.874,129.864Z" transform="translate(-123.239 -129.025)" fill="#fff" opacity="0.38"/></g></g><g transform="translate(44.849 141.414)" opacity="0.38"><path d="M43.864,136.4a.442.442,0,1,1-.419-.463A.442.442,0,0,1,43.864,136.4Z" transform="translate(-42.981 -135.934)" fill="#fff"/></g><g transform="translate(45.803 140.02)" opacity="0.32"><path d="M44.775,135.068a.442.442,0,1,1-.419-.463A.443.443,0,0,1,44.775,135.068Z" transform="translate(-43.892 -134.604)" fill="#fff" opacity="0.38"/></g><g transform="translate(46.628 141.503)" opacity="0.32"><path d="M45.562,136.483a.442.442,0,1,1-.419-.463A.442.442,0,0,1,45.562,136.483Z" transform="translate(-44.679 -136.02)" fill="#fff" opacity="0.38"/></g><g transform="translate(58.3 135.432)" opacity="0.38"><path d="M56.7,130.69a.441.441,0,1,1-.418-.463A.44.44,0,0,1,56.7,130.69Z" transform="translate(-55.817 -130.226)" fill="#fff"/></g><g transform="translate(45.803 131.366)" opacity="0.38"><path d="M44.775,126.811a.442.442,0,1,1-.419-.464A.442.442,0,0,1,44.775,126.811Z" transform="translate(-43.892 -126.347)" fill="#fff"/></g><g transform="translate(162.95 122.055)" opacity="0.38"><path d="M156.566,117.924a.442.442,0,1,1-.419-.463A.442.442,0,0,1,156.566,117.924Z" transform="translate(-155.683 -117.461)" fill="#fff"/></g><g transform="translate(59.811 136.951)" opacity="0.38"><path d="M58.142,132.139a.442.442,0,1,1-.419-.463A.443.443,0,0,1,58.142,132.139Z" transform="translate(-57.259 -131.675)" fill="#fff"/></g><g transform="translate(32.66 130.484)" opacity="0.38"><path d="M32.232,125.968a.442.442,0,1,1-.419-.463A.442.442,0,0,1,32.232,125.968Z" transform="translate(-31.349 -125.504)" fill="#fff"/></g><g transform="translate(119.911 132.57)" opacity="0.38"><path d="M115.5,127.959a.442.442,0,1,1-.418-.463A.44.44,0,0,1,115.5,127.959Z" transform="translate(-114.613 -127.496)" fill="#fff"/></g><g transform="translate(31.477 128.026)" opacity="0.38"><path d="M31.1,123.622a.442.442,0,1,1-.419-.463A.442.442,0,0,1,31.1,123.622Z" transform="translate(-30.221 -123.158)" fill="#fff"/></g><g transform="translate(150.013 135.209)" opacity="0.38"><path d="M144.221,130.477a.442.442,0,1,1-.419-.463A.442.442,0,0,1,144.221,130.477Z" transform="translate(-143.338 -130.013)" fill="#fff"/></g><path d="M131.11,113.534c-.5-.006-1.007-.006-1.517-.006-.1-.032-.2-.071-.309-.116-.485-.174-1.059-.381-1.719-.568a.049.049,0,0,1-.019-.006,13.328,13.328,0,0,0-2.841-.517v-.007c-.3-.025-.62-.039-.943-.039-1.188,0,.141-.942,1.634-1.724,1.35-.71,2.138.627,3.888.594a4.222,4.222,0,0,0,.607-.065A8.074,8.074,0,0,1,131.11,113.534Z" transform="translate(5.715 4.253)" fill="#fbb7b7"/><path d="M130.837,114.43c-.5-.006-1.007-.006-1.517-.006h-.309v-2.957l12.075-1.563s-5.4-11.138-6.3-13.186c-.937-2.13-.6-5.883,3.138-4.927,3.351.859,8.671,15.782,9.24,19.411C147.7,114.618,140.413,114.456,130.837,114.43Z" transform="translate(5.989 3.357)" fill="#fff"/><path d="M130.837,114.43c-.5-.006-1.007-.006-1.517-.006h-.309v-2.957l12.075-1.563s-5.4-11.138-6.3-13.186c-.937-2.13-.6-5.883,3.138-4.927,3.351.859,8.671,15.782,9.24,19.411C147.7,114.618,140.413,114.456,130.837,114.43Z" transform="translate(5.989 3.357)" opacity="0.26" fill="url(#h)"/><path d="M122.206,78.277a3.263,3.263,0,0,1-2.866-3.063c-.323-2.865,2.174-3.869,3.269-3.354,1.029.485,1.211.122,1.615-.6a4.029,4.029,0,0,1,4.56-1.655c2.462.726,2.865,3.754,2.542,4.681s1.373-1.13,2.866,1.292-2.947,9.565-3.956,9.847S122.206,78.277,122.206,78.277Z" transform="translate(5.524 2.293)" fill="#4c348c"/><path d="M131.1,89.855s-1.737,3.63-4.113,3.306a3.2,3.2,0,0,1-2.706-2.66l-.1-1.776L124,85.658l1.53-4.158,4.229-.9.291-.065Z" transform="translate(5.749 2.825)" fill="#fbb7b7"/><path d="M127.5,112.762s-2.387.3-2.859-.527S127.5,112.762,127.5,112.762Z" transform="translate(5.777 4.331)" fill="#fbb7b7"/><rect width="15.336" height="0.484" transform="translate(117.963 117.296)" fill="#00b7e6"/><rect width="6.593" height="6.929" transform="translate(90.991 109.799)" fill="#7d62d7"/><path d="M98.374,113.429v.02H82.664A1.451,1.451,0,0,1,84.116,112H96.922a1.455,1.455,0,0,1,1.452,1.434Z" transform="translate(3.768 4.332)" fill="#7d62d7"/><rect width="33.703" height="18.83" rx="0.4" transform="translate(77.435 92.224)" fill="#9675dd"/><path d="M59.9,133.285a.17.17,0,0,0-.224-.089,29.17,29.17,0,0,0-7.407,5.334c.816-3.179,1.962-6.242,1.974-6.275a.171.171,0,0,0-.321-.12,69.2,69.2,0,0,0-2.118,6.845c-.879.857-1.79,1.815-2.715,2.9a.171.171,0,0,0,.019.241.2.2,0,0,0,.054.031.172.172,0,0,0,.187-.051c5.427-6.382,10.411-8.573,10.461-8.594A.172.172,0,0,0,59.9,133.285Z" transform="translate(2.158 5.292)" fill="#fff" opacity="0.38"/><path d="M124.707,124.973a.171.171,0,0,1,.194-.145,29.185,29.185,0,0,1,8.526,3.26c-1.6-2.865-3.495-5.533-3.515-5.56a.171.171,0,0,1,.279-.2,69.338,69.338,0,0,1,3.8,6.075c1.07.6,2.2,1.3,3.369,2.112a.171.171,0,0,1,.043.238.179.179,0,0,1-.045.044.169.169,0,0,1-.193,0c-6.882-4.779-12.259-5.621-12.313-5.629A.171.171,0,0,1,124.707,124.973Z" transform="translate(5.782 4.824)" fill="#fff" opacity="0.38"/><path d="M151.978,115.86a.172.172,0,0,0-.236.057,29.187,29.187,0,0,0-2.992,8.622c-1.161-3.07-1.986-6.235-1.994-6.269a.171.171,0,0,0-.331.086,69.219,69.219,0,0,0,2.2,6.818c-.226,1.206-.42,2.514-.552,3.937a.171.171,0,0,0,.155.185.179.179,0,0,0,.063-.005.171.171,0,0,0,.123-.149c.771-8.342,3.589-13,3.617-13.046A.173.173,0,0,0,151.978,115.86Z" transform="translate(6.823 4.516)" fill="#fff" opacity="0.38"/><path d="M37.451,135.693c-.152-1.136-.351-2.179-.572-3.139a55.5,55.5,0,0,0,1.54-5.54.137.137,0,0,0-.268-.058c-.006.027-.563,2.592-1.392,5.093a23.434,23.434,0,0,0-2.685-6.816.137.137,0,1,0-.227.154,26.274,26.274,0,0,1,3.332,10.342.136.136,0,0,0,.1.115.116.116,0,0,0,.05,0A.136.136,0,0,0,37.451,135.693Z" transform="translate(1.429 4.964)" fill="#fff" opacity="0.38"/><path d="M110.077,96.845V108.34a1.29,1.29,0,0,1-1.291,1.291H94.328v3.545h3.106a1.455,1.455,0,0,1,1.452,1.434c-1.434-.374-2.963-.846-4.558-1.426a.021.021,0,0,0-.014-.007,52.1,52.1,0,0,1-6.58-2.937c-.362-.194-.723-.394-1.091-.608A53.236,53.236,0,0,1,71.978,97.368v-8.73a1.3,1.3,0,0,1,1.292-1.291h9.1A106.44,106.44,0,0,0,110.077,96.845Z" transform="translate(3.256 3.152)" fill="#4f4f4f" opacity="0.3" style="mix-blend-mode:screen;isolation:isolate"/><path d="M66.531,73.754s-1.267,9.1-5.816,9.349c-3.757.209-4.415-4.351-4.509-5.949a.651.651,0,0,0-.335-.537,1.733,1.733,0,0,1-.86-2.28c.5-1.356,1.357-.692,1.555-.509.173.159.507.813,1.215-.543C58.562,71.785,60.354,75.089,66.531,73.754Z" transform="translate(2.437 2.459)" fill="#fbb7b7"/><g transform="translate(60.835 77.164)"><path d="M61.315,76.507a1.48,1.48,0,1,1-1.2-1.715A1.479,1.479,0,0,1,61.315,76.507Z" transform="translate(-58.23 -74.615)" opacity="0.25" fill="url(#i)"/><path d="M61.478,76.439a1.626,1.626,0,1,0-1.9,1.419,1.636,1.636,0,0,0,1.88-1.261l.01-.061A.275.275,0,0,0,61.478,76.439Zm-1.871,1.275a1.479,1.479,0,1,1,1.722-1.2A1.483,1.483,0,0,1,59.608,77.714Z" transform="translate(-58.237 -74.622)" fill="#4c348c"/><g transform="translate(4.252 0.755)"><path d="M65.38,77.228a1.48,1.48,0,1,1-1.2-1.715A1.481,1.481,0,0,1,65.38,77.228Z" transform="translate(-62.287 -75.335)" opacity="0.25" fill="url(#j)"/><path d="M65.112,75.861a1.586,1.586,0,0,0-.9-.494,1.617,1.617,0,0,0-1.861,1.226.287.287,0,0,0-.028.094l-.009.048a1.629,1.629,0,0,0,1.33,1.842,1.293,1.293,0,0,0,.379.018l.013,0a1.578,1.578,0,0,0,.437-.1,1.616,1.616,0,0,0,.968-.928,1.571,1.571,0,0,0,.093-.318A1.6,1.6,0,0,0,65.112,75.861Zm-.136,2.163a.745.745,0,0,1-.148.134l-.042.029a1.06,1.06,0,0,1-.26.139.432.432,0,0,1-.158.059,1.092,1.092,0,0,1-.271.063l-.012,0c-.05,0-.112.005-.162.008a1.729,1.729,0,0,1-.256-.02,1.479,1.479,0,0,1,.517-2.912,1.89,1.89,0,0,1,.259.071.984.984,0,0,1,.2.084.089.089,0,0,0,.045.021.818.818,0,0,1,.131.1.484.484,0,0,1,.117.108l.125.133a.928.928,0,0,1,.177.254.787.787,0,0,1,.1.227.975.975,0,0,1,.08.385,1.371,1.371,0,0,1-.022.33,1.732,1.732,0,0,1-.068.247,1.1,1.1,0,0,1-.08.172,1.044,1.044,0,0,1-.248.351C64.989,78.013,64.978,78.011,64.976,78.024Z" transform="translate(-62.294 -75.342)" fill="#4c348c"/></g><g transform="translate(3.159 1.749)"><path d="M62.347,76.706a.933.933,0,0,0-1.028-.185l-.068-.134a1.087,1.087,0,0,1,1.2.211Z" transform="translate(-61.251 -76.291)" fill="#4c348c"/></g></g><path d="M129.773,81.09a8.041,8.041,0,0,1-5.593,7.633L124,85.655l1.53-4.158,4.229-.9A4.031,4.031,0,0,1,129.773,81.09Z" transform="translate(5.749 2.828)" opacity="0.13" fill="url(#k)" style="mix-blend-mode:multiply;isolation:isolate"/><path d="M121.4,75.484s-1.83,9.148,2.044,10.816,6.229-4.628,6.471-4.964c.219-.3,1.063-.276,1.493-1.675s-.976-1.116-1.405-.578-.209-1.662-.209-2.523S122.369,77.53,121.4,75.484Z" transform="translate(5.603 2.583)" fill="#fbb7b7"/><path d="M90.5,135.522c4.238-1.694,13.17-4.377,20.076-1.406s-7.682,9.954-15.5,7.918C87.771,140.13,87.678,136.652,90.5,135.522Z" transform="translate(4.061 5.328)" fill="url(#l)"/><path d="M27.042,61.229c1.909,3.775-1.913,9.4-4.139,9.387S20.765,65,22.1,62.693,26.121,59.41,27.042,61.229Z" transform="translate(0.822 1.855)" fill="url(#m)"/><path d="M63.3,66.513c-2.856-.637-8.861.642-9.633,6.92-.872,7.059-4.842,9.84-10.852,11.735S32.736,96.317,38.094,101.53c-4.521-1.921-6.961-6.778-3.687-13.145,4.279-8.312,16.306-7.507,17.6-14.931a8.793,8.793,0,0,1,9.685-7.75A3.07,3.07,0,0,1,63.3,66.513Z" transform="translate(1.384 2.113)" fill="#4f4f4f" opacity="0.33" style="mix-blend-mode:screen;isolation:isolate"/></g></g></svg>