<svg xmlns="http://www.w3.org/2000/svg" xmlns:xlink="http://www.w3.org/1999/xlink" width="85" height="85" viewBox="0 0 85 85"><defs><clipPath id="b"><rect width="85" height="85"/></clipPath></defs><g id="a" clip-path="url(#b)"><g transform="translate(1.136 -1)"><path d="M70.441,42.881H45.695a2.484,2.484,0,0,0-2.475,2.475V60.2a2.483,2.483,0,0,0,2.475,2.475H70.441A2.482,2.482,0,0,0,72.915,60.2V45.356a2.483,2.483,0,0,0-2.474-2.475Zm0,0" fill="#d8d8d8"/><rect width="4.949" height="14.847" transform="translate(55.593 55.254)" fill="#acabb1"/><path d="M38.271,29.271H29.61A2.482,2.482,0,0,1,27.136,26.8V9.475A2.482,2.482,0,0,1,29.61,7H61.78a2.482,2.482,0,0,1,2.474,2.475h0V26.8a2.482,2.482,0,0,1-2.474,2.474H38.271Zm25.983-19.8" fill="#fc4c59" stroke="#000" stroke-miterlimit="10" stroke-width="2"/><path d="M30.847,70.1H13.525V63.94a4.951,4.951,0,0,1,3.588-4.764l3.279-.94,4.269,3.205,4.269-3.205,3.279.94A4.951,4.951,0,0,1,35.8,63.94V70.1Zm0,0" fill="#fc4c59" stroke="#000" stroke-miterlimit="10" stroke-width="2"/><path d="M28.93,58.236l-4.269,3.205-4.269-3.205,1.794-.507V54.586a4.917,4.917,0,0,0,4.95,0v3.143Zm0,0" fill="#ffdaaa"/><path d="M29.61,47.831v2.474a4.98,4.98,0,0,1-1.447,3.5,5.225,5.225,0,0,1-1.027.779,4.95,4.95,0,0,1-7.424-4.281V47.831h1.46a7.371,7.371,0,0,0,4.12-1.25l1.844-1.225.557,1.1a2.422,2.422,0,0,0,1.917,1.349Zm0,0" fill="#ffdaaa"/><rect width="66.814" height="4.949" transform="translate(8.576 73.814)" fill="#d8d8d8"/><path d="M24.661,40.407a6.187,6.187,0,0,1,6.186,6.186v1.238h-.94a1.238,1.238,0,0,1-.3-.025,2.422,2.422,0,0,1-1.917-1.349l-.557-1.1-1.844,1.225a7.371,7.371,0,0,1-4.12,1.25h-2.7V46.593a6.187,6.187,0,0,1,6.186-6.186Zm0,0" fill="#d8d8d8"/><path d="M27.136,54.586v1.237a4.917,4.917,0,0,1-4.95,0V54.586a4.917,4.917,0,0,0,4.95,0Zm0,0" fill="#f2ca96"/><path d="M12.288,70.1a1.237,1.237,0,0,0,1.237,1.237H35.8A1.237,1.237,0,0,0,37.034,70.1V63.94a6.216,6.216,0,0,0-4.485-5.954l-4.176-1.192V55.222a6.155,6.155,0,0,0,2.474-4.917V49.068a1.237,1.237,0,0,0,1.238-1.237V46.593a7.424,7.424,0,0,0-14.848,0v1.238a1.237,1.237,0,0,0,1.238,1.237v1.237a6.155,6.155,0,0,0,2.474,4.917v1.572l-4.174,1.192a6.212,6.212,0,0,0-4.487,5.954ZM24.661,41.644A4.948,4.948,0,0,1,29.61,46.56a1.238,1.238,0,0,1-.817-.653l-.55-1.1a1.236,1.236,0,0,0-1.794-.477l-1.841,1.227a6.168,6.168,0,0,1-3.432,1.039H19.712a4.949,4.949,0,0,1,4.949-4.949Zm-3.485,7.424a8.63,8.63,0,0,0,4.8-1.455l.678-.452a3.651,3.651,0,0,0,1.715,1.547v1.6a3.712,3.712,0,0,1-7.424,0V49.068Zm3.485,7.424a6.261,6.261,0,0,0,1.237-.124v1.361a1.229,1.229,0,0,0,.427.916l-1.664,1.249L23,58.645a1.229,1.229,0,0,0,.427-.916V56.368a6.261,6.261,0,0,0,1.237.124Zm-9.9,7.448a3.73,3.73,0,0,1,2.691-3.575l2.691-.766,3.773,2.831a1.236,1.236,0,0,0,1.486,0L29.177,59.6l2.693.768a3.726,3.726,0,0,1,2.689,3.573v4.924H32.085V63.915H29.61v4.949h-9.9V63.915H17.237v4.949H14.763Zm0,0"/><path d="M70.441,63.915A3.712,3.712,0,0,0,74.153,60.2V45.356a3.712,3.712,0,0,0-3.712-3.712H45.695a3.712,3.712,0,0,0-3.712,3.712V60.2a3.712,3.712,0,0,0,3.712,3.712h8.661v4.949H51.881v2.475H64.254V68.864H61.78V63.915ZM45.695,61.441A1.237,1.237,0,0,1,44.458,60.2V45.356a1.237,1.237,0,0,1,1.237-1.237H70.441a1.237,1.237,0,0,1,1.237,1.237V60.2a1.237,1.237,0,0,1-1.237,1.238H61.78V55.254a1.237,1.237,0,0,0-1.238-1.237H55.593a1.237,1.237,0,0,0-1.237,1.237v6.187Zm11.136,7.423V56.492h2.474V68.864Zm0,0"/><path d="M79.1,72.576H4.864v2.475H7.339v3.712A1.237,1.237,0,0,0,8.576,80H75.39a1.237,1.237,0,0,0,1.237-1.237V75.051H79.1Zm-4.949,4.949H9.814V75.051H74.153Zm0,0"/><rect width="22.271" height="2.475" transform="translate(34.559 11.949)"/><rect width="22.271" height="2.475" transform="translate(34.559 16.898)"/><rect width="22.271" height="2.475" transform="translate(34.559 21.847)"/><path d="M6.1,47.831h6.186V45.356H7.339V18.136h6.186V15.661H6.1A1.237,1.237,0,0,0,4.864,16.9V46.593A1.238,1.238,0,0,0,6.1,47.831Zm0,0"/><rect width="2.475" height="2.475" transform="translate(16 15.661)"/><rect width="2.475" height="2.475" transform="translate(20.949 15.661)"/><path d="M71.678,29.271h2.475V16.9a1.237,1.237,0,0,0-1.238-1.237H67.966v2.475h3.712Zm0,0"/><rect width="2.475" height="2.475" transform="translate(71.678 31.746)"/><rect width="2.475" height="2.475" transform="translate(71.678 36.695)"/></g></g></svg>