<svg xmlns="http://www.w3.org/2000/svg" xmlns:xlink="http://www.w3.org/1999/xlink" width="175" height="175" viewBox="0 0 175 175"><defs><linearGradient id="a" x1="1.782" y1="-5.027" x2="0.442" y2="-2.191" gradientUnits="objectBoundingBox"><stop offset="0" stop-color="#c9b5ee"/><stop offset="0.59" stop-color="#a57cf0"/><stop offset="1" stop-color="#9868f2"/></linearGradient><linearGradient id="b" x1="39.548" y1="-6.146" x2="30.34" y2="1.777" xlink:href="#a"/><linearGradient id="c" x1="2.33" y1="0.36" x2="0.476" y2="0.502" gradientUnits="objectBoundingBox"><stop offset="0" stop-color="#fff"/><stop offset="0.678" stop-color="#c2a6f5"/><stop offset="1" stop-color="#a57cf0"/><stop offset="1" stop-color="#9868f2"/></linearGradient><linearGradient id="d" x1="0.549" y1="0.417" x2="0.202" y2="1.267" gradientUnits="objectBoundingBox"><stop offset="0" stop-color="#c9b5ee" stop-opacity="0.361"/><stop offset="0.59" stop-color="#a57cf0" stop-opacity="0.369"/><stop offset="1" stop-color="#9868f2" stop-opacity="0.259"/></linearGradient><linearGradient id="e" y1="0.5" x2="1" y2="0.5" gradientUnits="objectBoundingBox"><stop offset="0" stop-color="#2b3582"/><stop offset="1" stop-color="#150e42"/></linearGradient><linearGradient id="f" x1="0" y1="0.5" x2="1" y2="0.5" xlink:href="#e"/><linearGradient id="g" x1="0" y1="0.5" x2="1" y2="0.5" xlink:href="#e"/><linearGradient id="h" x1="0" y1="0.5" x2="1" y2="0.5" xlink:href="#e"/><linearGradient id="i" x1="0" y1="0.5" x2="1" y2="0.5" xlink:href="#e"/><linearGradient id="j" x1="0" y1="0.5" x2="1" y2="0.5" xlink:href="#e"/><linearGradient id="k" x1="0" y1="0.5" x2="1" y2="0.5" xlink:href="#e"/><linearGradient id="l" x1="-0.001" y1="0.5" x2="1.001" y2="0.5" xlink:href="#e"/><linearGradient id="m" x1="0" y1="0.5" x2="1" y2="0.5" xlink:href="#e"/><linearGradient id="n" x1="-0.001" y1="0.5" x2="1" y2="0.5" xlink:href="#e"/><linearGradient id="o" x1="0" y1="0.5" x2="1" y2="0.5" xlink:href="#e"/><linearGradient id="p" x1="0" y1="0.5" x2="1" y2="0.5" xlink:href="#e"/><linearGradient id="q" x1="0" y1="0.5" x2="1" y2="0.5" xlink:href="#e"/><linearGradient id="r" x1="0" y1="0.5" x2="1" y2="0.5" xlink:href="#e"/><linearGradient id="s" x1="0" y1="0.5" x2="1" y2="0.5" xlink:href="#e"/><linearGradient id="t" x1="0" y1="0.5" x2="1" y2="0.5" xlink:href="#e"/><linearGradient id="v" x1="0" y1="0.5" x2="1" y2="0.5" xlink:href="#e"/><linearGradient id="y" x1="0" y1="0.5" x2="1" y2="0.5" xlink:href="#e"/><linearGradient id="z" x1="0" y1="0.5" x2="1" y2="0.5" xlink:href="#e"/><linearGradient id="aa" x1="0" y1="0.5" x2="1" y2="0.5" xlink:href="#e"/><linearGradient id="ab" x1="0.001" y1="0.5" x2="1" y2="0.5" xlink:href="#e"/><linearGradient id="ac" x1="0" y1="0.5" x2="1" y2="0.5" xlink:href="#e"/><linearGradient id="ad" x1="0" y1="0.5" x2="1" y2="0.5" xlink:href="#e"/><linearGradient id="af" x1="0" y1="0.5" x2="1" y2="0.5" xlink:href="#e"/><linearGradient id="ag" x1="0.001" y1="0.5" x2="0.999" y2="0.5" xlink:href="#e"/><linearGradient id="ah" x1="0.001" y1="0.5" x2="1" y2="0.5" xlink:href="#e"/><linearGradient id="ai" x1="0" y1="0.5" x2="1" y2="0.5" xlink:href="#e"/><linearGradient id="aj" x1="0" y1="0.5" x2="1" y2="0.5" xlink:href="#e"/><linearGradient id="ak" x1="0" y1="0.5" x2="1" y2="0.5" xlink:href="#e"/><linearGradient id="al" x1="0" y1="0.5" x2="1" y2="0.5" xlink:href="#e"/><linearGradient id="am" x1="0" y1="0.5" x2="1" y2="0.5" xlink:href="#e"/><linearGradient id="an" x1="-1536.87" y1="-1175.084" x2="-1537.06" y2="-1171.364" gradientUnits="objectBoundingBox"><stop offset="0" stop-color="#cb236d"/><stop offset="1" stop-color="#4c246d"/></linearGradient><linearGradient id="ao" x1="-1505.896" y1="-1360.21" x2="-1506.117" y2="-1357.102" xlink:href="#an"/><linearGradient id="ap" x1="-1.195" y1="2.403" x2="1.281" y2="-0.202" gradientUnits="objectBoundingBox"><stop offset="0" stop-color="#a737d5"/><stop offset="1" stop-color="#ef497a"/></linearGradient><linearGradient id="aq" x1="-1040.708" y1="-492.624" x2="-1041.447" y2="-490.187" xlink:href="#e"/><linearGradient id="ar" x1="-153.044" y1="0.565" x2="-147.97" y2="-0.107" xlink:href="#e"/><linearGradient id="as" x1="16.056" y1="-18.668" x2="-2.787" y2="4.55" gradientUnits="objectBoundingBox"><stop offset="0" stop-color="#53d8ff"/><stop offset="1" stop-color="#3840f7"/></linearGradient><linearGradient id="at" x1="166.287" y1="0.5" x2="167.287" y2="0.5" xlink:href="#an"/><linearGradient id="au" x1="171.598" y1="-12.942" x2="167.899" y2="11.131" xlink:href="#as"/><linearGradient id="av" x1="122.922" y1="0.5" x2="123.922" y2="0.5" gradientUnits="objectBoundingBox"><stop offset="0" stop-color="#f9b776"/><stop offset="1" stop-color="#f47960"/></linearGradient><linearGradient id="aw" x1="440.11" y1="-0.843" x2="439.603" y2="2.391" xlink:href="#av"/><linearGradient id="ax" x1="118.552" y1="-5.386" x2="116.035" y2="17.676" xlink:href="#as"/><linearGradient id="ay" x1="117.935" y1="0.5" x2="118.935" y2="0.5" xlink:href="#an"/><linearGradient id="az" x1="455.51" y1="-0.224" x2="454.995" y2="2.54" xlink:href="#av"/><linearGradient id="ba" x1="68.618" y1="-0.312" x2="66.172" y2="1.239" gradientUnits="objectBoundingBox"><stop offset="0" stop-color="#7c27dd"/><stop offset="1" stop-color="#2b41d9"/></linearGradient><linearGradient id="bb" x1="39.114" y1="-0.152" x2="36.149" y2="2.76" xlink:href="#an"/><linearGradient id="bc" x1="-154.058" y1="-45.933" x2="-153.152" y2="-45.933" xlink:href="#e"/><linearGradient id="bd" x1="5.542" y1="-1.147" x2="-5.005" y2="2.275" xlink:href="#an"/><linearGradient id="be" x1="299.934" y1="-0.866" x2="299.012" y2="0.839" xlink:href="#e"/><linearGradient id="bf" x1="66.923" y1="-0.131" x2="61.88" y2="8.875" xlink:href="#an"/><linearGradient id="bg" x1="0" y1="0.5" x2="1" y2="0.5" xlink:href="#e"/><linearGradient id="bh" x1="0" y1="0.5" x2="1" y2="0.5" xlink:href="#e"/><linearGradient id="bj" x1="0" y1="0.5" x2="1" y2="0.5" xlink:href="#e"/><linearGradient id="bk" x1="0" y1="0.5" x2="1" y2="0.5" xlink:href="#e"/><linearGradient id="bl" x1="0" y1="0.5" x2="1" y2="0.5" xlink:href="#e"/><linearGradient id="bm" x1="0" y1="0.5" x2="1" y2="0.5" xlink:href="#e"/><clipPath id="bo"><rect width="175" height="175"/></clipPath></defs><g id="bn" clip-path="url(#bo)"><g transform="translate(2 2.066)"><path d="M95.6,146.125c-4.609-1.713-10.98-.278-13.519,3.642s4.691,4.31,9.466,5.9S114.111,153.005,95.6,146.125Z" opacity="0.23" fill="url(#a)"/><g opacity="0.27"><path d="M4.478,99.75c2.081-2.989,3.286-9.493-.488-11.156s-3,5.724-3.238,9.069S3.761,100.781,4.478,99.75Z" fill="url(#b)"/><path d="M4.478,99.75c2.081-2.989,3.286-9.493-.488-11.156s-3,5.724-3.238,9.069S3.761,100.781,4.478,99.75Z" fill="#4f4f4f" opacity="0.3" style="mix-blend-mode:screen;isolation:isolate"/></g><ellipse cx="62.829" cy="3.764" rx="62.829" ry="3.764" transform="translate(30.738 128.942)" opacity="0.22" fill="url(#c)" style="mix-blend-mode:multiply;isolation:isolate"/><path d="M133.474,110.105a9.244,9.244,0,0,1-.261-3.675c0-.029.005-.059.007-.084h0a9.1,9.1,0,0,1,.162-.9q.085-.4.2-.771c.083-.271.173-.533.274-.789.06-.164.123-.319.194-.476.028-.075.06-.15.094-.221.052-.114.106-.223.16-.333.008-.016.016-.037.025-.054a13.963,13.963,0,0,1,.947-1.625v0c.042-.059.08-.116.117-.174s.08-.116.119-.169a.691.691,0,0,1,.049-.065,14.587,14.587,0,0,1,1.271-1.551c.112-.114.177-.174.184-.18l-.156-.178c-.007.007-.072.066-.179.184a13.962,13.962,0,0,0-1.381,1.689c-.032.047-.068.094-.1.146a14.918,14.918,0,0,0-1.083,1.846c-.009.016-.013.032-.022.048-.046.089-.087.181-.128.273-.022.048-.048.1-.069.151-.109.244-.212.5-.3.759s-.187.517-.265.787c-.071.248-.139.505-.192.768s-.1.506-.14.771c0,.049-.011.1-.019.148a9.4,9.4,0,0,0,.316,3.854Z" fill="#fd70a5"/><path d="M136.662,99.334a4.311,4.311,0,0,1,1.094-2.639C138.794,95.685,139.594,97.544,136.662,99.334Z" fill="#fd70a5"/><path d="M135.311,100.984a4.113,4.113,0,0,1,2.6-1.1C139.4,99.882,138.826,101.72,135.311,100.984Z" fill="#fd70a5"/><path d="M133.926,103.388a4.116,4.116,0,0,1,2.6-1.1C138.016,102.286,137.442,104.124,133.926,103.388Z" fill="#fd70a5"/><path d="M133.147,106.417a4.113,4.113,0,0,1,2.6-1.1C137.236,105.315,136.662,107.153,133.147,106.417Z" fill="#fd70a5"/><path d="M135.228,100.923a4.88,4.88,0,0,1-.544-2.932C134.97,96.524,136.6,97.716,135.228,100.923Z" fill="#fd70a5"/><path d="M133.961,103.256a5.077,5.077,0,0,1-1.374-2.7C132.418,99.036,134.292,99.7,133.961,103.256Z" fill="#fd70a5"/><path d="M133.008,106.453a5.119,5.119,0,0,1-1.649-2.55C131.027,102.4,132.946,102.851,133.008,106.453Z" fill="#fd70a5"/><path d="M157.746,114.857c1.136,5.52,2.072,11.665-.476,18.771-5.154,14.357-21.552,18.417-36.1,14.513-3.307-.885-6.565-1.773-9.755-2.572-10.847-2.694-20.966-4.291-29.819-.9a105.463,105.463,0,0,1-12.582,3.892c-10.24,2.478-21.446,3.488-26.421-.784a49.846,49.846,0,0,1-4.227-4.21c-4.147-4.544-8.113-9.377-16.795-11.951a41.258,41.258,0,0,0-5.446-1.2c-6.6-1.014-10.162-4.452-11.663-8.8C2.31,115.395,4.39,107.3,7.844,101.791a15.2,15.2,0,0,0,2.183-6.874c.717-7.755-2.581-16.229,4.084-23.855,8.711-9.953,20.165-6.941,28.257-8.841,6.959-1.641,12.871-5.087,18.946-14.328s20.38-11.95,26.6-8.172,11.871,12.244,27.595,14.262c9.8,1.256,16.659,2.54,21.168,4.577a16.906,16.906,0,0,1,1.553.783,10.663,10.663,0,0,1,4.171,3.9c2.993,5.157,6.325,9.122,13.441,14.168a12.406,12.406,0,0,1,1.827,1.561c4.876,5.028,2.9,12.206-.53,20.591C155.222,104.247,156.586,109.227,157.746,114.857Z" fill="url(#d)"/><path d="M157.666,78.969c-10.913-2.449-22.239,8.8-35.041,21.842-20.713,21.1-80.962,3.8-101.05,30.81a41.258,41.258,0,0,0-5.446-1.2c-6.6-1.014-10.162-4.452-11.663-8.8C2.31,115.395,4.39,107.3,7.844,101.791,13.7,92.433,5.406,81.02,14.111,71.062s20.165-6.941,28.257-8.841c6.959-1.641,12.871-5.087,18.946-14.328s20.38-11.95,26.6-8.172,11.871,12.244,27.595,14.262c9.8,1.256,16.659,2.54,21.168,4.577a11.825,11.825,0,0,1,5.724,4.68c2.993,5.157,6.325,9.122,13.441,14.168A12.406,12.406,0,0,1,157.666,78.969Z" fill="none" opacity="0.61" style="mix-blend-mode:screen;isolation:isolate"/><path d="M138.227,59.343c-26.933,1.5-52.636,6.622-68.991,23.049-16.425,16.5-38.191,2.682-59.209,12.525.717-7.755-2.581-16.229,4.084-23.855,8.711-9.953,20.165-6.941,28.257-8.841,6.959-1.641,12.871-5.087,18.946-14.328s20.38-11.95,26.6-8.172,11.871,12.244,27.595,14.262c9.8,1.256,16.659,2.54,21.168,4.577A16.906,16.906,0,0,1,138.227,59.343Z" fill="none" opacity="0.48" style="mix-blend-mode:screen;isolation:isolate"/><path d="M21.147,66.459l2.6-1.994.379.358-2.6,2.147Z" fill="#d0b1ff"/><path d="M139.078,84.41a.851.851,0,1,1-.851-.852A.851.851,0,0,1,139.078,84.41Z" fill="#4f4f4f" opacity="0.51" style="mix-blend-mode:screen;isolation:isolate"/><circle cx="0.851" cy="0.851" r="0.851" transform="translate(60.837 55.297)" fill="#4f4f4f" opacity="0.51" style="mix-blend-mode:screen;isolation:isolate"/><circle cx="0.851" cy="0.851" r="0.851" transform="translate(137.376 97.524)" fill="#4f4f4f" opacity="0.51" style="mix-blend-mode:screen;isolation:isolate"/><circle cx="0.851" cy="0.851" r="0.851" transform="translate(119.576 96.151)" fill="#4f4f4f" opacity="0.51" style="mix-blend-mode:screen;isolation:isolate"/><path d="M.805,114.707a.9.9,0,0,1-.9.9.9.9,0,0,1-.9-.9.9.9,0,0,1,.9-.9A.9.9,0,0,1,.805,114.707Z" fill="#4f4f4f" opacity="0.51" style="mix-blend-mode:screen;isolation:isolate"/><path d="M6.9,76.826a.9.9,0,1,1-.9-.9A.9.9,0,0,1,6.9,76.826Z" fill="#4f4f4f" opacity="0.51" style="mix-blend-mode:screen;isolation:isolate"/><path d="M137.6,119.513a2.009,2.009,0,0,1-1.913,2.082H32.211a2.009,2.009,0,0,1-1.914-2.082l-.861-64.758a3.452,3.452,0,0,1,3.509-3.213l101.133-2.849a4.623,4.623,0,0,1,3.533,1.531,5.5,5.5,0,0,1,1.415,3.839Z" fill="#7d62d7"/><path d="M135.716,117.516a1.9,1.9,0,0,1-1.81,1.971h-99.2a1.9,1.9,0,0,1-1.81-1.971l-.813-58.789a4.608,4.608,0,0,1,4.671-4.734l96.926-2.831a3.243,3.243,0,0,1,2.482,1.075,3.864,3.864,0,0,1,.995,2.7Z" fill="#7d62d7"/><path d="M33.968,89.435a.137.137,0,0,1-.137-.135l-.064-4.768a.137.137,0,0,1,.273,0L34.1,89.3a.136.136,0,0,1-.134.139Z" fill="#fff"/><path d="M33.81,77.751a.136.136,0,0,1-.136-.134l-.246-18.26a3.97,3.97,0,0,1,1.122-2.982,4.672,4.672,0,0,1,3.126-1.107l30.953-.905a.133.133,0,0,1,.14.132.137.137,0,0,1-.132.141l-30.962.9a4.376,4.376,0,0,0-2.936,1.033A3.7,3.7,0,0,0,33.7,59.356l.247,18.257a.137.137,0,0,1-.135.138Z" fill="#fff"/><path d="M37.266,114.255c.1-4.859.065-47.886-.191-51.6s5.059-4.413,13.218-4.832,77-2.073,78.777-2.23c3.985-.352,4.81,6.134,4.411,20.213-.3,10.577-.8,28-1.024,36.015a4.24,4.24,0,0,1-4.051,4.286c-16.567.05-80.063.248-84.29.385C39.251,116.648,37.225,116.181,37.266,114.255Z" fill="#9675dd"/><rect width="122" height="5.69" rx="2.682" transform="translate(24 121.281)" fill="#7d62d7"/><circle cx="6.38" cy="6.38" r="6.38" transform="translate(78.567 93.347)" fill="#fff"/><path d="M81.389,96.295a.42.42,0,0,1-.84,0,.413.413,0,0,1,.424-.424A.4.4,0,0,1,81.389,96.295Zm-.755,4.777V97.343h.678v3.729Z" fill="url(#e)"/><path d="M85.813,99.177a1.822,1.822,0,0,1-1.856,1.98,1.773,1.773,0,0,1-1.788-1.919,1.821,1.821,0,0,1,1.85-1.98A1.766,1.766,0,0,1,85.813,99.177Zm-2.959.038c0,.817.471,1.433,1.133,1.433s1.133-.608,1.133-1.448c0-.632-.316-1.433-1.117-1.433S82.854,98.506,82.854,99.215Z" fill="url(#f)"/><path d="M86.579,100.379a1.777,1.777,0,0,0,.895.269c.493,0,.723-.246.723-.554,0-.324-.192-.5-.693-.686-.67-.239-.986-.609-.986-1.055a1.15,1.15,0,0,1,1.287-1.095,1.863,1.863,0,0,1,.917.231l-.17.493a1.458,1.458,0,0,0-.763-.215c-.4,0-.624.231-.624.508,0,.308.224.447.709.632.647.246.979.571.979,1.125,0,.655-.509,1.117-1.395,1.117a2.14,2.14,0,0,1-1.048-.253Z" fill="url(#g)"/><circle cx="7.867" cy="7.867" r="7.867" transform="translate(50 68.972)" fill="#fff"/><g transform="translate(51.846 75.755)"><path d="M53.665,78.351l-.255.771h-.327l.832-2.45H54.3l.837,2.45H54.8l-.262-.771Zm.8-.247-.24-.7c-.054-.16-.091-.305-.127-.447h-.007c-.036.145-.077.294-.124.443l-.239.708Z" transform="translate(-53.083 -76.54)" fill="url(#h)"/><path d="M55.262,77.78c0-.181,0-.33-.014-.475h.283l.018.29h.008a.647.647,0,0,1,.582-.33c.244,0,.621.146.621.749v1.051h-.321V78.049c0-.283-.105-.519-.406-.519a.456.456,0,0,0-.429.327.465.465,0,0,0-.022.149v1.057h-.319Z" transform="translate(-52.871 -76.482)" fill="url(#i)"/><path d="M58.627,77.3c-.008.127-.014.269-.014.483v1.021a1.01,1.01,0,0,1-.251.8.932.932,0,0,1-.64.211,1.136,1.136,0,0,1-.585-.145l.08-.244a1,1,0,0,0,.517.138c.326,0,.566-.171.566-.615v-.2h-.008a.626.626,0,0,1-.559.294.786.786,0,0,1-.75-.857.844.844,0,0,1,.793-.934.585.585,0,0,1,.549.305h.008l.014-.265ZM58.3,78a.455.455,0,0,0-.019-.145.46.46,0,0,0-.447-.338c-.305,0-.524.258-.524.665,0,.345.175.632.519.632a.467.467,0,0,0,.443-.327.546.546,0,0,0,.026-.171Z" transform="translate(-52.702 -76.482)" fill="url(#j)"/><path d="M60.425,78.58c0,.182,0,.341.015.48h-.283l-.019-.287h-.008a.662.662,0,0,1-.581.327c-.277,0-.607-.153-.607-.771V77.3h.319v.974c0,.335.1.56.393.56a.461.461,0,0,0,.422-.291.482.482,0,0,0,.029-.164V77.3h.319Z" transform="translate(-52.51 -76.479)" fill="url(#k)"/><path d="M60.779,76.552H61.1v2.581h-.319Z" transform="translate(-52.331 -76.552)" fill="url(#l)"/><path d="M62.547,79.063l-.025-.222h-.01a.657.657,0,0,1-.539.262.5.5,0,0,1-.538-.506c0-.425.379-.658,1.058-.654v-.035a.364.364,0,0,0-.4-.408.88.88,0,0,0-.459.132l-.072-.211a1.094,1.094,0,0,1,.579-.157c.538,0,.669.368.669.72v.658a2.463,2.463,0,0,0,.029.422Zm-.047-.9c-.349-.007-.744.055-.744.4a.284.284,0,0,0,.3.306.44.44,0,0,0,.426-.294.333.333,0,0,0,.018-.1Z" transform="translate(-52.266 -76.482)" fill="url(#m)"/><path d="M63.16,77.854c0-.207,0-.385-.014-.549h.279l.011.345h.015a.528.528,0,0,1,.486-.385.376.376,0,0,1,.091.011v.3a.441.441,0,0,0-.538.4,1,1,0,0,0-.014.149v.937H63.16Z" transform="translate(-52.099 -76.482)" fill="url(#n)"/></g><circle cx="10.379" cy="10.379" r="10.379" transform="translate(69.706 69.87)" fill="#fff"/><path d="M74.6,80.266l3-1.564v.666a.257.257,0,0,1-.038.139.309.309,0,0,1-.125.108l-1.374.7a1.32,1.32,0,0,1-.184.078c-.064.021-.133.041-.206.058.073.018.142.038.206.059a1.32,1.32,0,0,1,.184.078l1.374.708a.3.3,0,0,1,.125.108.256.256,0,0,1,.038.138v.667l-3-1.568Z" fill="url(#o)"/><path d="M79.29,83.019a.56.56,0,0,1-.087.152.516.516,0,0,1-.121.108.584.584,0,0,1-.144.066.523.523,0,0,1-.148.023H78.4l2.212-5.658a.537.537,0,0,1,.186-.245.5.5,0,0,1,.291-.085h.4Z" fill="url(#p)"/><path d="M82.263,82.213v-.667a.265.265,0,0,1,.038-.138.3.3,0,0,1,.125-.108l1.375-.708a1.811,1.811,0,0,1,.39-.137c-.073-.017-.142-.037-.206-.058a1.32,1.32,0,0,1-.184-.078l-1.375-.7a.315.315,0,0,1-.125-.108.266.266,0,0,1-.038-.139V78.7l3,1.564v.379Z" fill="url(#q)"/><circle cx="6.354" cy="6.354" r="6.354" transform="translate(59.077 88.794)" fill="#fff"/><path d="M61.84,95.885v1.09h-.576v-3.1h1.009a1.79,1.79,0,0,1,.538.073,1.052,1.052,0,0,1,.375.2.8.8,0,0,1,.218.313,1.16,1.16,0,0,1,0,.81.858.858,0,0,1-.225.323,1.047,1.047,0,0,1-.375.21,1.666,1.666,0,0,1-.527.075Zm0-.45h.433a.846.846,0,0,0,.276-.04.5.5,0,0,0,.195-.113.474.474,0,0,0,.116-.18.685.685,0,0,0,.039-.237.618.618,0,0,0-.039-.225.441.441,0,0,0-.116-.171.511.511,0,0,0-.195-.109.908.908,0,0,0-.276-.037H61.84Z" fill="url(#r)"/><path d="M66.536,96.975h-.581V95.621H64.5v1.354h-.58v-3.1h.58V95.21h1.452V93.877h.581Z" fill="url(#s)"/><path d="M67.757,95.885v1.09h-.576v-3.1H68.19a1.779,1.779,0,0,1,.537.073,1.035,1.035,0,0,1,.375.2.788.788,0,0,1,.219.313,1.168,1.168,0,0,1,0,.81.867.867,0,0,1-.224.323,1.047,1.047,0,0,1-.375.21,1.671,1.671,0,0,1-.527.075Zm0-.45h.433a.854.854,0,0,0,.276-.04.5.5,0,0,0,.195-.113.486.486,0,0,0,.116-.18.71.71,0,0,0,.038-.237.64.64,0,0,0-.038-.225.452.452,0,0,0-.116-.171.511.511,0,0,0-.195-.109.918.918,0,0,0-.276-.037h-.433Z" fill="url(#t)"/><g transform="translate(-3 6)"><circle cx="8.078" cy="8.078" r="8.078" transform="translate(96.41 74.072)" fill="#fff"/></g><circle cx="7.826" cy="7.826" r="7.826" transform="translate(86.884 58.078)" fill="#fff"/><path d="M90.724,63.623a1.563,1.563,0,0,1-.064.466.954.954,0,0,1-.189.354.83.83,0,0,1-.315.225,1.141,1.141,0,0,1-.438.078,1.838,1.838,0,0,1-.225-.014,1.969,1.969,0,0,1-.231-.043l.03-.339a.111.111,0,0,1,.035-.075.126.126,0,0,1,.09-.029.4.4,0,0,1,.094.015.6.6,0,0,0,.147.015.612.612,0,0,0,.214-.035.37.37,0,0,0,.156-.111.507.507,0,0,0,.094-.2,1.2,1.2,0,0,0,.032-.3V61.649h.57Z" fill="url(#q)"/><path d="M93.925,64.712h-.441a.188.188,0,0,1-.121-.037.208.208,0,0,1-.069-.092l-.229-.625H91.8l-.229.625a.2.2,0,0,1-.067.089.184.184,0,0,1-.121.04h-.443l1.2-3.063h.583Zm-1.983-1.157h.977l-.373-1.019c-.017-.045-.036-.1-.056-.16s-.041-.128-.061-.2c-.019.072-.039.139-.058.2s-.038.116-.056.163Z" fill="url(#v)"/><path d="M93.582,61.649h.46a.19.19,0,0,1,.12.036.217.217,0,0,1,.07.093l.721,1.869c.024.06.046.127.068.2s.043.149.063.23a2.558,2.558,0,0,1,.121-.43l.718-1.869a.215.215,0,0,1,.068-.089.179.179,0,0,1,.12-.04h.46l-1.237,3.063h-.515Z" fill="url(#v)"/><path d="M99.226,64.712h-.441a.191.191,0,0,1-.122-.037.208.208,0,0,1-.069-.092l-.229-.625H97.1l-.228.625a.212.212,0,0,1-.067.089.187.187,0,0,1-.122.04h-.443l1.2-3.063h.582Zm-1.983-1.157h.976l-.373-1.019c-.017-.045-.035-.1-.056-.16s-.04-.128-.06-.2c-.02.072-.039.139-.058.2s-.038.116-.056.163Z" fill="url(#g)"/><path d="M91.133,67.29a.168.168,0,0,1-.054.066.135.135,0,0,1-.073.019.187.187,0,0,1-.1-.033c-.035-.022-.077-.046-.125-.073a1.02,1.02,0,0,0-.168-.073.7.7,0,0,0-.228-.033.665.665,0,0,0-.206.029.441.441,0,0,0-.149.079.326.326,0,0,0-.09.122.4.4,0,0,0-.029.156.272.272,0,0,0,.06.18.508.508,0,0,0,.16.123,1.468,1.468,0,0,0,.227.091c.084.027.171.055.259.086a2.324,2.324,0,0,1,.26.106.905.905,0,0,1,.226.152.686.686,0,0,1,.16.226.771.771,0,0,1,.061.324,1.066,1.066,0,0,1-.071.389.907.907,0,0,1-.208.315.96.96,0,0,1-.334.212,1.214,1.214,0,0,1-.451.078,1.492,1.492,0,0,1-.56-.111,1.376,1.376,0,0,1-.244-.127,1.172,1.172,0,0,1-.2-.165l.165-.273a.206.206,0,0,1,.056-.05.14.14,0,0,1,.073-.02.2.2,0,0,1,.115.043c.041.029.089.061.145.1a1.13,1.13,0,0,0,.2.1.757.757,0,0,0,.272.043.557.557,0,0,0,.377-.115.416.416,0,0,0,.134-.332.3.3,0,0,0-.061-.2.494.494,0,0,0-.16-.128,1.238,1.238,0,0,0-.226-.088c-.085-.024-.171-.05-.259-.078a2.159,2.159,0,0,1-.258-.1.827.827,0,0,1-.227-.154.706.706,0,0,1-.16-.239.911.911,0,0,1-.06-.352.829.829,0,0,1,.067-.327.82.82,0,0,1,.194-.281.964.964,0,0,1,.315-.2,1.132,1.132,0,0,1,.426-.075,1.442,1.442,0,0,1,.5.085,1.159,1.159,0,0,1,.39.237Z" fill="url(#y)"/><path d="M93.262,68.083a.249.249,0,0,1-.046.046.1.1,0,0,1-.064.017.148.148,0,0,1-.079-.024c-.025-.016-.055-.035-.091-.055a.618.618,0,0,0-.126-.055.585.585,0,0,0-.181-.025.552.552,0,0,0-.241.05.453.453,0,0,0-.173.143.653.653,0,0,0-.1.226,1.238,1.238,0,0,0-.034.3,1.212,1.212,0,0,0,.037.309.688.688,0,0,0,.107.228.455.455,0,0,0,.17.139.508.508,0,0,0,.224.048.548.548,0,0,0,.2-.031.655.655,0,0,0,.13-.067l.092-.068a.137.137,0,0,1,.088-.031.105.105,0,0,1,.095.049l.151.19a.944.944,0,0,1-.189.171.988.988,0,0,1-.211.11,1.019,1.019,0,0,1-.225.058,1.515,1.515,0,0,1-.231.017.964.964,0,0,1-.379-.075.889.889,0,0,1-.311-.219,1.053,1.053,0,0,1-.209-.353,1.348,1.348,0,0,1-.078-.475,1.378,1.378,0,0,1,.069-.444,1,1,0,0,1,.2-.354.921.921,0,0,1,.331-.234,1.126,1.126,0,0,1,.453-.085,1.015,1.015,0,0,1,.757.3Z" fill="url(#z)"/><path d="M93.755,69.8V67.623h.308a.163.163,0,0,1,.112.03.167.167,0,0,1,.042.1l.032.263a1.05,1.05,0,0,1,.273-.318.581.581,0,0,1,.352-.116.452.452,0,0,1,.267.074l-.068.392a.082.082,0,0,1-.027.054.1.1,0,0,1-.058.016A.344.344,0,0,1,94.9,68.1a.582.582,0,0,0-.147-.015.442.442,0,0,0-.279.09.683.683,0,0,0-.2.264V69.8Z" fill="url(#aa)"/><path d="M96.122,66.99a.291.291,0,0,1-.028.127.362.362,0,0,1-.073.1.342.342,0,0,1-.107.07.323.323,0,0,1-.131.027.309.309,0,0,1-.128-.027.322.322,0,0,1-.1-.07.337.337,0,0,1-.071-.1.3.3,0,0,1-.027-.127.34.34,0,0,1,.1-.238.341.341,0,0,1,.1-.071.325.325,0,0,1,.128-.026.34.34,0,0,1,.131.026.363.363,0,0,1,.107.071.346.346,0,0,1,.073.106A.31.31,0,0,1,96.122,66.99Zm-.079.633V69.8H95.52V67.623Z" fill="url(#ab)"/><path d="M96.634,70.506V67.623h.32a.161.161,0,0,1,.087.023.111.111,0,0,1,.047.072l.042.2a1.085,1.085,0,0,1,.3-.244.822.822,0,0,1,.4-.093.71.71,0,0,1,.326.074.722.722,0,0,1,.254.215,1.045,1.045,0,0,1,.165.347,1.748,1.748,0,0,1,.058.474,1.512,1.512,0,0,1-.065.451,1.1,1.1,0,0,1-.188.36.871.871,0,0,1-.294.239.859.859,0,0,1-.387.085.764.764,0,0,1-.312-.056.746.746,0,0,1-.23-.155v.889ZM97.651,68a.533.533,0,0,0-.278.069.791.791,0,0,0-.215.194v.974a.492.492,0,0,0,.194.154.578.578,0,0,0,.225.043.516.516,0,0,0,.215-.044.417.417,0,0,0,.163-.136.66.66,0,0,0,.1-.23,1.307,1.307,0,0,0,.036-.327,1.42,1.42,0,0,0-.031-.323.619.619,0,0,0-.087-.215.354.354,0,0,0-.139-.121A.442.442,0,0,0,97.651,68Z" fill="url(#ac)"/><path d="M99.744,69.831a.575.575,0,0,1-.434-.16.613.613,0,0,1-.152-.442V68.015h-.221a.1.1,0,0,1-.1-.11V67.7l.35-.057.11-.593a.111.111,0,0,1,.039-.066.131.131,0,0,1,.078-.023h.271v.684h.572v.373h-.572v1.178a.23.23,0,0,0,.051.159.172.172,0,0,0,.135.057.241.241,0,0,0,.082-.012.392.392,0,0,0,.057-.024l.043-.024a.074.074,0,0,1,.039-.012.06.06,0,0,1,.038.012.138.138,0,0,1,.031.035l.157.254a.815.815,0,0,1-.262.144A1,1,0,0,1,99.744,69.831Z" fill="url(#ad)"/><ellipse cx="7.718" cy="7.718" rx="7.718" ry="7.718" transform="translate(63.548 54.1)" fill="#fff"/><g transform="translate(66.056 57.633)"><path d="M67.751,61.031h1.9v.381H68.207v1.172H69.54v.377H68.207v1.6h-.456Z" transform="translate(-67.557 -60.842)" fill="url(#o)"/><path d="M71.888,63.724c0,.262,0,.492.021.69H71.5L71.474,64h-.01a.951.951,0,0,1-.837.471c-.4,0-.873-.22-.873-1.11v-1.48h.461v1.4c0,.482.147.806.566.806a.665.665,0,0,0,.606-.419.657.657,0,0,0,.042-.236V61.883h.461Z" transform="translate(-67.225 -60.701)" fill="url(#af)"/><path d="M72.241,60.869H72.7v3.714h-.461Z" transform="translate(-66.812 -60.869)" fill="url(#ag)"/><path d="M73.3,60.869h.461v3.714H73.3Z" transform="translate(-66.636 -60.869)" fill="url(#ah)"/><path d="M67.7,67.414a1.207,1.207,0,0,0,.606.184c.335,0,.492-.168.492-.378s-.131-.339-.471-.465c-.455-.162-.669-.413-.669-.716a.782.782,0,0,1,.873-.744,1.26,1.26,0,0,1,.623.157l-.115.335a.993.993,0,0,0-.518-.146c-.272,0-.423.156-.423.345,0,.209.152.3.482.428.438.168.663.387.663.765,0,.444-.345.758-.947.758a1.457,1.457,0,0,1-.711-.173Z" transform="translate(-67.585 -60.134)" fill="url(#ai)"/><path d="M70.111,64.721v.728h.659V65.8h-.659v1.364c0,.314.089.492.345.492a1,1,0,0,0,.267-.031l.021.345a1.113,1.113,0,0,1-.408.063.64.64,0,0,1-.5-.194.94.94,0,0,1-.178-.659V65.8h-.392v-.351h.392v-.608Z" transform="translate(-67.305 -60.229)" fill="url(#aj)"/><path d="M72.432,67.885l-.036-.318h-.016a.943.943,0,0,1-.774.375.72.72,0,0,1-.773-.726c0-.612.543-.947,1.522-.942v-.052a.522.522,0,0,0-.575-.585,1.257,1.257,0,0,0-.66.189l-.1-.3a1.582,1.582,0,0,1,.833-.225c.774,0,.962.529.962,1.037v.947a3.551,3.551,0,0,0,.042.606Zm-.068-1.292c-.5-.01-1.073.079-1.073.57a.407.407,0,0,0,.435.44.632.632,0,0,0,.612-.423.506.506,0,0,0,.026-.147Z" transform="translate(-67.046 -60.134)" fill="url(#ak)"/><path d="M75,67.791a1.713,1.713,0,0,1-.728.146,1.2,1.2,0,0,1-1.26-1.292A1.287,1.287,0,0,1,74.369,65.3a1.537,1.537,0,0,1,.638.131l-.1.356a1.076,1.076,0,0,0-.533-.12.876.876,0,0,0-.894.957.867.867,0,0,0,.878.947,1.312,1.312,0,0,0,.566-.126Z" transform="translate(-66.684 -60.133)" fill="url(#al)"/><path d="M75.632,66.675h.01c.063-.089.153-.2.225-.288l.743-.873h.555l-.978,1.041,1.115,1.49h-.56l-.875-1.213-.236.261v.951h-.455V64.331h.455Z" transform="translate(-66.324 -60.294)" fill="url(#am)"/></g><path d="M65.609,135.167c-.023-.009-12.4-21.69-14.076-23.731a1.3,1.3,0,0,0-1.158-.465l-3.456.412-4.059,8.782,6.763-3.939c-.67,4.629,8.019,11.507,11,14.017a.683.683,0,0,1,.054,1l-1.189,1.245a13.659,13.659,0,0,0,6.75,3.839Z" fill="#fbb7b7"/><path d="M60.174,131.813a1.751,1.751,0,0,0-1.016.921.773.773,0,0,0,.291.892c1.25.9,5.374,3.787,7.276,4.354a.216.216,0,0,0,.27-.254,6.868,6.868,0,0,0-1.431-2.617l.091.184a.265.265,0,0,1-.366.349A20.368,20.368,0,0,1,60.174,131.813Z" fill="url(#an)"/><path d="M60.787,140.488c-.021-.013-1.879-4.488-1.9-4.5A78.814,78.814,0,0,0,51.8,114.4a1.3,1.3,0,0,0-1.04-.69l-3.467-.3-5.753,7.779,7.42-2.489c-1.592,4.4,5.525,12.892,7.935,15.953a.685.685,0,0,1-.149.987l-1.417.979a13.665,13.665,0,0,0,5.834,5.125Z" fill="#fbb7b7"/><path d="M56.143,136.1a1.751,1.751,0,0,0-1.182.7.773.773,0,0,0,.105.932c1.043,1.131,4.5,4.8,6.245,5.737a.216.216,0,0,0,.315-.194,6.857,6.857,0,0,0-.872-2.853l.052.2a.265.265,0,0,1-.429.268A20.363,20.363,0,0,1,56.143,136.1Z" fill="url(#ao)"/><path d="M31.066,111.776s-3.136,4.665-3.394,6.793.867,2.864,4.151,3.136c9.77.807,14.586-2.121,14.586-2.121.668-4.261,1.144-5.345,6.726-7.662,0,0-7.06.561-8.481.009S31.066,111.776,31.066,111.776Z" fill="#00b7e6"/><path d="M43.575,85.636s-2.185-2.584-4.508.587c-.42.574-2.036.1-2.628,1.3a1.527,1.527,0,0,1-1.647.848c-1.695-.313-4.466-.339-5.833,2.317-1.044,2.027-.238,3.213.805,3.89a1.711,1.711,0,0,1,.577,2.292c-.445.755-.528,1.778.62,3.008,2.572,2.757,7.665-1.75,7.665-1.75l4.043-9.554Z" fill="#4c348c"/><path d="M39.549,111.158A71.551,71.551,0,0,0,45,105.376a4.889,4.889,0,0,0,.828-4.4A60.715,60.715,0,0,0,43.415,94.9c-.2-.683-4.3-.655-4.3-.655s-8.059,5.231-11.226,14.091l3.556,1.107a41.625,41.625,0,0,1,4.184-5.775s-3.6,4.753-3.724,6.7Z" fill="url(#ap)"/><path d="M46.509,112.53l-2.745-2.986-3.17.854a18.33,18.33,0,0,1-5.81,0l-2.115-.573-4.78-1.488-.75,2.122a1.276,1.276,0,0,0,.466,1.467,8.432,8.432,0,0,0,1.207.752c.63.276,14.5.087,14.5.087Z" fill="#fbb7b7"/><path d="M41.93,89.322,39.177,94.44c.182,1.118,3,1.149,3.431.482a.668.668,0,0,0,.087-.226l1.646-3.42c.071-.333-.843-1.457-1.144-1.617L42.1,89.076C41.681,88.852,43.439,88.834,41.93,89.322Z" fill="#fbb7b7"/><path d="M47.5,88.12a6.058,6.058,0,0,1-1.048,3.929c-1.36,2.2-2.713,2.1-3.4,1.315a4.83,4.83,0,0,1-1.136-4.283C42.29,86.888,47.032,85.915,47.5,88.12Z" fill="#fbb7b7"/><path d="M43.561,89.319s2.2-2.891,3.891-.371l-.029.871s2.2-.1,1.96-2.128-2.033-3.409-4.52-2.717-3.94,1.48-4.221,3.206,1.129,1.445,1.129,1.445.539-1.191,1.189-1.273.415.861.415.861Z" fill="#4c348c"/><path d="M43.056,89.242s1.14-1.48.1-1.787-1,1.45-.931,2.1Z" fill="#fbb7b7"/><path d="M37.424,113.712h.029l12.624-.014a.565.565,0,1,0,0-1.13l-12.625.014a.565.565,0,0,0-.027,1.129Z" fill="url(#aq)"/><path d="M61.426,102.25H50.912A2,2,0,0,0,49.1,103.4l-4.861,10.307H57.305a1.219,1.219,0,0,0,1.133-.771l3.769-9.537A.84.84,0,0,0,61.426,102.25Z" fill="url(#ar)"/><path d="M54.019,107.535c-.228.707-.06,1.395.376,1.535s.973-.32,1.2-1.028.059-1.395-.376-1.535S54.247,106.827,54.019,107.535Z" fill="url(#as)"/><path d="M126.541,138.768a.441.441,0,0,1,.011-.114c.57-2.257,3.4-3.662,3.4-3.662l1.119.087a7.769,7.769,0,0,1,.458,3.753c0,.015-.008.029-.012.044A26.555,26.555,0,0,1,126.541,138.768Z" fill="url(#at)"/><path d="M131.512,138.876a.482.482,0,0,1-.355.359,15.348,15.348,0,0,1-4.278-.061.406.406,0,0,1-.338-.406A26.555,26.555,0,0,0,131.512,138.876Z" fill="url(#au)"/><path d="M135.946,98.82a10.417,10.417,0,0,0,2.426,1.773,20.167,20.167,0,0,1-4.434,3.943l-.549,1.231-1.757-2.106A9.546,9.546,0,0,0,135.946,98.82Z" fill="url(#av)"/><path d="M131.516,133.412l-.474,2.282a.373.373,0,0,1-.319.308,3.216,3.216,0,0,1-.734-.012.47.47,0,0,1-.372-.551l.33-2.027Z" fill="url(#aw)"/><path d="M121.692,138.853a6.676,6.676,0,0,0,2.207-.315c0,.123,0,.248,0,.377a.244.244,0,0,1-.233.249l-6.789-.044a.31.31,0,0,1-.249-.451C117.514,138.742,119.781,138.907,121.692,138.853Z" fill="url(#ax)"/><path d="M116.624,138.669a.286.286,0,0,1,.027-.052,8.653,8.653,0,0,1,5.144-3.229l1.447-.046a6.945,6.945,0,0,1,.657,3.2,6.676,6.676,0,0,1-2.207.315C119.781,138.907,117.514,138.742,116.624,138.669Z" fill="url(#ay)"/><path d="M123.511,133.149c-.016.108-.215,1.747-.292,2.383a.315.315,0,0,1-.265.285,3.321,3.321,0,0,1-1-.016.427.427,0,0,1-.324-.429V132.8Z" fill="url(#az)"/><path d="M124.672,103.222a128.9,128.9,0,0,0-3.428,29.965.645.645,0,0,0,.513.629,7.484,7.484,0,0,0,1.618.188.6.6,0,0,0,.571-.5c.49-2.871,3.3-19.043,4.9-21.669,0,0,1.053,14.4.716,21.877a.354.354,0,0,0,.313.368,5.939,5.939,0,0,0,1.3,0,.475.475,0,0,0,.423-.4c.348-2.429,2.355-16.891,2.27-27.309a15.831,15.831,0,0,0-1.554-3.142Z" fill="url(#ba)"/><path d="M119.318,85.351A13.855,13.855,0,0,1,122,81.483c3.886.7,10.257,1.333,12.913,1.668a3.375,3.375,0,0,1,2.135,1.146c2.168,2.508,6.924,9.376,1.326,16.3a10.417,10.417,0,0,1-2.426-1.773,8.556,8.556,0,0,0-.628-6.714,6.451,6.451,0,0,1-.166.643,39.829,39.829,0,0,0-1.881,11.472.358.358,0,0,1-.225.335c-2.354.944-6.887.382-8.408.155a.512.512,0,0,1-.429-.58c.747-5.41-3.085-14.31-4.1-16.539a1.478,1.478,0,0,0-.736-.736q-.245-.111-.482-.226A13.206,13.206,0,0,1,119.318,85.351Z" fill="url(#bb)"/><path d="M130.842,77.946l.277,4.837a.3.3,0,0,1-.223.306,5.328,5.328,0,0,1-3.787-.377.481.481,0,0,1-.22-.55l1.235-4.346Z" fill="#fbb7b7"/><path d="M127.815,72.662c-.062.059-2.649,5.138-2.649,5.138l2.932,1.416,3.166-4.45S128.866,71.673,127.815,72.662Z" fill="#fbb7b7"/><path d="M129.967,74.889a.463.463,0,0,1-.035.41l-1.462,2.438a.481.481,0,0,1-.08.1.767.767,0,0,1-1.23-.009A4.136,4.136,0,0,0,126,76.579a.468.468,0,0,0-.631.208,17.4,17.4,0,0,0-1,2.374.465.465,0,0,0,.271.57,12.964,12.964,0,0,0,2.808.82.47.47,0,0,0,.442-.188c.448-.614,1.711-2.329,2.141-2.758.4-.4,1.14-.248,1.472-.153a.468.468,0,0,0,.374-.049,1.03,1.03,0,0,0,.388-1.568.467.467,0,0,1,.145-.635,1.035,1.035,0,0,0,.4-1.468,1.458,1.458,0,0,0-1.579-.773.486.486,0,0,1-.51-.284.309.309,0,0,0-.241-.19.453.453,0,0,1-.367-.533,1.2,1.2,0,0,0-.669-1.372c-1.265-.695-2.373.438-2.655,1.394s1.133,1.633,2.022,1.746C129.465,73.8,129.823,74.516,129.967,74.889Z" fill="url(#bc)"/><path d="M129.486,78.5s.563-1.646,1.283-1.585,1.286.777.394,1.584C130.053,79.5,129.486,78.5,129.486,78.5Z" fill="#fbb7b7"/><path d="M135.555,91.682a14.65,14.65,0,0,0,.6-5.764l-.261.029a14.4,14.4,0,0,1-.587,5.645Z" fill="url(#bd)"/><path d="M128.974,111.5a.133.133,0,0,0,.128-.1c.289-1.117,2.457-2.344,2.479-2.356a.132.132,0,0,0-.129-.23c-.093.053-2.288,1.3-2.6,2.52a.132.132,0,0,0,.094.161A.185.185,0,0,0,128.974,111.5Z" fill="url(#be)"/><path d="M110.427,82.983c3.7,1.351,11.571-1.5,11.571-1.5l.542,6.434c-6.307,1.994-10.41,1.413-13.079-.26A8.812,8.812,0,0,1,110.427,82.983Z" fill="url(#bf)"/><path d="M104.543,76.343l1.547-.306s.421,4.921,3.866,6.74a3.72,3.72,0,0,0,.471.206,8.812,8.812,0,0,0-.966,4.674C104.038,84.257,104.543,76.343,104.543,76.343Z" fill="#fbb7b7"/><path d="M106.011,76.466l.079-.429a2.359,2.359,0,0,0-.531-2.08c-1.234-1.49-2.136-.942-2.136-.942a3.293,3.293,0,0,1,.059.6.265.265,0,0,1-.445.19l-2.013-1.85s-.563,2.938,3.754,4.957Z" fill="#fbb7b7"/><g transform="translate(-3 7)"><path d="M98.862,81.84l-.264.8h-.341l.866-2.551h.4l.87,2.551h-.352l-.272-.8Zm.836-.257-.249-.734c-.057-.166-.1-.318-.133-.466h-.007c-.038.152-.08.307-.129.462l-.249.738Z" fill="url(#bg)"/><path d="M100.743,81.307c0-.189,0-.345-.015-.5h.3l.019.3h.008a.672.672,0,0,1,.6-.344c.253,0,.647.151.647.779v1.094h-.333V81.587c0-.295-.11-.541-.424-.541a.472.472,0,0,0-.446.34.484.484,0,0,0-.023.156v1.1h-.333Z" fill="url(#bh)"/><path d="M104.426,79.956v2.213c0,.163,0,.349.014.474h-.3l-.015-.318h-.008a.678.678,0,0,1-.625.359.835.835,0,0,1-.783-.931.876.876,0,0,1,.821-.983.614.614,0,0,1,.553.279h.008V79.956Zm-.333,1.6a.552.552,0,0,0-.016-.14.49.49,0,0,0-.48-.387c-.345,0-.549.3-.549.708,0,.371.181.678.541.678a.5.5,0,0,0,.488-.4.545.545,0,0,0,.016-.143Z" fill="url(#o)"/><path d="M104.979,81.382c0-.215,0-.4-.016-.571h.292l.011.359h.015a.549.549,0,0,1,.507-.4.345.345,0,0,1,.1.011V81.1a.478.478,0,0,0-.113-.012.469.469,0,0,0-.448.428,1.014,1.014,0,0,0-.014.155v.977h-.329Z" fill="url(#bj)"/><path d="M107.836,81.712a.9.9,0,0,1-.912.972.871.871,0,0,1-.878-.942.894.894,0,0,1,.908-.972A.867.867,0,0,1,107.836,81.712Zm-1.453.018c0,.4.23.7.556.7s.556-.3.556-.712c0-.31-.155-.7-.548-.7S106.383,81.382,106.383,81.73Z" fill="url(#bk)"/><path d="M108.627,80.3a.207.207,0,0,1-.413,0,.2.2,0,0,1,.208-.208A.2.2,0,0,1,108.627,80.3Zm-.371,2.347V80.811h.333v1.832Z" fill="url(#bl)"/><path d="M110.724,79.956v2.213c0,.163,0,.349.014.474h-.3l-.015-.318h-.007a.678.678,0,0,1-.625.359.835.835,0,0,1-.783-.931.876.876,0,0,1,.821-.983.614.614,0,0,1,.553.279h.008V79.956Zm-.333,1.6a.552.552,0,0,0-.016-.14.49.49,0,0,0-.48-.387c-.345,0-.549.3-.549.708,0,.371.181.678.541.678a.5.5,0,0,0,.488-.4.545.545,0,0,0,.016-.143Z" fill="url(#bm)"/></g></g></g></svg>