<svg xmlns="http://www.w3.org/2000/svg" xmlns:xlink="http://www.w3.org/1999/xlink" width="175" height="175" viewBox="0 0 175 175"><defs><linearGradient id="a" x1="1.782" y1="-5.027" x2="0.442" y2="-2.191" gradientUnits="objectBoundingBox"><stop offset="0" stop-color="#c9b5ee"/><stop offset="0.59" stop-color="#a57cf0"/><stop offset="1" stop-color="#9868f2"/></linearGradient><linearGradient id="b" x1="39.548" y1="-6.146" x2="30.34" y2="1.777" xlink:href="#a"/><linearGradient id="c" x1="2.33" y1="0.36" x2="0.476" y2="0.502" gradientUnits="objectBoundingBox"><stop offset="0" stop-color="#fff"/><stop offset="0.678" stop-color="#c2a6f5"/><stop offset="1" stop-color="#a57cf0"/><stop offset="1" stop-color="#9868f2"/></linearGradient><linearGradient id="d" x1="0.549" y1="0.417" x2="0.202" y2="1.267" gradientUnits="objectBoundingBox"><stop offset="0" stop-color="#c9b5ee" stop-opacity="0.38"/><stop offset="0.59" stop-color="#a57cf0" stop-opacity="0.361"/><stop offset="1" stop-color="#9868f2" stop-opacity="0.259"/></linearGradient><linearGradient id="e" y1="0.5" x2="1" y2="0.5" gradientUnits="objectBoundingBox"><stop offset="0" stop-color="#fd70a5"/><stop offset="1" stop-color="#fdaac9"/></linearGradient><linearGradient id="f" x1="0" y1="0.5" x2="1" y2="0.5" xlink:href="#e"/><linearGradient id="g" x1="0" y1="0.5" x2="1" y2="0.5" xlink:href="#e"/><linearGradient id="h" y1="0.5" x2="1" y2="0.5" gradientUnits="objectBoundingBox"><stop offset="0" stop-color="#a737d5"/><stop offset="1" stop-color="#ef497a"/></linearGradient><linearGradient id="i" x1="0" y1="0.5" x2="1" y2="0.5" xlink:href="#h"/><clipPath id="l"><rect width="175" height="175"/></clipPath></defs><g id="k" clip-path="url(#l)"><g transform="translate(2 -7.078)"><g transform="translate(-1 38.156)"><path d="M96.679,146.18c-4.963-1.845-11.824-.3-14.558,3.922s5.051,4.641,10.193,6.353S116.613,153.588,96.679,146.18Z" transform="translate(7.344 -29.825)" opacity="0.33" fill="url(#a)"/><g transform="translate(1.873 54.144)" opacity="0.25"><path d="M4.765,100.626C7.006,97.407,8.3,90.4,4.24,88.612S1.008,94.776.753,98.378,3.993,101.736,4.765,100.626Z" transform="translate(-0.74 -88.353)" fill="url(#b)"/><path d="M4.765,100.626C7.006,97.407,8.3,90.4,4.24,88.612S1.008,94.776.753,98.378,3.993,101.736,4.765,100.626Z" transform="translate(-0.74 -88.353)" fill="#4f4f4f" opacity="0.3" style="mix-blend-mode:screen;isolation:isolate"/></g><ellipse cx="67.657" cy="4.053" rx="67.657" ry="4.053" transform="translate(34.177 97.852)" opacity="0.22" fill="url(#c)" style="mix-blend-mode:multiply;isolation:isolate"/><g transform="translate(4.941)"><path d="M169.592,120.757c1.223,5.944,2.231,12.561-.513,20.213-5.55,15.46-23.208,19.832-38.87,15.628-3.561-.953-7.069-1.909-10.5-2.77-11.681-2.9-22.577-4.621-32.11-.964a113.567,113.567,0,0,1-13.549,4.191c-11.027,2.668-23.094,3.756-28.451-.844a53.676,53.676,0,0,1-4.552-4.533c-4.466-4.893-8.736-10.1-18.086-12.869a44.429,44.429,0,0,0-5.864-1.292c-7.107-1.092-10.943-4.794-12.559-9.473-2.322-6.708-.082-15.425,3.638-21.357a16.363,16.363,0,0,0,2.351-7.4c.772-8.351-2.779-17.476,4.4-25.688,9.38-10.718,21.715-7.474,30.428-9.52,7.494-1.767,13.86-5.478,20.4-15.429s21.946-12.868,28.641-8.8,12.783,13.185,29.715,15.358c10.548,1.353,17.939,2.735,22.795,4.929a18.207,18.207,0,0,1,1.672.843,11.483,11.483,0,0,1,4.492,4.2c3.223,5.553,6.811,9.823,14.474,15.257a13.358,13.358,0,0,1,1.967,1.681c5.251,5.414,3.12,13.144-.571,22.173C166.874,109.332,168.343,114.695,169.592,120.757Z" transform="translate(-3.588 -38.073)" fill="url(#d)"/><path d="M169.506,82.112c-11.752-2.637-23.948,9.481-37.734,23.52-22.3,22.718-87.183,4.09-108.815,33.178a44.429,44.429,0,0,0-5.864-1.292c-7.107-1.092-10.943-4.794-12.559-9.473-2.322-6.708-.082-15.425,3.638-21.357C14.477,96.61,5.546,84.32,14.92,73.6s21.715-7.474,30.428-9.52c7.494-1.767,13.86-5.478,20.4-15.429s21.946-12.868,28.641-8.8,12.783,13.185,29.715,15.358c10.548,1.353,17.939,2.735,22.795,4.929a12.734,12.734,0,0,1,6.164,5.04c3.223,5.553,6.811,9.823,14.474,15.257A13.358,13.358,0,0,1,169.506,82.112Z" transform="translate(-3.588 -38.073)" fill="none" opacity="0.61" style="mix-blend-mode:screen;isolation:isolate"/><path d="M148.093,60.977c-29,1.611-56.681,7.131-74.292,24.82-17.687,17.767-41.126,2.888-63.759,13.487.772-8.351-2.779-17.476,4.4-25.688,9.38-10.718,21.715-7.474,30.428-9.52,7.494-1.767,13.86-5.478,20.4-15.429s21.946-12.868,28.641-8.8,12.783,13.185,29.715,15.358c10.548,1.353,17.939,2.735,22.795,4.929A18.207,18.207,0,0,1,148.093,60.977Z" transform="translate(-3.109 -38.073)" fill="none" opacity="0.48" style="mix-blend-mode:screen;isolation:isolate"/></g><circle cx="0.916" cy="0.916" r="0.916" transform="translate(87.109 5.52)" fill="#4f4f4f" opacity="0.51" style="mix-blend-mode:screen;isolation:isolate"/><circle cx="0.916" cy="0.916" r="0.916" transform="translate(66.589 18.548)" fill="#4f4f4f" opacity="0.51" style="mix-blend-mode:screen;isolation:isolate"/><circle cx="0.916" cy="0.916" r="0.916" transform="translate(129.841 62.541)" fill="#4f4f4f" opacity="0.51" style="mix-blend-mode:screen;isolation:isolate"/><path d="M.944,114.776a.972.972,0,0,1-.971.971A.972.972,0,0,1-1,114.776a.972.972,0,0,1,.972-.972A.972.972,0,0,1,.944,114.776Z" transform="translate(1 -32.254)" fill="#4f4f4f" opacity="0.51" style="mix-blend-mode:screen;isolation:isolate"/><path d="M7.038,76.9a.972.972,0,1,1-.971-.972A.972.972,0,0,1,7.038,76.9Z" transform="translate(1.468 -35.165)" fill="#4f4f4f" opacity="0.51" style="mix-blend-mode:screen;isolation:isolate"/></g><g transform="translate(23.467 37)"><g transform="translate(33.74)"><rect width="39.662" height="56.148" rx="0.967" transform="translate(0 2.399)" fill="#bfbef7"/><path d="M.779,0H33.444a.779.779,0,0,1,.779.779V3.044a0,0,0,0,1,0,0H0a0,0,0,0,1,0,0V.779A.779.779,0,0,1,.779,0Z" transform="translate(3.213 26.703)" fill="#9092c2"/><path d="M0,0H34.223a0,0,0,0,1,0,0V9.554a.846.846,0,0,1-.846.846H.846A.846.846,0,0,1,0,9.554V0A0,0,0,0,1,0,0Z" transform="translate(3.213 29.747)" fill="#fff"/><path d="M1.426,0H32.8a1.426,1.426,0,0,1,1.426,1.426V3.044a0,0,0,0,1,0,0H0a0,0,0,0,1,0,0V1.426A1.426,1.426,0,0,1,1.426,0Z" transform="translate(3.183 41.897)" fill="#9092c2"/><rect width="34.223" height="10.4" transform="translate(3.183 44.941)" fill="#fff"/><rect width="30.479" height="0.594" transform="translate(5.163 46.556)" fill="#bfbef7"/><rect width="30.479" height="0.594" transform="translate(5.163 48.231)" fill="#bfbef7"/><rect width="30.479" height="0.594" transform="translate(5.163 49.907)" fill="#bfbef7"/><rect width="30.479" height="0.594" transform="translate(5.163 51.582)" fill="#bfbef7"/><g transform="translate(4.17 7.335)"><rect width="14.933" height="16.678" rx="3.786" fill="#fff"/><path d="M69.567,53.072c-.257-.184-3.329-1.294-3.329-1.294l-2,.779-2-.779s-3.071,1.11-3.329,1.294.478,6.8.478,6.8h9.692S69.824,53.257,69.567,53.072Z" transform="translate(-56.777 -43.199)" fill="#ce6b4c"/><path d="M65.279,49.678l-1.249.148-1.248-.148a6.054,6.054,0,0,1-.3,2.294l1.551.772,1.552-.772A6.054,6.054,0,0,1,65.279,49.678Z" transform="translate(-56.499 -43.36)" fill="#f28f8f"/><path d="M66.825,47.928c-.059-.566-.474-.475-.607-.431V46.463h-4.15V47.5c-.134-.044-.548-.136-.607.431a.953.953,0,0,0,.607.993v.017a2.47,2.47,0,0,0,2.075,2.521c1.1,0,2.075-1.34,2.075-2.521V48.92A.954.954,0,0,0,66.825,47.928Z" transform="translate(-56.578 -43.607)" fill="#ffb2ae"/><path d="M67.384,46.044a2.776,2.776,0,0,1-.539-.067c.268-.068.348-.548.348-.548-.558.154-3.036-.7-4.208-.489s-1.066.777-1.066.777c-1.191.451-.362,2.047-.362,2.047.166-.277.525-.149.525-.149l.182.858a1.7,1.7,0,0,0,.2-1.107v0a1.348,1.348,0,0,0,.389-.783l2.919.01a1.112,1.112,0,0,0,.222.73.471.471,0,0,0-.065.16,1.707,1.707,0,0,0,.2,1.107l.27-1a.4.4,0,0,1,.314.112,1.588,1.588,0,0,0,.338-1.117C67.374,46.467,67.384,46.044,67.384,46.044Z" transform="translate(-56.591 -43.727)" fill="#686da4"/><path d="M62.759,50.965l1.308,1.68-.938.877-1.122-1.681Z" transform="translate(-56.535 -43.261)" fill="#e9ab72"/><path d="M65.227,50.965l-1.308,1.68.938.877,1.122-1.681Z" transform="translate(-56.388 -43.261)" fill="#e9ab72"/><path d="M59.017,52.98a3.226,3.226,0,0,0-1.14,2.756l-.294,4.049H59.5Z" transform="translate(-56.875 -43.107)" fill="#e9ab72"/><path d="M68.786,52.98a3.226,3.226,0,0,1,1.14,2.756l.3,4.049H68.308Z" transform="translate(-56.051 -43.107)" fill="#e9ab72"/></g><path d="M73.667,48.975l.446.9,1,.145-.721.7.17.992-.891-.469-.891.469.17-.992-.721-.7,1-.145Z" transform="translate(-51.58 -36.08)" fill="#fff"/><path d="M76.814,48.975l.446.9,1,.145-.721.7.17.992-.891-.469-.891.469.17-.992-.721-.7,1-.145Z" transform="translate(-51.338 -36.08)" fill="#fff"/><path d="M79.961,48.975l.446.9,1,.145-.721.7.17.992-.891-.469-.891.469.17-.992-.721-.7,1-.145Z" transform="translate(-51.096 -36.08)" fill="#fff"/><path d="M83.108,48.975l.446.9,1,.145-.721.7.17.992-.891-.469-.891.469.17-.992-.721-.7,1-.145Z" transform="translate(-50.854 -36.08)" fill="#fff"/><path d="M86.255,48.975l.446.9,1,.145-.721.7.17.992-.891-.469-.891.469.17-.992-.721-.7,1-.145Z" transform="translate(-50.613 -36.08)" fill="#fff"/><g transform="translate(20.945 16.315)"><path d="M87.509,60.17H73.432a.93.93,0,0,1-.929-.928V53.08a.93.93,0,0,1,.929-.929H87.509a.93.93,0,0,1,.929.929v6.162A.93.93,0,0,1,87.509,60.17ZM73.432,52.609a.472.472,0,0,0-.473.472v6.162a.473.473,0,0,0,.473.472H87.509a.473.473,0,0,0,.473-.472V53.08a.472.472,0,0,0-.473-.472Z" transform="translate(-72.503 -52.151)" fill="#e6e6e7"/></g><rect width="12.722" height="0.42" rx="0.195" transform="translate(22.52 18.178)" fill="#e6e6e7"/><rect width="12.722" height="0.42" rx="0.195" transform="translate(22.52 19.406)" fill="#e6e6e7"/><rect width="12.722" height="0.42" rx="0.195" transform="translate(22.52 20.636)" fill="#e6e6e7"/><rect width="12.722" height="0.42" rx="0.195" transform="translate(22.52 21.864)" fill="#e6e6e7"/><circle cx="2.646" cy="2.646" r="2.646" transform="matrix(0.229, -0.974, 0.974, 0.229, 25.683, 11.523)" fill="#fff"/><path d="M77.284,46.015l.881-.823,1.126,1.09,2.588-2.92.949.962-3.362,3.85Z" transform="translate(-51.191 -36.511)" fill="#e5a872"/><rect width="30.479" height="0.594" transform="translate(5.163 31.267)" fill="#bfbef7"/><rect width="30.479" height="0.594" transform="translate(5.163 32.943)" fill="#bfbef7"/><rect width="30.479" height="0.594" transform="translate(5.163 34.618)" fill="#bfbef7"/><rect width="30.479" height="0.594" transform="translate(5.163 36.293)" fill="#bfbef7"/><path d="M53.053,42.251H92.61V39.967A2.966,2.966,0,0,0,89.643,37H56.02a2.966,2.966,0,0,0-2.967,2.967Z" transform="translate(-53.053 -37)" fill="#575c96"/></g><g transform="translate(14.67 39.899)"><g transform="translate(0 12.04)"><g transform="translate(24.72 21.566)"><path d="M58.726,131.826a.369.369,0,0,1-.076-.008.424.424,0,0,1-.342-.494l4.748-26.064h3.916l5.281,25.879a.426.426,0,1,1-.835.17l-5.141-25.2H63.766l-4.621,25.364A.427.427,0,0,1,58.726,131.826Z" transform="translate(-58.3 -105.26)" fill="#26345b"/></g><g transform="translate(35.014 22.064)"><path d="M68.285,132.289a.375.375,0,0,1-.076-.008.425.425,0,0,1-.342-.5l4.748-26.063h3.9l6.45,25.775a.426.426,0,0,1-.826.208l-6.289-25.131H73.325L68.7,131.939A.427.427,0,0,1,68.285,132.289Z" transform="translate(-67.859 -105.723)" fill="#26345b"/></g><path d="M65.122,129.8c-1.112.048-2.745.165-3.526.142s-1.443-.024-1.49-.355a10.917,10.917,0,0,1,.386-1.854c.125-.471.23-.843.23-.843l1.442.5a5.4,5.4,0,0,0,1.23.781c.065.031.139.068.219.111C64.512,128.742,66.142,129.753,65.122,129.8Z" transform="translate(-33.441 -82.032)" fill="#fbb7b7"/><path d="M62.276,115.681a8.718,8.718,0,0,0-1.462,5.2,73.233,73.233,0,0,1-.379,7.76h1.841S64.922,115.9,65,115.3,62.276,115.681,62.276,115.681Z" transform="translate(-33.416 -82.937)" fill="#fbb7b7"/><path d="M66.077,111.334s1.051.082,1.7,1.887-3.542,15.918-3.542,15.918l-1.444-1.362s-.263-5.49.733-8.683a19.7,19.7,0,0,1,1.065-3.147Z" transform="translate(-33.238 -83.227)" fill="#fbb7b7"/><path d="M67.578,130.19c-.177.31-1.062.475-2.232,0s-3.3-.874-3.2-1.3c.08-.316.491-1.783.7-2.518.071-.258.12-.426.12-.426s.815-.71,1.312.777a5.412,5.412,0,0,0,1.7,2.007C66.839,129.456,67.673,130.023,67.578,130.19Z" transform="translate(-33.285 -82.118)" fill="#fbb7b7"/><rect width="9.511" height="0.719" transform="translate(30.603 21.056)" fill="#686da4"/><rect width="2.33" height="0.719" transform="translate(39.925 21.056)" fill="#686da4"/><path d="M55.756,105.478a47.152,47.152,0,0,0,8.3.2L64,104.488l-8.138-1.931Z" transform="translate(-33.775 -83.902)" fill="#fbb7b7"/><g transform="translate(9.267 33.607)"><path d="M44.375,131.335a.421.421,0,0,1-.135-.023.426.426,0,0,1-.269-.538l4.774-14.332h3.827l4.821,14.331a.426.426,0,1,1-.808.271l-4.625-13.75h-2.6l-4.58,13.749A.425.425,0,0,1,44.375,131.335Z" transform="translate(-43.95 -116.442)" fill="#26345b"/></g><rect width="22.552" height="1.272" transform="translate(23.962 21.775)" fill="#c5c6f4"/><path d="M54.122,89.376s.115-.756.626-.952.561,0,.561,0a2.656,2.656,0,0,1,.146,1.152c0,.906.083,1.81,0,2.914s-.325,1.794-.648,1.876a1.671,1.671,0,0,1-.685,0L53.629,95.7l-1.087-.346Z" transform="translate(-34.022 -84.994)" fill="#fbb7b7"/><path d="M57.313,95.109a32.623,32.623,0,0,1,1.463,5.871c.41,2.983,1.465,5.093,2.078,5.292s1.5-1.451.318-4.76c-.609-1.7-2.213-6.9-2.213-6.9Z" transform="translate(-33.656 -84.513)" fill="#fbb7b7"/><path d="M47.94,99.036c.31,2.075,1.712,7.949,2,9.226v2.84h7.31l-.461-4.755-.215-9.474-2.34-.853-3.3-1.065S47.453,95.771,47.94,99.036Z" transform="translate(-34.38 -84.486)" fill="url(#e)"/><path d="M50.268,94.214a21,21,0,0,1,3.424.957,1.356,1.356,0,0,1,.532,1.047l-4.4-.9Z" transform="translate(-34.231 -84.543)" fill="url(#f)"/><path d="M54.305,97.81a3.388,3.388,0,0,0,.151,3.016c.879,1.582,3.539,4.878,5.361,5.465a1.741,1.741,0,0,0,2.107-.581c-.1-1.121-1.4-1.216-5.732-8.857C55.787,96.14,54.54,97.03,54.305,97.81Z" transform="translate(-33.909 -84.36)" fill="url(#g)"/><path d="M49.825,109.352s-1.455,3.837.745,6.747,15.047,0,15.047,0l1.49-4.613-10.034-2.134Z" transform="translate(-34.268 -83.38)" fill="#29abe2"/><path d="M53.053,86.8a3.139,3.139,0,0,0-2.9.527c-1.294,1.1-.636,3.841-1.777,5.311a1.688,1.688,0,0,0,.09,2.464A1.887,1.887,0,0,0,50.4,96.8a3.063,3.063,0,0,0,3.335-2.337s.615-.176.593-1.558-.034-3.25.351-3.775c.213-.292,1.041-.428,1.041-.428A2.142,2.142,0,0,0,53.053,86.8Z" transform="translate(-34.38 -85.124)" fill="#26345b"/><path d="M57.983,93.6a8.618,8.618,0,0,0-.847-.69c-.17-.092-.482-.3-.717-.248-.172.039-.233-.093-.373-.154h0a.471.471,0,0,0-.5-.094,2.4,2.4,0,0,0-.614.938c-.076.418.474-.031.661-.335h0l.015.019a1.466,1.466,0,0,0-.3.574c-.066.362.368.031.575-.247.215.256.44.541.393.654-.082.195-.3.325-.752.182s-.833-.026-.391.215a4.917,4.917,0,0,0,1.46.645,4.308,4.308,0,0,1,1.023.328s1.588-.474,1.531-.608A7.679,7.679,0,0,0,57.983,93.6Z" transform="translate(-33.839 -84.684)" fill="#fbb7b7"/><g transform="translate(10.908 23.09)"><path d="M54.905,118.024H47.733l-2.251-10.835a.426.426,0,1,1,.833-.173l2.11,10.157h5.413L51.577,107.2a.426.426,0,1,1,.83-.188Z" transform="translate(-45.473 -106.675)" fill="#26345b"/></g><path d="M43.392,107.066c1.278,2.058,4.437.19,5.678.449s4.269,1.326,5.257-.378-1.241-5.2-4.973-5.749C43.89,100.583,42.115,105.008,43.392,107.066Z" transform="translate(-34.756 -83.999)" fill="#6670ab"/><path d="M67.6,98.283l-1.632,7h9.274l1.275-6.622L76,98.283Z" transform="translate(-32.99 -84.23)" fill="#686da4"/><path d="M67.935,98.712l-1.354,6.123h7.691l1.058-6.123Z" transform="translate(-32.944 -84.197)" fill="#c5c6f4"/><path d="M63.225,104.493s2.012-.816,2.472-.935a1.542,1.542,0,0,1,1.2.3c.331.2.485.425.733.591s.047.332-.261.272a.921.921,0,0,1-.5-.3l-.5-.3a6.175,6.175,0,0,0-.65.461c-.178.166.166.154.7.344s.769.023.923.26-.166.3-.9.3h-.733a6.1,6.1,0,0,1-2.224.115Z" transform="translate(-33.202 -83.827)" fill="#fbb7b7"/><path d="M73.991,105.286l1.4-7,.518.38-1.275,6.622Z" transform="translate(-32.374 -84.23)" fill="#686da4"/><rect width="17.46" height="1.942" rx="0.902" transform="translate(12.398 33.406)" fill="#6670ab"/><path d="M67.578,130.147c-.177.31-1.062.475-2.232,0s-3.3-.874-3.2-1.3c.08-.316.491-1.783.7-2.518a.923.923,0,0,1,.472.351c.426.517.71,1.443,1.473,1.778a2.675,2.675,0,0,0,1.185.229C66.839,129.413,67.673,129.98,67.578,130.147Z" transform="translate(-33.285 -82.075)" fill="#25335a"/><path d="M65.122,129.74c-1.112.048-2.745.165-3.526.142s-1.443-.024-1.49-.355a10.917,10.917,0,0,1,.386-1.854,1.96,1.96,0,0,1,1.341.316,2.93,2.93,0,0,0,1.78.23C64.512,128.684,66.142,129.695,65.122,129.74Z" transform="translate(-33.441 -81.973)" fill="#25335a"/><path d="M45.021,85.233h-7.76a1.917,1.917,0,0,0-1.917,1.918v3.189a1.917,1.917,0,0,0,1.917,1.918h5.473l2.407,2.8v-2.8a1.916,1.916,0,0,0,1.8-1.911V87.151A1.917,1.917,0,0,0,45.021,85.233Z" transform="translate(-35.344 -85.233)" fill="#e5a872"/><circle cx="0.763" cy="0.763" r="0.763" transform="translate(2.231 2.52)" fill="#fff"/><circle cx="0.763" cy="0.763" r="0.763" transform="translate(5.301 2.52)" fill="#fff"/><circle cx="0.763" cy="0.763" r="0.763" transform="translate(7.963 2.52)" fill="#fff"/></g><g transform="translate(48.083)"><g transform="translate(0 3.107)"><path d="M93.028,87.437s-.071-.816,1.028-1.456a8.393,8.393,0,0,1,3.265-1.1,15.083,15.083,0,0,1,3.9-.036l2.911,1.775a42.8,42.8,0,0,1-.887,7.7,20.511,20.511,0,0,0,.051,7.356l-9.419.841Z" transform="translate(-78.994 -76.339)" fill="url(#h)"/><path d="M97.754,125.351s-.047,2.981,0,3.974.378,1.136-1.94,1.136-4.163.284-4.92-.284,2.981-1.8,3.738-2.649a1.642,1.642,0,0,0,.425-1.656Z" transform="translate(-79.166 -73.217)" fill="#232733"/><path d="M101.83,125.834a7.34,7.34,0,0,1,0,2.07c-.19.486-1.277.923-1.8,1.16s-.9.6-.615.887a21.059,21.059,0,0,0,5.455.188c.318-.188-.676-4.305-.676-4.305Z" transform="translate(-78.511 -73.18)" fill="#232733"/><path d="M103.518,86.486s2.7,7.31,3.052,10.291-4.117,6.766-4.117,6.766l-1.389-3.5,2.1-3.264-1.348-3.124Z" transform="translate(-78.377 -76.204)" fill="url(#i)"/><path d="M97.32,76.938a5.6,5.6,0,0,1,2.588.585,2.772,2.772,0,0,1,1.273,1.44,2.183,2.183,0,0,1,.376,1.169c.062.793-1.628,3.3-1.628,3.3a7.273,7.273,0,0,1-2.687-.414c-.735-.443-1.821-3.768-1.821-3.768a2.178,2.178,0,0,1-.752-1.12l.59-.1s-.8-.376-.59-.981Z" transform="translate(-78.871 -76.937)" fill="#26345b"/><path d="M99.883,83.27a13.665,13.665,0,0,1-2.687-.414,1.648,1.648,0,0,0,.62-.922c.125-.585-.208-1.566-.646-1.545s-.472.585-.472.585l-.277-1.046s-.1-.668-.551-.84-.5,0-.5,0a2.343,2.343,0,0,0-.129,1.017c0,.8-.072,1.6,0,2.57s.288,1.582.572,1.655a7.623,7.623,0,0,0,.909.118l.131,1.057.958-.3s1.461-.1,2.088-.1Z" transform="translate(-78.826 -76.778)" fill="#fbb7b7"/><path d="M94.555,86.288a5.274,5.274,0,0,1,.319,4.293c-.42,1.317-2.143,2.766-3.712,3.862a3.767,3.767,0,0,1-4.923-.535L82.347,89.7l1.668-1.775,4.33,3.318S94.022,86.075,94.555,86.288Z" transform="translate(-79.815 -76.219)" fill="url(#h)"/><path d="M93.819,100.905v1.585s.319,13.533.39,15.733-.146,11.037-.146,11.037h3.548s1.283-7.275.91-9.759a18.151,18.151,0,0,1-.341-3.386c0-1.419.968-9.764.968-9.764s1.8,11.3,1.8,12.866,1.007,10.658,1.007,10.658h3.336s.128-10.161-.51-12.29-1.007-15.126-1.614-17.4Z" transform="translate(-78.933 -75.151)" fill="#29abe2"/><path d="M84.026,88.228s-1.252-1.547-1.5-1.938a6.575,6.575,0,0,0-2-1.65c-.354-.036.3.994.728,1.313,0,0-.674.249-.586.692,0,0-.55.178-.461.621a1.148,1.148,0,0,0-.16.962,1.234,1.234,0,0,0,.711.795,1.146,1.146,0,0,0,.373,0,1.559,1.559,0,0,0,.881.425l.517.374Z" transform="translate(-79.995 -76.346)" fill="#fbb7b7"/><path d="M96.119,84.928a6.226,6.226,0,0,1,2.38-.845,4.341,4.341,0,0,1,2,0l.22.845S94.773,85.962,96.119,84.928Z" transform="translate(-78.772 -76.396)" fill="#ce6b4c"/></g><g transform="translate(24.64)"><path d="M104.795,74.052h7.76a1.918,1.918,0,0,1,1.918,1.917v3.19a1.918,1.918,0,0,1-1.918,1.917h-5.473l-2.407,2.8v-2.8a1.917,1.917,0,0,1-1.8-1.911v-3.19A1.918,1.918,0,0,1,104.795,74.052Z" transform="translate(-102.877 -74.052)" fill="#e5a872"/><circle cx="0.763" cy="0.763" r="0.763" transform="translate(2.169 2.539)" fill="#fff"/><circle cx="0.763" cy="0.763" r="0.763" transform="translate(5.239 2.539)" fill="#fff"/><circle cx="0.763" cy="0.763" r="0.763" transform="translate(7.9 2.539)" fill="#fff"/></g></g></g><g transform="translate(0 61.395)"><g transform="translate(93.172)"><path d="M123.99,128.357h-4.173v-11.6h-.906v11.6h-4.348a.872.872,0,0,0-.654.294l-1.19,1.343a.535.535,0,0,0,.15.827h0a.535.535,0,0,0,.657-.123l1.283-1.49h4.1v1.18a.452.452,0,0,0,.453.452h0a.452.452,0,0,0,.452-.452v-1.18h3.534l1.276,1.482a.534.534,0,0,0,.668.117h0a.534.534,0,0,0,.138-.821Z" transform="translate(-107.91 -92.267)" fill="#26345b"/><path d="M116.283,97.575l-.789,20.925h11.5l1.78-20.465a3.7,3.7,0,0,0-3.686-4.021h-5.1A3.7,3.7,0,0,0,116.283,97.575Z" transform="translate(-107.687 -94.014)" fill="#6670ab"/><path d="M126.6,117.627H109.2a.892.892,0,0,1-.953-.816h0A.893.893,0,0,1,109.2,116h17.4a.893.893,0,0,1,.952.816h0A.892.892,0,0,1,126.6,117.627Z" transform="translate(-108.244 -92.325)" fill="#acaad1"/><g transform="translate(0.58 17.885)"><path d="M109.577,116.473h-.794l.751-5.3a.637.637,0,0,1,.631-.547h6.078v.852h-5.9Z" transform="translate(-108.783 -110.623)" fill="#26345b"/></g><g transform="translate(12.314 17.885)"><path d="M120.531,116.408h-.852l.8-5.252a.627.627,0,0,1,.621-.533h6.091v.852h-5.9Z" transform="translate(-119.679 -110.623)" fill="#26345b"/></g></g><g transform="translate(0 4.834)"><rect width="20.734" height="24.929" transform="translate(0 8.757)" fill="#acaad1"/><rect width="16.04" height="6.435" transform="translate(2.014 10.788)" fill="#9092c2"/><rect width="16.04" height="13.188" transform="translate(2.014 19.317)" fill="#9092c2"/><circle cx="0.852" cy="0.852" r="0.852" transform="translate(9.112 13.107)" fill="#acaad1"/><rect width="0.923" height="14.337" transform="translate(9.679 18.785)" fill="#acaad1"/><rect width="2.555" height="8.757" transform="translate(2.464)" fill="#6670ab"/><circle cx="0.621" cy="0.621" r="0.621" transform="translate(3.079 1.183)" fill="#9092c2"/><rect width="2.555" height="1.349" transform="translate(2.464 2.851)" fill="#9092c2"/><rect width="2.555" height="8.757" transform="translate(7.574)" fill="#6670ab"/><circle cx="0.621" cy="0.621" r="0.621" transform="translate(8.189 1.183)" fill="#9092c2"/><rect width="2.555" height="1.349" transform="translate(7.574 2.851)" fill="#9092c2"/><rect width="2.555" height="8.757" transform="translate(5.019)" fill="#505c93"/><rect width="2.555" height="8.757" transform="translate(9.963)" fill="#505c93"/></g></g></g></g></g></svg>