<svg xmlns="http://www.w3.org/2000/svg" xmlns:xlink="http://www.w3.org/1999/xlink" width="85" height="85" viewBox="0 0 85 85"><defs><clipPath id="b"><rect width="85" height="85"/></clipPath></defs><g id="a" clip-path="url(#b)"><g transform="translate(0.146 1)"><path d="M23.983,74.71v5.032H5.112V63.1a8.513,8.513,0,0,1,17-.7l.516,6.138a1.246,1.246,0,0,0,1.245,1.145h6.4a2.534,2.534,0,0,1,2.516,2.517,2.523,2.523,0,0,1-2.516,2.516Zm0,0" fill="#fc4c59"/><path d="M61.725,74.71h-6.29a2.523,2.523,0,0,1-2.516-2.516,2.534,2.534,0,0,1,2.516-2.517h6.4a1.247,1.247,0,0,0,1.246-1.145l.516-6.138a8.512,8.512,0,0,1,17,.7V79.742H61.725Zm0,0" fill="#fc4c59"/><path d="M76.822,48.29A6.291,6.291,0,1,1,70.532,42a6.29,6.29,0,0,1,6.29,6.29Zm0,0" fill="#d8d8d8"/><path d="M56.693,40.742v5.032l-3.019.831a11.985,11.985,0,0,1-.805,1.937l1.547,2.717-3.56,3.561-2.718-1.547a12.038,12.038,0,0,1-1.937.805L45.37,57.1H40.338l-.83-3.019a12.038,12.038,0,0,1-1.937-.805L34.853,54.82l-3.56-3.561,1.547-2.717a11.9,11.9,0,0,1-.805-1.937l-3.019-.831V40.742l3.019-.831a11.9,11.9,0,0,1,.805-1.937l-1.547-2.717,1.924-1.913a2.525,2.525,0,0,0,2.089,1.108,7.48,7.48,0,0,0,2.214,5.334.2.2,0,0,0,.063.05l-.012.012a6.193,6.193,0,0,0-1.007,3.41,6.291,6.291,0,1,0,11.574-3.422A7.537,7.537,0,0,0,50.4,34.452a2.462,2.462,0,0,0,1.774-.742,2.83,2.83,0,0,0,.314-.366l1.925,1.913-1.547,2.717a11.985,11.985,0,0,1,.805,1.937Zm0,0" fill="#fc4c59"/><path d="M55.435,16.474a12.276,12.276,0,0,1-1.283,5.46L50.4,29.419h-15.1l-3.749-7.485A12.224,12.224,0,0,1,42.49,4.258h.729A12.2,12.2,0,0,1,55.435,16.474Zm0,0" fill="#d8d8d8"/><path d="M52.919,31.935a2.444,2.444,0,0,1-.428,1.4v.012a2.83,2.83,0,0,1-.314.366,2.462,2.462,0,0,1-1.774.742h-15.1a2.525,2.525,0,0,1-2.089-1.108v-.012a2.521,2.521,0,0,1,2.089-3.913H50.4a2.523,2.523,0,0,1,2.516,2.516Zm0,0" fill="#ccd1d9"/><path d="M35.306,34.452H50.4a7.537,7.537,0,0,1-2.265,5.384,7.517,7.517,0,0,1-10.555,0,.2.2,0,0,1-.063-.05,7.48,7.48,0,0,1-2.214-5.334Zm0,0" fill="#969faa"/><path d="M46.629,16.839a3.774,3.774,0,1,1-3.775-3.774,3.775,3.775,0,0,1,3.775,3.774Zm0,0" fill="#ff826e"/><path d="M21.467,48.29A6.29,6.29,0,1,1,15.177,42a6.29,6.29,0,0,1,6.29,6.29Zm0,0" fill="#d8d8d8"/><path d="M75.5,53.954a7.544,7.544,0,1,0-8.663.915,9.8,9.8,0,0,0-4.5,7.421l-.507,6.129h-6.4a3.775,3.775,0,0,0,0,7.549h5.032V81H81.854V63.1A9.779,9.779,0,0,0,75.5,53.954Zm-4.973-10.7A5.033,5.033,0,1,1,65.5,48.29a5.037,5.037,0,0,1,5.032-5.032Zm8.806,35.226H62.983V75.968h.437a6.259,6.259,0,0,0,6.264-5.72l.841-9.262-2.505-.228-.842,9.262a3.756,3.756,0,0,1-3.758,3.432H55.435a1.259,1.259,0,0,1,0-2.517h6.4a2.505,2.505,0,0,0,2.506-2.3l.508-6.139a7.257,7.257,0,0,1,14.489.6Zm0,0"/><path d="M30.274,68.419l-6.4.01-.508-6.139a9.808,9.808,0,0,0-4.5-7.421,7.555,7.555,0,1,0-8.663-.915A9.779,9.779,0,0,0,3.854,63.1V81H25.241V75.968h5.033a3.775,3.775,0,0,0,0-7.549Zm-15.1-25.161a5.033,5.033,0,1,1-5.032,5.032,5.037,5.037,0,0,1,5.032-5.032Zm15.1,30.194H22.289a3.756,3.756,0,0,1-3.758-3.432l-.842-9.262-2.506.228.842,9.262a6.258,6.258,0,0,0,6.264,5.72h.436v2.516H6.37V63.1a7.258,7.258,0,0,1,14.491-.6l.508,6.149a2.5,2.5,0,0,0,2.505,2.288h6.4a1.259,1.259,0,0,1,0,2.517Zm0,0"/><path d="M54.289,48.5c.13-.286.252-.572.36-.861l3.3-.9V39.782l-3.3-.9q-.162-.434-.36-.862l1.7-2.976-2-2a3.673,3.673,0,0,0,.186-1.109,3.76,3.76,0,0,0-1.976-3.3l3.07-6.142a13.59,13.59,0,0,0,1.319-4.4H58.5l4.486,7.478,4.151-6.92a1.153,1.153,0,0,1,2.14.594v8.912H71.79V19.249a3.668,3.668,0,0,0-6.814-1.887l-1.993,3.321-3.062-5.1H56.648A13.478,13.478,0,0,0,43.222,3h-.735A13.478,13.478,0,0,0,29.061,15.581H25.788l-3.063,5.1-1.992-3.321a3.668,3.668,0,0,0-6.814,1.887v8.912h2.516V19.249a1.152,1.152,0,0,1,2.14-.592l4.15,6.918L27.211,18.1h1.908a13.542,13.542,0,0,0,1.318,4.4l3.071,6.142a3.76,3.76,0,0,0-1.976,3.3,3.685,3.685,0,0,0,.186,1.11l-2,2,1.7,2.978c-.131.285-.252.571-.36.861l-3.3.9v6.952l3.3.9c.108.29.229.577.36.861l-1.7,2.978,4.916,4.916,2.977-1.7c.285.13.572.251.861.359l.9,3.3H46.33l.9-3.3c.29-.108.577-.229.862-.359l2.977,1.7,4.916-4.916Zm-6.4-5.241a5.033,5.033,0,1,1-9.854-1.446,8.758,8.758,0,0,0,9.641,0,5.016,5.016,0,0,1,.213,1.446ZM35.306,30.677H50.4a1.259,1.259,0,0,1,0,2.517h-15.1a1.259,1.259,0,0,1,0-2.517Zm7.548,10.065a6.3,6.3,0,0,1-6.163-5.032H49.018a6.3,6.3,0,0,1-6.164,5.032ZM31.532,16.471A10.968,10.968,0,0,1,42.487,5.516h.735a10.955,10.955,0,0,1,9.8,15.855l-3.4,6.79H44.112V21.692a5.032,5.032,0,1,0-2.516,0v6.469H36.083l-3.4-6.79a11.01,11.01,0,0,1-1.156-4.9Zm11.322,2.884a2.516,2.516,0,1,1,2.516-2.516,2.519,2.519,0,0,1-2.516,2.516Zm7.795,33.9-2.49-1.421-.611.322a10.016,10.016,0,0,1-1.725.72l-.66.2-.752,2.759H41.3l-.755-2.759-.66-.2a9.933,9.933,0,0,1-1.726-.72l-.61-.322-2.489,1.42-2.2-2.2,1.421-2.49-.322-.611a10.016,10.016,0,0,1-.72-1.725l-.2-.66-2.757-.753V41.7l2.758-.755.2-.66a9.979,9.979,0,0,1,.72-1.726l.322-.61-1.419-2.49.377-.376a3.836,3.836,0,0,0,.881.413,8.758,8.758,0,0,0,1.924,4.523,7.549,7.549,0,1,0,13.627,0A8.771,8.771,0,0,0,51.593,35.5a3.732,3.732,0,0,0,.88-.414l.378.378-1.42,2.488.323.611a10.02,10.02,0,0,1,.719,1.726l.2.66,2.76.756v3.112l-2.76.753-.2.661a9.988,9.988,0,0,1-.719,1.724l-.323.611,1.422,2.491Zm0,0"/><rect width="2.516" height="2.516" transform="translate(69.274 35.71)"/><rect width="2.516" height="2.516" transform="translate(69.274 30.677)"/><rect width="2.516" height="2.516" transform="translate(13.919 35.71)"/><rect width="2.516" height="2.516" transform="translate(13.919 30.677)"/></g></g></svg>