<svg xmlns="http://www.w3.org/2000/svg" xmlns:xlink="http://www.w3.org/1999/xlink" width="85" height="85" viewBox="0 0 85 85"><defs><clipPath id="b"><rect width="85" height="85"/></clipPath></defs><g id="a" clip-path="url(#b)"><g transform="translate(0.126 1)"><path d="M80.616,14.323V24.387A2.523,2.523,0,0,1,78.1,26.9H73.067l-4.516,4.516a1.779,1.779,0,0,1-3.032-1.258V26.9H63a2.523,2.523,0,0,1-2.516-2.516V14.323A2.523,2.523,0,0,1,63,11.806H78.1a2.523,2.523,0,0,1,2.516,2.517Zm0,0" fill="#d8d8d8"/><path d="M19.4,68.016l.831,1.661-4.1,1.371a5,5,0,0,0-3.322,3.674l-.088-.012H10.164a2.523,2.523,0,0,1-2.516-2.516V67.161H18.971L19,67.149c.125.289.264.578.4.867Zm0,0" fill="#ccd1d9"/><path d="M40.358,67.161v5.033a2.523,2.523,0,0,1-2.516,2.516H35.288l-.089.012a5,5,0,0,0-3.321-3.674l-4.1-1.371.831-1.661c.138-.289.276-.578.4-.867l.025.012Zm0,0" fill="#ccd1d9"/><path d="M55.454,67.161v2.516L53.2,70.8A5.071,5.071,0,0,0,50.46,74.71H47.906a2.523,2.523,0,0,1-2.516-2.516V67.161Zm0,0" fill="#ccd1d9"/><path d="M78.1,67.161v5.033a2.523,2.523,0,0,1-2.517,2.516H73.03A5.076,5.076,0,0,0,70.287,70.8l-2.252-1.12V67.161Zm0,0" fill="#ccd1d9"/><path d="M58.989,36.728a9.418,9.418,0,0,0-5.472-2.679l-3.56-.44a3.958,3.958,0,0,1-1.082-.3L47.906,42l-5.032-5.032L37.842,42l-.982-8.819a4.116,4.116,0,0,1-.969.277,24.245,24.245,0,0,0-4.34.994,22.419,22.419,0,0,0-7.107,4.629,6.006,6.006,0,0,0-1.058-1.27l-5.46-4.857-.214.24-4.83,4.83,6.29,5.662a8.112,8.112,0,0,0,9.058,1.233l3.283-1.649a3.289,3.289,0,0,1,.038.5V59.613H61.745V43.371a9.4,9.4,0,0,0-2.756-6.643Zm0,0" fill="#fc4c59"/><path d="M40.358,52.065v15.1H29.035l-.025-.012a16.025,16.025,0,0,0,1.283-6.278,6.291,6.291,0,1,0-12.581,0A16.008,16.008,0,0,0,19,67.149l-.025.012H7.648v-15.1a2.523,2.523,0,0,1,2.516-2.517H37.842a2.523,2.523,0,0,1,2.516,2.517Zm0,0" fill="#d8d8d8"/><path d="M78.1,52.065v15.1H68.035v-6.29a6.291,6.291,0,1,0-12.581,0v6.29H45.39v-15.1a2.523,2.523,0,0,1,2.516-2.517H75.583A2.524,2.524,0,0,1,78.1,52.065Zm0,0" fill="#d8d8d8"/><path d="M73.067,75.3v4.441H50.422V75.3a4.679,4.679,0,0,1,.038-.591A5.071,5.071,0,0,1,53.2,70.8l2.251-1.12V74.71H68.035V69.677l2.252,1.12A5.076,5.076,0,0,1,73.03,74.71a4.677,4.677,0,0,1,.037.591Zm0,0" fill="#d8d8d8"/><path d="M35.325,75.817v3.925H12.68V75.817a4.5,4.5,0,0,1,.126-1.1,5,5,0,0,1,3.322-3.674l4.1-1.371h7.548l4.1,1.371A5,5,0,0,1,35.2,74.722a4.448,4.448,0,0,1,.126,1.1Zm0,0" fill="#ff826e"/><path d="M30.293,60.871a16.025,16.025,0,0,1-1.283,6.278c-.126.289-.264.578-.4.867l-.831,1.661H20.229L19.4,68.016c-.138-.289-.277-.578-.4-.867a16.008,16.008,0,0,1-1.284-6.278,6.291,6.291,0,1,1,12.581,0Zm0,0" fill="#fc4c59"/><path d="M68.035,69.677V74.71H55.454V60.871a6.291,6.291,0,0,1,12.581,0Zm0,0" fill="#fc4c59"/><path d="M38.52,31.747l4.354,5.221L37.842,42l-.982-8.819a3.684,3.684,0,0,0,1.66-1.434Zm0,0" fill="#fc4c59"/><path d="M48.875,33.307,47.906,42l-5.032-5.032,4.3-5.171a3.959,3.959,0,0,0,1.7,1.51Zm0,0" fill="#fc4c59"/><path d="M53.869,17.543a3.773,3.773,0,0,1-2.189,6.844h-1.7a7.289,7.289,0,0,0,.441-2.516V16.839H51.68a3.755,3.755,0,0,1,2.189.7Zm0,0" fill="#f0d0b4"/><path d="M55.454,12.637a8.361,8.361,0,0,1-1.585,4.906,3.755,3.755,0,0,0-2.189-.7H50.422V14.323h-.667A23.728,23.728,0,0,1,39.1,11.806l-.327.113a5.019,5.019,0,0,0-3.448,4.769v.151H34.067a3.76,3.76,0,0,0-2.189.7A8.381,8.381,0,0,1,38.672,4.258h8.4a8.375,8.375,0,0,1,8.378,8.379Zm0,0" fill="#d8d8d8"/><path d="M50.422,16.839v5.032a7.289,7.289,0,0,1-.441,2.516,7.564,7.564,0,0,1-3.333,4.026,7.582,7.582,0,0,1-7.548,0A7.7,7.7,0,0,1,37.539,27.2a7.631,7.631,0,0,1-2.214-5.334V16.688a5.019,5.019,0,0,1,3.448-4.769l.327-.113a23.728,23.728,0,0,0,10.655,2.517h.667Zm0,0" fill="#f0d0b4"/><path d="M47.176,31.8l-4.3,5.171L38.52,31.747a3.822,3.822,0,0,0,.58-2.013V28.413a7.582,7.582,0,0,0,7.548,0V29.86a3.825,3.825,0,0,0,.528,1.937Zm0,0" fill="#f0d0b4"/><path d="M35.766,24.387h-1.7A3.772,3.772,0,0,1,31.4,17.946a2.893,2.893,0,0,1,.478-.4,3.76,3.76,0,0,1,2.189-.7h1.258v5.032a7.289,7.289,0,0,0,.441,2.516Zm0,0" fill="#f0d0b4"/><path d="M17.926,32.954l-.214.24-4.83,4.83-2.819-2.54a3.477,3.477,0,0,1,2.328-6.065h.226a3.491,3.491,0,0,1,2.315.881Zm0,0" fill="#f0d0b4"/><path d="M74.325,75.968h1.258a3.778,3.778,0,0,0,3.775-3.774V52.065a3.779,3.779,0,0,0-3.775-3.775H63V43.376a10.582,10.582,0,0,0-3.122-7.534A10.693,10.693,0,0,0,53.669,32.8l-3.559-.446a2.52,2.52,0,0,1-2.2-2.5v-.774a8.854,8.854,0,0,0,2.913-3.441h.861a5.038,5.038,0,0,0,5.032-5.032,4.987,4.987,0,0,0-1.245-3.278A9.607,9.607,0,0,0,47.072,3h-8.4a9.652,9.652,0,0,0-9.64,9.64,9.554,9.554,0,0,0,1.246,4.7,4.983,4.983,0,0,0-1.246,3.277,5.037,5.037,0,0,0,5.032,5.032h.862a8.857,8.857,0,0,0,2.913,3.442v.64a2.5,2.5,0,0,1-2.123,2.484,26.07,26.07,0,0,0-4.567,1.046A21.726,21.726,0,0,0,24.6,37.25c-.124-.129-.247-.259-.381-.378l-8.454-7.513a4.721,4.721,0,0,0-3.147-1.2h-.226a4.741,4.741,0,0,0-3.173,8.263l9.113,8.2A9.38,9.38,0,0,0,28.8,46.042l1.5-.749v3H10.164A3.778,3.778,0,0,0,6.39,52.065V72.194a3.778,3.778,0,0,0,3.774,3.774h1.258v2.516H3.874V81h78V78.484H74.325Zm-53.8-8.51a14.8,14.8,0,0,1-1.554-6.587,5.032,5.032,0,0,1,10.064,0,14.8,14.8,0,0,1-1.554,6.587L27,68.419H21.006Zm9.2,1.126c.027-.052.045-.111.071-.165h9.3v3.775a1.26,1.26,0,0,1-1.258,1.258H36.1a6.263,6.263,0,0,0-3.82-3.6l-2.731-.91Zm6.853,7.384h1.259a3.778,3.778,0,0,0,3.774-3.774V60.871h2.516V72.194a3.778,3.778,0,0,0,3.774,3.774h1.258v2.516H36.583ZM54.2,68.9l-1.554.777a6.246,6.246,0,0,0-3.194,3.775H47.906a1.26,1.26,0,0,1-1.258-1.258V68.419H54.2ZM51.68,75.3a3.752,3.752,0,0,1,2.086-3.375l.43-.215v4.255h15.1V71.713l.43.215A3.751,3.751,0,0,1,71.809,75.3v3.181H51.68Zm5.032-1.851V60.871a5.032,5.032,0,0,1,10.065,0V73.452Zm18.871,0H74.044a6.257,6.257,0,0,0-3.195-3.775L69.293,68.9v-.481h7.549v3.775a1.26,1.26,0,0,1-1.259,1.258Zm1.259-21.387V65.9H69.293V60.871a7.549,7.549,0,0,0-15.1,0V65.9H46.648V52.065a1.26,1.26,0,0,1,1.258-1.259H75.583a1.261,1.261,0,0,1,1.259,1.259ZM47.214,33.724c.1.085.211.159.319.235l-.589,5.3-2.368-2.369ZM51.68,23.129h-.1a8.87,8.87,0,0,0,.1-1.258V18.1a2.516,2.516,0,0,1,0,5.032Zm-17.613,0a2.516,2.516,0,1,1,0-5.032v3.774a8.87,8.87,0,0,0,.1,1.258Zm.106-7.548h-.106a4.943,4.943,0,0,0-1.72.323A7.117,7.117,0,0,1,38.675,5.516h8.4A7.119,7.119,0,0,1,53.4,15.9a4.94,4.94,0,0,0-1.721-.323V13.065H49.758a22.675,22.675,0,0,1-10.1-2.385l-.466-.232-.829.277a6.274,6.274,0,0,0-4.194,4.856Zm2.41,6.29v-5.18a3.769,3.769,0,0,1,2.432-3.527,25.244,25.244,0,0,0,10.149,2.409v6.3a6.291,6.291,0,0,1-12.581,0Zm6.291,8.806a8.777,8.777,0,0,0,2.556-.38,5.013,5.013,0,0,0,.277,1.306L42.874,35,40.005,31.56a4.971,4.971,0,0,0,.3-1.268,8.74,8.74,0,0,0,2.57.385Zm-4.4,2.976,2.7,3.237L38.8,39.259l-.6-5.422c.09-.061.189-.115.275-.184ZM10.164,32.9a2.227,2.227,0,0,1,2.225-2.225h.226a2.211,2.211,0,0,1,1.476.563L16.1,33.026l-3.267,3.268L10.9,34.555a2.229,2.229,0,0,1-.736-1.653Zm21.019,6.95L29.4,41.631a3.04,3.04,0,0,1,.648.97l-2.381,1.19a6.99,6.99,0,0,1-7.658-1.035l-5.307-4.777L17.985,34.7l4.56,4.052A4.352,4.352,0,0,1,24,42h2.516a6.843,6.843,0,0,0-.531-2.626,19.8,19.8,0,0,1,5.961-3.728,23.18,23.18,0,0,1,3.822-.887l1.108,9.982,5.995-5.994,5.994,5.994,1.1-9.864,3.394.424A8.178,8.178,0,0,1,58.1,37.622a8.079,8.079,0,0,1,2.385,5.754V48.29H55.454V43.779a3.063,3.063,0,0,1,.89-2.148l-1.779-1.779a5.518,5.518,0,0,0-1.627,3.927V48.29H47.906a3.778,3.778,0,0,0-3.774,3.775v6.29H41.616v-6.29a3.778,3.778,0,0,0-3.774-3.775H32.809V43.779a5.517,5.517,0,0,0-1.626-3.927ZM10.164,50.806H37.842A1.26,1.26,0,0,1,39.1,52.065V65.9H30.769a17.269,17.269,0,0,0,.782-5.032,7.549,7.549,0,0,0-15.1,0,17.27,17.27,0,0,0,.783,5.032H8.906V52.065a1.26,1.26,0,0,1,1.258-1.259ZM8.906,72.194V68.419h9.3c.026.054.043.111.07.165l.18.359-2.733.91a6.262,6.262,0,0,0-3.818,3.6h-1.74a1.26,1.26,0,0,1-1.258-1.258Zm5.032,3.626a3.773,3.773,0,0,1,2.58-3.581l3.913-1.3h7.145l3.911,1.3a3.773,3.773,0,0,1,2.58,3.581v2.664H13.938Zm0,0"/><rect width="12.581" height="2.516" transform="translate(64.261 15.581)"/><rect width="12.581" height="2.516" transform="translate(64.261 20.613)"/><path d="M78.1,10.548H63a3.778,3.778,0,0,0-3.774,3.775V24.387A3.778,3.778,0,0,0,63,28.161h1.258v2A3.037,3.037,0,0,0,69.446,32.3l4.142-4.143H78.1a3.778,3.778,0,0,0,3.774-3.774V14.323A3.778,3.778,0,0,0,78.1,10.548Zm1.258,13.839A1.26,1.26,0,0,1,78.1,25.645H72.546l-4.88,4.88a.541.541,0,0,1-.889-.368V25.645H63a1.26,1.26,0,0,1-1.258-1.258V14.323A1.26,1.26,0,0,1,63,13.065H78.1a1.26,1.26,0,0,1,1.258,1.258Zm0,0"/></g></g></svg>