<svg xmlns="http://www.w3.org/2000/svg" xmlns:xlink="http://www.w3.org/1999/xlink" width="85" height="85" viewBox="0 0 85 85"><defs><clipPath id="a"><rect width="51.492" height="78" transform="translate(16.775 5)" fill="none"/></clipPath><clipPath id="c"><rect width="85" height="85"/></clipPath></defs><g id="b" clip-path="url(#c)"><g transform="translate(0.225 -1)"><path d="M18.3,6.523H52.814L66.6,20.309V71.73H18.3Zm0,0" fill="#d8d8d8" fill-rule="evenodd"/><path d="M52.814,6.523V20.309H66.6Zm0,0" fill="#d8d8d8" fill-rule="evenodd"/><path d="M42.758,63.182H55.982V81.477L49.37,77.329l-6.612,4.148Zm0,0" fill="#fc4c59" fill-rule="evenodd"/><g clip-path="url(#a)"><path d="M49.37,42.952c1.166,0,2.089,1.425,3.138,1.774s2.6-.254,3.474.387.76,2.3,1.4,3.172,2.263,1.274,2.612,2.324-.7,2.372-.7,3.538,1.046,2.489.7,3.538-1.972,1.451-2.612,2.325-.527,2.531-1.4,3.172-2.425.038-3.474.386-1.972,1.774-3.138,1.774-2.089-1.424-3.138-1.774-2.6.255-3.474-.386-.76-2.3-1.4-3.172-2.262-1.275-2.611-2.324.7-2.372.7-3.539-1.046-2.489-.7-3.538,1.971-1.451,2.611-2.324.527-2.532,1.4-3.172,2.424-.038,3.474-.387,1.971-1.774,3.138-1.774Zm0,0" fill="#fc4c59" fill-rule="evenodd"/><path d="M68.121,20.258l0-.05a1.613,1.613,0,0,0-.024-.2h0a1.576,1.576,0,0,0-.053-.19l-.016-.046a1.565,1.565,0,0,0-.076-.173l0-.009a1.343,1.343,0,0,0-.105-.168c-.009-.014-.02-.026-.03-.04a1.49,1.49,0,0,0-.132-.154L53.891,5.446a1.59,1.59,0,0,0-.153-.132l-.041-.03a1.332,1.332,0,0,0-.167-.105l-.012-.006a1.811,1.811,0,0,0-.169-.075L53.3,5.082a1.464,1.464,0,0,0-.189-.053h0a1.581,1.581,0,0,0-.194-.024l-.05,0-.052,0H18.3a1.523,1.523,0,0,0-1.523,1.523V71.73A1.523,1.523,0,0,0,18.3,73.254H41.234v8.223a1.524,1.524,0,0,0,2.334,1.29l5.8-3.64,5.8,3.64a1.523,1.523,0,0,0,2.333-1.29V73.254H66.6a1.523,1.523,0,0,0,1.523-1.524V20.309c0-.017,0-.034,0-.051ZM54.338,10.2l8.584,8.584H54.338ZM40.483,52.055a4.679,4.679,0,0,1-.286-.962,4.577,4.577,0,0,1,.785-.568,5.527,5.527,0,0,0,1.6-1.34,5.491,5.491,0,0,0,.8-1.951,4.919,4.919,0,0,1,.283-.883,1.937,1.937,0,0,1,.377-.027c.17,0,.359.009.56.02.231.011.469.023.718.023a4.311,4.311,0,0,0,1.393-.2,5.73,5.73,0,0,0,1.758-1.084,3.921,3.921,0,0,1,.892-.612,3.65,3.65,0,0,1,.905.612,5.735,5.735,0,0,0,1.759,1.084,4.316,4.316,0,0,0,1.393.2c.248,0,.487-.012.717-.023.2-.011.391-.02.561-.02a1.884,1.884,0,0,1,.378.027,5.006,5.006,0,0,1,.282.883,5.472,5.472,0,0,0,.8,1.951,5.527,5.527,0,0,0,1.6,1.34,4.577,4.577,0,0,1,.785.568,4.8,4.8,0,0,1-.285.962,6.026,6.026,0,0,0-.484,2.092,6.059,6.059,0,0,0,.483,2.093,4.736,4.736,0,0,1,.286.961,4.523,4.523,0,0,1-.785.568,4.348,4.348,0,0,0-2.4,3.291,5.006,5.006,0,0,1-.282.883,1.935,1.935,0,0,1-.378.028c-.17,0-.36-.01-.561-.02-.23-.011-.469-.023-.717-.023a4.316,4.316,0,0,0-1.393.2,5.752,5.752,0,0,0-1.759,1.083,3.774,3.774,0,0,1-.9.611,3.774,3.774,0,0,1-.9-.611,5.764,5.764,0,0,0-1.759-1.083,4.311,4.311,0,0,0-1.393-.2c-.248,0-.487.012-.718.023-.2.01-.39.02-.56.02a1.912,1.912,0,0,1-.377-.028,4.893,4.893,0,0,1-.283-.883,4.348,4.348,0,0,0-2.4-3.291A4.5,4.5,0,0,1,40.2,57.2a4.68,4.68,0,0,1,.285-.961,6.049,6.049,0,0,0,.483-2.093,6.048,6.048,0,0,0-.483-2.092ZM54.458,78.722,50.18,76.038a1.527,1.527,0,0,0-1.62,0l-4.279,2.684V65.013c.162,0,.321-.011.475-.019.2-.01.392-.02.564-.02a1.481,1.481,0,0,1,.43.04,4.113,4.113,0,0,1,.811.567,4.483,4.483,0,0,0,2.809,1.285,4.483,4.483,0,0,0,2.809-1.285,4.141,4.141,0,0,1,.81-.567,1.55,1.55,0,0,1,.43-.039c.172,0,.363.009.565.019.154.008.313.015.474.019V78.722Zm3.047-8.515V63.785a5.539,5.539,0,0,0,.8-1.963,3.9,3.9,0,0,1,.3-.911,3.939,3.939,0,0,1,.774-.566,4.3,4.3,0,0,0,2.054-2.179,4.4,4.4,0,0,0-.322-2.975,4.123,4.123,0,0,1-.3-1.044,4.107,4.107,0,0,1,.3-1.043,4.4,4.4,0,0,0,.322-2.976,4.3,4.3,0,0,0-2.054-2.178,4.022,4.022,0,0,1-.774-.566,3.924,3.924,0,0,1-.3-.912,4.245,4.245,0,0,0-1.424-2.588,3.62,3.62,0,0,0-2.185-.607c-.247,0-.485.012-.714.024-.2.01-.393.019-.564.019a1.491,1.491,0,0,1-.431-.04,4.014,4.014,0,0,1-.81-.567,4.493,4.493,0,0,0-2.809-1.284,4.5,4.5,0,0,0-2.809,1.284,4.055,4.055,0,0,1-.81.567,1.5,1.5,0,0,1-.431.04c-.171,0-.362-.009-.564-.02-.23-.011-.467-.023-.714-.023a3.616,3.616,0,0,0-2.184.607,4.248,4.248,0,0,0-1.426,2.588,3.978,3.978,0,0,1-.3.912,4.034,4.034,0,0,1-.775.566A4.3,4.3,0,0,0,37.3,50.128a4.4,4.4,0,0,0,.321,2.976,4.116,4.116,0,0,1,.3,1.043,4.132,4.132,0,0,1-.3,1.044,4.4,4.4,0,0,0-.321,2.976,4.305,4.305,0,0,0,2.053,2.178,3.92,3.92,0,0,1,.775.566,3.951,3.951,0,0,1,.3.911,5.542,5.542,0,0,0,.8,1.963v6.422H19.822V8.047H51.291V20.309a1.523,1.523,0,0,0,1.523,1.524H65.076V70.207Zm0,0" fill-rule="evenodd"/></g><path d="M25.742,21.833H45.37a1.524,1.524,0,0,0,0-3.047H25.742a1.524,1.524,0,0,0,0,3.047Zm0,0" fill-rule="evenodd"/><path d="M59.326,26.476H25.742a1.524,1.524,0,0,0,0,3.047H59.326a1.524,1.524,0,0,0,0-3.047Zm0,0" fill-rule="evenodd"/><path d="M53.232,34.165H25.742a1.524,1.524,0,0,0,0,3.047h27.49a1.524,1.524,0,0,0,0-3.047Zm0,0" fill-rule="evenodd"/><path d="M59.326,34.165a1.524,1.524,0,1,0,1.523,1.524,1.527,1.527,0,0,0-1.523-1.524Zm0,0" fill-rule="evenodd"/></g></g></svg>